<svg id="katman_1" data-name="katman 1" xmlns="http://www.w3.org/2000/svg" viewBox="0 0 50 50"><title>p logo svg</title><polygon points="28.61 5 28.4 4.93 28.33 4.8 28.26 4.73 28.47 5.14 28.61 5"/><path d="M29.23,3.49s-.14-.28-.14-.14-.07.41-.07.41l.21-.21Z"/><path d="M32,4.8l-.07-.14-.07.14a.13.13,0,0,1-.14.13A.21.21,0,0,0,32,4.8Z"/><polygon points="27.64 4.17 27.5 4.11 27.64 4.31 27.64 4.17"/><path d="M22.81,1H9.49C8.24,1,8,1.48,8,2.45V8.86H22.19C30.26,8.87,33,12.94,33,18.26s-2.77,9.59-10.77,9.59H12.08c-.11.1-.25.18-.25.14v-.14H8V48.22a1.43,1.43,0,0,0,1.58,1.31h5.73a1.14,1.14,0,0,0,1.25-1.11V36.48c0-.83.27-1,1-1h3.59c14.64,0,21.06-7.05,21.06-17.19S35.72,1,22.81,1ZM38.89,17.57v.2l-.07-.2Zm-.41-1,.14-.14.07.21.06.21-.06-.07V16.6Zm-.21,4a3.81,3.81,0,0,0,.28-.56l.07.35A1,1,0,0,0,38.27,20.54Zm.35.62-.14.13v-.2l.07.07Zm-1.73,1.17c-.07,0-.21-.41-.21-.41l.69.13-.07.35L37,22.19S37,22.33,36.89,22.33Zm.07.55v.21L36.89,23ZM34.89,11.35l-.21.28-.27.07v-.35Zm-.07-.82V10l.34.21ZM35,12l-.07.07v.14L34.82,12Zm.07.49.41.21h-.35s.14.13.07.2A.32.32,0,0,1,35,13Zm1.65-1.38.21.07-.07.62L36,13.15Zm-.62,1,.07-.2v.2Zm.14-2.48h-.35l-.07-.07L36,9.28C36.06,9.35,36.27,9.63,36.27,9.63Zm-.21-.69.14-.14V9ZM36.34,11l.21-.07s-.14.35-.07.35-.28-.14-.28-.14v-.07Zm.34-.35h-.2a.77.77,0,0,1-.07-.34c.27.07.2.28.2.28Zm.56,4.77h.2l-.07.14V15.5Zm-.83,4.07a3.56,3.56,0,0,0-.07-.55L37,19l-.35.2A1,1,0,0,0,36.41,19.5Zm.07,1.1v.21l-.21-.07.07-.07h.07Zm.2-7.73h-.2l.07-.13v.06Zm0,.56.14-.35L37,13l-.28.55-.07.42-.34-.14v-.62Zm-.07,2.83c0-.07-.06-.07-.06-.21a.94.94,0,0,1-.07-.35.57.57,0,0,0,.2.28.13.13,0,0,0,.21,0Zm.21,1.31v.14l-.14-.07C36.75,17.64,36.75,17.64,36.82,17.57Zm-.34-2.9v-.55l.34.2C37,14.39,36.48,14.74,36.48,14.67ZM37,16.74H37l-.07.14-.14-.21C36.89,16.53,36.89,16.67,37,16.74Zm-.14-1.31c-.07.07.07-.76.07-.76l.21.34A4.29,4.29,0,0,1,36.82,15.43ZM36.48,17s.07.34.07.41-.28-.07-.28-.07v-.07l.07-.14Zm.62,4.55c.07-.07.07-.21.14-.07l-.14.21L37,21.5Zm.07-1.31-.07-.07.07-.14ZM37.1,18.4l.07-.14.13.2Zm0-5.73-.21-.21-.07-.21.07-.14.21.07.14.14Zm-.9,1-.07.35-.28.41s-.06-.21-.13-.21.13-.55.13-.55Zm-.69,6.21-.07-.06.21-.14Zm.34,3.25h-.13L35.65,23Zm-.13,1,.07.14.2.07-.14.14-.2-.41Zm.2-2.83-.07.14-.13-.2c.07-.14.07,0,.13.06Zm-.07-1.17.07-.07H36l.07-.07v.21Zm-.2-3.93a3,3,0,0,1-.28.34c.07-.27.21-.69.21-.69l.41.35Zm.27.62L36,17l.21.06-.14.14-.21-.41Zm-.2-1.94s.07.49,0,.49a4.2,4.2,0,0,1-.35-.83Zm-.35-1.58.07-.14v.21ZM35.51,12,35.3,12c-.07-.14.07,0,.14,0l.07-.07ZM35.3,25.23v.14l-.2-.07Zm0,2.14.07-.14v.07l.14.07Zm.07.48v.21H35.3Zm0-1,.07.07.07.13.21.07-.14.14Zm.28-1a2.28,2.28,0,0,1-.28.34c.07-.27.21-.69.21-.69l.41.35Zm.41.48a.24.24,0,0,0,.07.14l.07.07H36S36.06,26.33,36.06,26.4Zm0-7.25V19l.07.14ZM36,18.74c0-.07-.27-.9-.2-.9l.55.07-.14.28A4.6,4.6,0,0,1,36,18.74Zm.28,4.76.07-.07h.07l-.07.21-.14-.14Zm.21.56h.07l.06-.07v.2l-.2-.07Zm.07,2.27.06.07h.07l-.13.14Zm.06-6.76c.07-.14.07,0,.14.07h.07l-.07.14Zm.28,4.14h-.21l.07-.14v.07Zm.28-4.56.07.07.06.14.21.07-.14.14Zm.34,3.94-.07-.21.21.21Zm.14.48-.14.21-.07-.14h.07C37.58,23.57,37.58,23.43,37.65,23.57ZM37.51,18c-.07-.14.07,0,.14,0l.07-.07v.14Zm.28,1.66.07.14.2.07-.13.13-.21-.41Zm0,1-.07-.06-.07-.14v-.21s.34.21.34.28S37.79,20.6,37.79,20.6Zm.07.56-.21.2.07-.13Zm.27,3.17-.14.21-.06-.07Zm-.83-7.25-.06-.62.2-.07.76,2Zm.49-.55.07-.14.13.21c-.06.14-.06,0-.13-.07Zm.55,1.18.07-.07h.07l.07-.07v.2Zm.21.55-.14.14.07-.21Zm-.14-2.76c-.14-.07-.07-.49-.07-.49l.28.14S38.55,15.57,38.41,15.5ZM38.34,17,38.2,17l-.07-.14Zm-.14,2.21.07.14.21.07-.14.14-.21-.42Zm.28-.34a.22.22,0,0,1,.07-.14.07.07,0,0,0,.07.07l.07.07Zm.14-6.56h.07l-.07.14-.14-.21C38.55,12.11,38.55,12.25,38.62,12.32Zm-.07,1v.2l-.14-.06Zm-.28.62.35-.07V14l-.35.27Zm0,2.21-.07.14-.14.06S38,16,38,15.91s.28.14.28.14Zm-.34-3s-.24-.06-.28,0C37.8,12.67,38.61,12.88,37.93,13.15Zm0-.55.13-.14v.21Zm-.14-1.25.07.14.2.07-.13.14-.21-.41ZM37.72,14l-.28.34-.14-.07.14-.27Zm-.42-.83-.06-.21.2.21ZM37,11.63l.07-.14.14-.07Zm.14-.9L37,10.66,37,10.6h.07l.07-.07Zm-.35-.55L36.68,10l-.07.07-.2-.41.07.07.07.14.13.06-.13-.34.55.34Zm-1-2.28c0-.14.07-.69.28-.69s.42.21.28.35.76.34.07.76S35.85,8,35.85,7.9Zm.42,1.8V10a.31.31,0,0,0,0,.13c-.1,0-.45-.13-.45-.13Zm-.28.48-.07.14.07.21v.07l-.2-.42Zm-.2.76.41.28-.41.34Zm-.49,0,.14.35-.07.2-.14-.27-.07-.28-.27-.34.83.27Zm0-1.31V9.08l.35.2C35.79,9.35,35.3,9.7,35.3,9.63Zm0-2.28.07.14.21.07-.14.14-.21-.42ZM35,8.11l.55.07-.14.28a4.6,4.6,0,0,1-.21.55C35.16,8.94,34.89,8.11,35,8.11Zm0,1.52L35,9.56h.07L35,9.77l-.14-.14ZM34.82,6.8h-.14l-.07-.21ZM34.61,9l.07.07-.14.13Zm-.14,1.1-.06-.21.13.07Zm-.34-2.55-.07-.07.14-.28c.07.07.27.35.27.35Zm.07,2.83-.21.07.14-.28c.14,0,.07,0,0,.14Zm.21,17.74-.14.21-.07-.07ZM34,8.87h.14L34,9l-.07-.28C34.06,8.66,34,8.66,34,8.87Zm0-.62.07-.14.14.21ZM34.41,6l-.28.55-.07.42-.35-.76.35.2L34.2,6Zm-.56,2-.2-.34.13-.14V7.7ZM34,5.42l.07-.07-.21.41-.14-.13.21-.07Zm-.28-.07.14-.07-.2.21Zm-.06.48V5.9s-.28.14-.28.07.07-.41.07-.41l.14.13Zm-.35-.48c.07-.07.07-.21.14-.07l-.14.21-.07-.14ZM33.37,7v.48l-.07-.14-.14.21Zm0,1.58h-.14l-.07-.2Zm-.69-3.72H33L33,5.21l-.28.42s-.07-.21-.14-.21S32.68,4.87,32.68,4.87Zm-.14,1.31s-.34.34-.34.41A.65.65,0,0,1,32.06,6c.07-.28.83-.35.9-.14S32.54,6.18,32.54,6.18Zm.28.55-.14.07-.07-.14-.14-.07.07-.14Zm-.14.41.14-.34.2-.07-.27.55-.07.42-.35-.76Zm-.21-1.93c.14.14-.48.42-.48.55s-.21.28-.28.35.35.41.21.41h-.14c0,.14-.55-.07-.69.07s-.48.55-.62.55,0-.07-.21-.27a.31.31,0,0,0,.07-.21c0-.14.42-.34.49-.41A.39.39,0,0,0,31,6a.51.51,0,0,1-.13-.28c0-.13.27.07.41-.06a1,1,0,0,1,.48-.14C31.85,5.49,32.4,5.14,32.47,5.21ZM29.16,4a.54.54,0,0,0,.21.27c.07.14.2.07.27.07l-.2.07s-.13.19-.26.21c0,0,0-.1.05-.28A.35.35,0,0,1,29.16,4Zm.41,1-.07-.55s.42.69.35.76-.55.21-.55.07S29.57,5.07,29.57,5.07ZM30,4.18l-.14.13L29.78,4c.14-.07.07-.07.07.14Zm.41,1.58a1.74,1.74,0,0,0-.34-.34s.27-.76.34-.62-.07.27.21.48S30.4,5.63,30.4,5.76Zm.21.07-.14.35-.28.27c-.06.07.14-.62.14-.62Zm-.69-.62L30,4.38l.34.21Zm-.21.9.14.41-.14.14Zm.07-.35V5.69l.14-.06.21-.07s-.14.34-.07.34S29.78,5.76,29.78,5.76Zm.28.62v.14l.2.14L30,6.59Zm1.65-2.27s.49.82.42.89-.62.28-.62.14a2.93,2.93,0,0,1,.27-.48Zm-.48,1.1h-.14V5.07L31,5h.28ZM31,3.9l.14.48s-.62.49-.69.42l.07-.9h-.35l-.34-.35C30.47,3.55,30.82,3.62,31,3.9Zm-1.31-.55.07.2c-.14.07-.14,0-.14-.13Zm-1,.2c.14-.13.14-.41.35-.41s.21.28.28.35.34.13.34.34-.55-.07-.69.07-.48.55-.62.55-.21.21-.35.07.21-.41.21-.55S28.68,3.62,28.74,3.55Zm-.69,1.94h-.2L28,5.42V5.35c-.14.07-.28,0-.42,0s-.76.55-.9.48.07-.41.07-.55.28,0,.56-.07c.13-.07.34-.34.55-.34s.34-.28.55-.21.28.21.28.27-.21.28-.56.35a.2.2,0,0,1-.13.07Zm-.13.76-.21-.35.14-.14V6Zm-.69-1.11V4.87l.2.06Zm.62-.55.07-.21.07.07ZM27.3,3.42c.13,0,.75-.28.89-.21s-.48.34-.48.55.21.55.14.69-.42-.34-.62-.34-.28.48-.42.41.07-.41.07-.62.14-.14.28-.28S27.09,3.42,27.3,3.42Zm-2.21,0s.13.2-.07.27a.1.1,0,0,0,0-.14L25,3.42Zm.07,1.17.13.14-.07.07-.06-.07L25,4.8Zm-.9-.9s.07.42.07.49-.42-.69-.42-.69Zm-.69.14a2.85,2.85,0,0,0-.35-.48h.42C23.77,3.28,23.64,3.83,23.57,3.83Zm-.21-1.17-.14.41-.14.11c0-.12-.06-.59-.06-.59Zm-.28.55Zm-4,1a.31.31,0,0,1,0,.27A.24.24,0,0,0,19,4.31l-.07-.07ZM19,4.73h-.07l-.14.07.07-.14Zm-.34-1.52h-.14L18.46,3Zm-.07.69a2.93,2.93,0,0,0,.2.41c0,.14-.62-.48-.62-.48Zm-.69,1.66V5.49L18,5.35C18.11,4.93,18.32,6,17.91,5.56Zm-.07-1.25V4.18h.07l.07.06Zm.07-1.38H18l-.07.14-.14-.21C17.84,2.73,17.84,2.86,17.91,2.93Zm-.14,2.14c-.07-.07-.48-.34-.48-.34l.34-.14C17.77,4.45,17.84,5.07,17.77,5.07Zm-.42.21a.24.24,0,0,1-.2.14c.07,0,.07-.14.07-.14V5.21Zm-.06-2.35c0,.07-.07.28-.07.14l-.14-.14Zm-3,1,.07.07v.27S14,4,14,3.9,14.25,3.9,14.25,3.9Zm-.21,1,.07.07.07-.07v.21L14,5Zm-.21.49-.27-.14c0-.14,0-.07.14,0l.07-.07Zm-.13-.49-.07-.06-.14.06.14-.2.14.14Zm-.07-2V2.79L13.7,3h-.14Zm-.07.62s.14.21-.07.28a.1.1,0,0,0,0-.14l-.07-.14ZM13.42,5.9l.07-.21s.21.28.28.28-.28.14-.28.14L13.42,6Zm-.34-.07.06-.14.14.21v.28l-.41-.35Zm-.21-.34L13,5.35l.13.14Zm.27-.83v.41c-.06,0-.13,0-.2-.14a.5.5,0,0,1-.28-.13.55.55,0,0,0,.35,0A.14.14,0,0,0,13.14,4.66Zm-.2-1.8a.15.15,0,0,0,.14-.13v.41c-.07,0-.14,0-.21-.14a.49.49,0,0,1-.28-.14A.55.55,0,0,0,12.94,2.86Zm-.21,1s.07.41.07.48-.42-.69-.42-.69Zm-.35,1c.07-.07,0,.2,0,.2l-.13.07L12,5S12.32,4.8,12.38,4.87Zm-.27-1.38c.14-.07,0,.48-.07.48a2.85,2.85,0,0,0-.35-.48Zm-.28,1.72-.07-.07.14.07-.21.14C11.49,5.28,11.76,5.28,11.83,5.21Zm-.69-.69h.42s.41.35.27.41S11.14,4.52,11.14,4.52Zm.49-.69.13.21-.27.07L11.63,4Zm-.21-1.31.07.34.07.49s-.21-.14-.21-.07-.28-.49-.28-.49ZM10.52,6l.07.21-.14-.14ZM9.9,5,10,4.93,10,5l.07-.07v.21ZM10,8l-.21-.41.07.07.07.13.21.07ZM10,6.11,10,5.9c.19-.13.13.14.13.14l.07.07Zm.2-1.87S10,4,10,3.9s.21,0,.21,0l.06.07Zm-.06-.9L10,2.86l.21-.2.06.34A.83.83,0,0,1,10.18,3.34Zm.13,4,.07-.14.14-.14s.07.35.07.42-.28-.07-.28-.07Zm.35,1.24-.14-.2h.14Zm.07-5-.07-.13.48.2L11,3.76l-.13-.07Zm.34,1.87.14.21h-.27Zm0,1,.14-.06.07.06Zm.42.83-.07-.14.27.07L11.76,7l.14.06-.21.07ZM12,8.73l-.14-.21c.07-.13.07,0,.14.07H12Zm-.14-2.28.07-.13.14.06ZM12.38,6c-.13-.28-.34-.62-.34-.62h.62l-.28.21Zm.14,2.62V8.11l.35.21C13,8.39,12.52,8.73,12.52,8.66Zm.56-2.14V6.38l.13.21-.27.07Zm.13,2.21-.07-.07.21-.14Zm.28-2,.14.21h-.28Zm.28.9-.07-.07.13.07-.2.13C13.42,7.7,13.7,7.7,13.77,7.63Zm.13.55L13.83,8l.21.21Zm.21-2.07a1.43,1.43,0,0,0-.06-.21c.2-.13.13.14.13.14l.07.07Zm.14-1.59V4.45l.21.07C14.46,4.66,14.39,4.59,14.25,4.52Zm.27.76.14-.21.14.21Zm.49.48c-.21-.07.07-.07.14-.13l-.07-.07.13.07Zm.07-1.45-.14-.07-.14-.13L14.73,4l.48.21Zm.2-.62S15,3.42,15,3.35s.2,0,.2,0l.07.07Zm.35.9V4.45l.14.21-.28.07Zm0-.55h.28l-.14.07Zm0,1.93.14-.07.07.07Zm.14-.48-.07-.14.27.07Zm.07-2.63-.07-.13.48.2-.14.14L16,3Zm.27.69V3.49h.21C16.32,3.62,16.25,3.62,16.11,3.55Zm.42,1.8.07.07h-.21Zm-.07.55V5.83l.2.14Zm.41-.83-.07-.2.14.06ZM16.66,4l.28-.21s.28.28.14.35S16.66,4,16.66,4ZM17.91,6c0,.07-.83-.14-.83-.14l.41-.14S18,6,17.91,6Zm0-.28h.27l.14-.13.07.2Zm.69-.13a.9.9,0,0,0,.34-.07l.14-.14v.07a.64.64,0,0,0,.07.27.26.26,0,0,1-.21-.07A1.49,1.49,0,0,1,18.6,5.63Zm.41.62.14-.07h.14Zm1-3.32-.21.28.14.41-.48-.48Zm0,1.52v.14s-.35-.14-.35-.21.21-.14.21-.14l.07.07Zm-.21,1.31V5.69l.14.14h-.28C19.56,5.69,19.63,5.76,19.77,5.76Zm.35.42-.21-.07h.21Zm-.21-.76L20,5.35h.07l.07-.07.07.21Zm.14-.55v.06L20,4.8h.21C20.25,4.93,20.19,4.87,20.05,4.87Zm.69,1.24L20.67,6l.07.07.14-.14Zm0-.42c-.07.07-.42-.41-.42-.41l.21-.35.21.28.2.48S20.74,5.63,20.74,5.69Zm.27-3,.14-.07.07-.14s.07.34,0,.41S21,2.86,21,2.86ZM21.08,5c0-.13,0-.07.14,0l.07-.07.07.21Zm.14-.48h-.14l.28-.07ZM21.43,4l-.21-.48.21-.2.07.34S21.5,4,21.43,4Zm.48,1.39-.14-.21h.14Zm-.14-.62V4.73l.07-.07-.07-.14.21.14Zm.07-1.38Zm0,0c0-.12-.07-.6-.07-.6l.35.07L22,3.28A.79.79,0,0,0,21.84,3.39Zm.28.72L22.19,4V3.9l.07.21Zm.34-.62.35-.28.07.34L23,4s-.21-.14-.21-.07S22.46,3.49,22.46,3.49ZM23.15,6,23,6.11,22.74,6s.34-.21.41-.14S23.15,6,23.15,6Zm.49-1.8s.41.35.27.42-.69-.42-.69-.42Zm-.21.56.14.07L23.43,5Zm.48.69V5.9c-.14-.27-.34-.62-.34-.62h.62Zm.62-.83a.15.15,0,0,0,.14-.14v.41a.2.2,0,0,1-.21-.13.49.49,0,0,1-.27-.14A.52.52,0,0,0,24.53,4.66Zm.14.69H24.4l.13-.14Zm.14.69-.41-.35h.2l.07-.13.14.2ZM25,4.11l.07.2-.14.07ZM25,6,25,5.9V5.76l.07-.2s.2.27.27.27S25,6,25,6Zm.41-2.83c-.14.07-.34-.28-.34-.28l.34-.13S25.57,3.07,25.43,3.14Zm.35.62.07.07v.28s-.28-.28-.28-.35S25.78,3.76,25.78,3.76ZM25.64,6l-.06-.21c.19-.13.13.14.13.14l.07.07Zm.14-1.59V4.31l.2.07C26,4.52,25.91,4.45,25.78,4.38Zm.27.76.14-.21.14.21ZM26,3.62l.07-.41.49-.28h.55l-.55.42a4.21,4.21,0,0,0-.14.48Zm.76,3.18a.23.23,0,0,1-.2-.07c-.07-.07.2-.07.2-.21s-.34-.2-.27-.27a.34.34,0,0,1,.27-.14c.14,0,.14.27.21.34s.55-.62.55-.55A5.62,5.62,0,0,1,27,7.07C27,7.14,26.81,6.8,26.74,6.8Zm.62-.14.07-.14.14-.2v.55l-.07-.14Zm.42.48a.71.71,0,0,1-.21-.07l.28-.34.27.34-.27-.13A.14.14,0,0,1,27.78,7.14Zm.48-.55h-.21V6.11c0-.48.35.21.35.21S28.33,6.59,28.26,6.59ZM28.4,6c-.07-.07.21-.21.21-.28s0-.2.13-.27,0-.28.14-.28,0,.28.14.35.42.14.42.27-.35-.13-.49-.07-.07.28-.27.28S28.47,6,28.4,6Zm.21.55.07-.41.2.07-.14.07Zm.41,1-.21-.42.07.07.07.14.21.07Zm.07-.62L29,6.73c.07-.14.07,0,.14.07h.07Zm.14-.9.41.21H29.3s.14.13.07.2a.35.35,0,0,1-.21.07Zm0,1,.62-.21.34.62Zm1,.89.07-.14v.07l.14.07Zm.62-.07V7.49s-.62-.07-.48-.21.69.07.69.07l.21.35Zm.28-.69H31a5.68,5.68,0,0,1,.35-.48l.21.28Zm.62-.2.42.34h-.35a2.74,2.74,0,0,1-.28.35C31.64,7.35,31.78,6.94,31.78,6.94Zm.07,1.65a5.3,5.3,0,0,1,.35-1c.07,0,.62.27.55.34a2.11,2.11,0,0,1-.55.14Zm.69.56a3,3,0,0,1,.28-.49l-.07-.55s.48.83.41.9S32.54,9.28,32.54,9.15Zm.35,19h-.14L32.68,28Zm-.9.2.07-.13.14-.14s.07.34.07.41-.28-.07-.28-.07Zm-2.07,2.21c.07.07-.21.14-.21.14l-.07-.07-.07-.14v-.2S29.92,30.54,29.92,30.61Zm-.42-.89.07.13.21.07-.14.14-.2-.41Zm-.2.48h.07l-.07.14-.14-.21C29.23,30,29.23,30.13,29.3,30.2Zm-.49.21h.07l.07-.07v.2l-.21-.06Zm-.55-.28.35.21c.13.07-.35.41-.35.34Zm-.48-.07-.14.21-.07-.07Zm-.55.48v.21l-.07-.21ZM25.78,31v.21h-.07L25.57,31Zm-.69-.76c.13-.07-.07.21-.07.21h-.14l-.07-.14-.14-.07S25.09,30.2,25.09,30.27ZM23,30.2s.13.21-.07.28a.1.1,0,0,0,0-.14l-.07-.14Zm-.56,1.24a.15.15,0,0,0,.14-.14v.42c-.07,0-.14,0-.21-.14a.49.49,0,0,1-.27-.14A.51.51,0,0,0,22.46,31.44Zm-.27-1s.07.41.07.48-.42-.69-.42-.69Zm-.62-.35c.13-.07,0,.48-.07.48a2.85,2.85,0,0,0-.35-.48Zm.06,1v.07s-.27.13-.27.06.07-.41.07-.41l.14.14Zm-.34.41c0,.07-.69-.41-.69-.41H21S21.43,31.51,21.29,31.58Zm-1.93-1.45.07.35a.75.75,0,0,1-.07.34l-.21-.48Zm-3.73-.55-.14.41a1,1,0,0,0-.14.12c0-.12-.07-.6-.07-.6Zm-.28.55Zm.21,1.24c.14-.13.21.49.14.49s-.49-.35-.49-.35C14.66,30.89,14.8,30.54,15.56,31.37Zm-.83-2.07-.21.28.14.41-.48-.48ZM13.9,40.9a4.46,4.46,0,0,0-.13.48l-.42-.2.07-.42.48-.28h.56Zm.49,3.52-.21-.07.14-.14Zm-1.38-1-.35-.34c.62,0,1,.07,1.17.34l.14.49s-.62.48-.69.41l.07-.9Zm.07.42v.07l-.21.2s0-.41.07-.41S13.08,43.87,13.08,43.87ZM12,44a1.55,1.55,0,0,1-.55.06c-.28,0-.76.56-.9.49s.07-.42.07-.55.28,0,.55-.07.35-.35.55-.35a.44.44,0,0,0,.35-.21L12,43.32a.22.22,0,0,0,.14-.07v.13h.14c.2.07.27.21.27.28S12.38,43.94,12,44Zm.07.34-.21.21v-.28ZM10,43.66a.57.57,0,0,0,.2.28c.07.13.21.07.28.07l-.21.06s-.12.19-.25.21c0,0,0-.09,0-.27A.37.37,0,0,1,10,43.66Zm.34-.48.07.07.07.13.21.07-.14.14ZM10.66,45s.07.42.07.49-.42-.7-.42-.7Zm-.14-4.42h-.21a5.68,5.68,0,0,1,.35-.48l.21.28Zm.35.56-.14.27a4.6,4.6,0,0,1-.21.55c0-.06-.28-.89-.21-.89Zm-.56-2.42.07-.14.07.28Zm.14-6.83v-.07l.07-.14.14-.14s.07.35.07.42S10.45,31.86,10.45,31.86Zm.35,3c0,.07-.28-.06-.28-.06v-.07l.07-.14.14-.14S10.8,34.76,10.8,34.82Zm-.07,1.25-.14.2-.14-.06Zm-.07,1.38-.07.07-.07-.07Zm0,.27-.21.21v-.28Zm-.07.56.07-.07.21.14Zm.9-2.35.07-.07h.07l-.07.21-.14-.14Zm-.07-2.62.14-.07v-.07l.07.14Zm-.26,4.48s0-.09.05-.27a.37.37,0,0,1-.07-.35.55.55,0,0,0,.21.28c.07.14.21.07.28.07l-.21.07S11.29,37.77,11.16,37.79Zm.19,1-.14-.14.07-.07Zm.07-4.07L11,34.34h.21l.07-.14.14.21Zm-.35.34v.14l-.13-.07C11,35.1,11,35.1,11.07,35Zm.07-1.72a.15.15,0,0,0,.14-.14v.41c-.07,0-.14,0-.21-.14a.5.5,0,0,1-.27-.13A.59.59,0,0,0,11.14,33.31Zm-.27-1.25.34.21s.07.41.07.48S10.87,32.06,10.87,32.06Zm.07,7.11.48-.27H12l-.55.41a4.93,4.93,0,0,0-.14.48l-.41-.2Zm1.24-7,.07.21-.14.07Zm-.07-1.59v-.2l.07.13Zm1.38,9a.35.35,0,0,0,.21.07l-.14.07v-.07A.07.07,0,0,1,13.49,39.59Zm.14-.28v-.55L14,39C14.11,39,13.63,39.38,13.63,39.31ZM14,38.07l-.14-.14h.07l.07-.07H14Zm-.07-.9L13.7,37h.2L14,37Zm.07-.9-.14-.13h.07l.07-.07H14Zm-.34-1.72-.07-.07-.07-.14v-.21s.34.21.34.28S13.63,34.55,13.63,34.55Zm-.07.41v-.07l.07.14h-.21ZM13,40.76s-.35.35-.35.42a.68.68,0,0,1-.14-.56c.07-.27.83-.34.9-.14S13,40.76,13,40.76Zm.2,1.38a1.48,1.48,0,0,0-.34-.34s.27-.76.34-.62-.07.27.21.48S13.21,42,13.21,42.14Zm.07.62c0,.07-.27-.07-.27-.07v-.07l.07-.13.13-.14S13.28,42.69,13.28,42.76Zm-1-1.1a.35.35,0,0,1-.21.07l.07-.49.41.21h-.34S12.38,41.59,12.32,41.66ZM12.11,37l-.14.14V36.9L12,37V37Zm.07.62.07-.06h.07l-.07.2-.14-.14Zm-.07,2c.07,0,.07.13.07.13v.07L12,39.79S12.11,39.52,12.11,39.66Zm.14.48.2.28-.34.2H11.9A4.37,4.37,0,0,1,12.25,40.14Zm.55-1.24s.48.83.41.89-.62.28-.62.14a2.91,2.91,0,0,1,.28-.48Zm.07-4.49.07-.07H13l-.07.21-.14-.14Zm-.07-.55.14-.07.14-.28-.07.42Zm-.14,5.73-.07-.14-.14.21.21-.56Zm0,3,.07.13.21.07-.14.14-.21-.41Zm.69-5.94-.21.21s0-.42.07-.42.14.14.14.14ZM13,35.93c.13,0,.13-.14.13-.14l.07-.14.07.14A.21.21,0,0,1,13,35.93Zm.07-2.83-.28.21.28-.76Zm-.35-.76a.1.1,0,0,0,0-.14l-.07-.14h.14S12.94,32.27,12.73,32.34Zm.14,4-.14.07v-.07a.07.07,0,0,1-.07-.07A.35.35,0,0,0,12.87,36.34ZM12.94,38l-.42.48s-.27.28-.34.28.34-.76.34-.76Zm-.28-1.1h-.14v-.14l-.14-.07h.28ZM12.18,30c.07-.14.07,0,.14.07h.06l-.06.14Zm0,3.45.2.07-.13.14L12,33.24l.07.07Zm-.42,1.18-.07-.07v-.14l.07-.21s.21.28.28.28S11.76,34.62,11.76,34.62Zm0,3.38-.07.21v-.14Zm-.34,2.14h-.21l.14-.07V40Zm-.48.76c0-.14.06-.69.27-.69s.42.21.28.34.76.35.07.76S10.94,41,10.94,40.9Zm.69,2,.06-.14.14-.14s.07.35.07.42-.27-.07-.27-.07Zm-.07-.48L11.35,42l.07.07.07.14.2.07Zm-.62-.9.34.21c.14.07-.34.41-.34.34Zm.34,1.59c-.14.07-.14,0-.14-.14l.07-.07ZM10.87,43l-.14-.21c.07-.14.07,0,.14.07h.07Zm.13.41s.07.35.07.42-.27-.07-.27-.07v-.07l.07-.14ZM12.11,43v-.21l.07.14Zm-.28-.83-.07-.62.21-.07.21.55v.14h.14l-.07.14.48,1.17Zm1.87.35h.07l-.07.13-.14-.2C13.63,42.28,13.63,42.42,13.7,42.49Zm-.07-1a.57.57,0,0,0,.2.28.13.13,0,0,0,.21,0l-.27.27c0-.07-.07-.07-.07-.2A.94.94,0,0,1,13.63,41.52Zm.27,2,.07-.14v.07l.14.07Zm-.07-.62v-.07l.07-.14.14-.13s.07.34.07.41S13.83,42.9,13.83,42.9Zm.63-10.77.06.07h-.2Zm-.14-.48h.14v.21Zm.07,1v-.06l.2.13Zm.07-2.27-.07-.21.2.21Zm-.21,4.41V35L14.18,35Zm-.07,5.46-.07-.14L14,40.07l.07-.14.14-.2Zm-.41-12.22.06.07v.07h.07l-.13.14Zm.2,2.62s.28.28.14.35-.41-.14-.41-.14ZM13.7,34l-.28-.14c0-.14,0-.07.14,0l.07-.07Zm-.07-4.63v.07l-.07.14-.14.07s-.07-.35-.07-.42S13.63,29.37,13.63,29.37Zm-.49-.69v-.07l.14.07a.26.26,0,0,1-.2.14C13.14,28.82,13.14,28.68,13.14,28.68Zm.21,1.24c-.07.14-.07,0-.14-.07h-.07l.07-.13Zm-.55-.2.76,2-.9-1.31-.07-.62Zm-.14,2.07-.21-.07.07-.14ZM12.25,28l.2.35a3.94,3.94,0,0,1-.27.41C12.11,28.82,12.25,28,12.25,28ZM12,29.3a.13.13,0,0,0,.21,0l-.28.28c0-.07-.07-.07-.07-.21a.9.9,0,0,1-.07-.34A.54.54,0,0,0,12,29.3Zm-.55,4.63.14-.14.13.14Zm.2-2.69v.06s-.27.14-.27.07.07-.41.07-.41l.14.14Zm-.34-1,.21.07-.14.14-.21-.42.07.07Zm-.28-2.07s.07.48,0,.48a4.15,4.15,0,0,1-.34-.83Zm-.27.69.41.34h-.34a2.74,2.74,0,0,1-.28.35C10.66,29.3,10.8,28.89,10.8,28.89ZM10.38,30l.56.07-.14.28a4.6,4.6,0,0,1-.21.55C10.59,30.82,10.31,30,10.38,30Zm0,5.46v-.07l.07.13h-.21Zm.21,6.69H11l-.41.48s-.28.28-.35.28A4.29,4.29,0,0,1,10.59,42.14ZM9.9,43l.34.21-.34.27Zm-.55,1.45v.14l-.14-.21Zm0,.76h.2l.07-.14.14.21v.27Zm.27.69.07-.21S9.9,46,10,46s-.28.14-.28.14l-.07-.07Zm.07.76v-.14l.07-.21s.21.28.28.28-.28.14-.28.14Zm1.18.62-.14-.07.27-.14Zm.27-.21.07-.21V47l.21.14Zm.69.35a4.15,4.15,0,0,1-.34-.83l.34.34S11.9,47.46,11.83,47.46Zm.07-1.66s-.62.9-.83.9-.76.9-1.1.69.34-.83.34-.9S9.76,45,10,45s.41.62.41.62.76.14.62-.07.21-1.24.28-1.31-.07.83-.07,1,.28-.49.28-.49v.83l.34-.69s.83-.41,1-.34.14.48.14.48l.76-.76c-.07.14-.14.28,0,.42s.13.27.07.34-1,.69-1,.69a.89.89,0,0,1-.62.28A.31.31,0,0,1,11.9,45.8Zm1.93-.07-.06.21-.07-.21Zm-1,1.59c0,.48-.69.21-.69.21s.27-.63.21-.69.27-.83.27-.83h.69l.55.89S12.8,46.84,12.8,47.32ZM14,46.49,14,46.35l-.14-.07.07-.13.28.27Zm0-.55c-.07.07.07-.76.07-.76l.21.34A4.29,4.29,0,0,1,14,45.94Zm.28-.76c0-.07.07-.42.07-.42l.13.14.07.14v.07S14.32,45.25,14.32,45.18Zm.2.76.14.21c-.07.13-.07,0-.14-.07h-.06Zm.21,1.24L14.66,47l-.14.21.21-.55Zm-.21-3.11V44l.14-.07.21-.07s-.14.34-.07.34S14.52,44.07,14.52,44.07Zm.56,2-.14.2-.07-.07ZM15,47l-.21-.41.07.07.07.14.21.06Zm.83-14.22c0,.07-.83-.14-.83-.14l.41-.13S15.91,32.75,15.84,32.82Zm-.14-.62H16l.14-.14.07.21Zm.48-1.1a1.3,1.3,0,0,1-.34-.07.9.9,0,0,0,.34-.07l.14-.14v.07a.7.7,0,0,0,.07.28A.26.26,0,0,1,16.18,31.1Zm0-1.31.42.06a2.14,2.14,0,0,0,.2.42C16.8,30.41,16.18,29.79,16.18,29.79Zm.35,2.89a3.43,3.43,0,0,1,.27-.48l-.07-.55s.49.83.42.9S16.53,32.82,16.53,32.68Zm.41.35.14-.07h.14Zm.14-1.1v-.28l.14.21ZM17.29,30s-.35-.14-.35-.2.21-.14.21-.14l.07.07.07.13Zm.13.55v.07l-.07-.13h.21C17.63,30.61,17.56,30.54,17.42,30.54ZM17.63,32c-.07-.13,0-.06.14-.06v-.07l.14.13Zm.42-1.38c-.14,0-.49-.55-.49-.55l.14-.41.41.2-.27.21S18.25,30.61,18.05,30.61Zm.06.69.14.07-.07.07Zm.56,1.59-.07-.14.07.07.13-.14Zm0-.41c-.07.07-.42-.42-.42-.42l.21-.34.21.27.2.49S18.67,32.41,18.67,32.48Zm0-2.42v-.14l.13-.07.07-.13s.07.34,0,.41S18.67,30.06,18.67,30.06Zm.48,3.25-.07-.14h.21Zm.21-.14V33l.13.07Zm0-1.8.07-.07.13.14Zm.34,1c-.21,0,0-.07.07-.14l-.07-.07.14.07Zm.07-1.52.35-.14s.13.35,0,.42S19.77,30.89,19.77,30.89Zm.48.62v.21l-.13-.21Zm-.06,1.66.13-.07.07.07ZM20.74,30l.07.35.07.48s-.21-.14-.21-.07-.28-.48-.28-.48Zm-.07,2.76-.14-.13h.21Zm.83.42-.14.07-.28-.14s.35-.21.42-.14S21.5,33.17,21.5,33.17Zm.34-.49c-.14-.27-.34-.62-.34-.62h.62l-.28.21Zm.69.56-.41-.35h.2l.07-.14.14.21Zm-.07-.9.14-.14.14.14Zm.42-1.45.07.21-.14.07Zm.14.83.13.14-.07.07L23,31.86l-.14.07Zm.06,1.45L23,33.1V33l.06-.21s.21.28.28.28S23.08,33.17,23.08,33.17Zm.49-.42-.06-.21c.19-.12.13.14.13.14l.07.07Zm.2-1.86s-.27-.28-.27-.35.21,0,.21,0l.06.07Zm0-.48-.06-.14h.06c.07-.07.07-.21.14-.07Zm.35,1.31.14.21H24Zm.21,1.45L24.26,33l.27.07Zm.13-.76c-.2-.07.07-.07.14-.14l-.07-.07.14.07Zm-.06-.62a5.34,5.34,0,0,1,.34-1c.07,0,.62.28.55.35a2,2,0,0,1-.55.13Zm.69,0L25,31.65H25l.07-.07h.07ZM25.22,33l.14-.07.07.07Zm.56-1-.21-.07.14-.07.14-.28Zm.41.41.14-.07V32.2l.07.14Zm.14-.69-.14-.14h.07l.07-.07h.07Zm-.14-1-.07.42-.34-.76.34.2.14-.34.21-.07Zm.55-.55.07-.07h.07l-.07.21-.14-.14Zm.14,2.49-.14-.14.21-.07.07-.14.07-.07Zm.55-.35v-.34s-.62-.07-.48-.21.69.07.69.07l.21.34Zm.42-1.66-.14-.13h.07l.07-.07h.07ZM28,30v-.2l.06.13Zm.2,2.63-.07-.07.07-.14Zm.28-1.25c-.07,0-.21-.41-.21-.41l.69.14-.07.34-.34-.2S28.54,31.37,28.47,31.37Zm.55.42-.21-.07c-.07-.14.07,0,.14,0l.07-.07Zm-.21-2.14.07-.14v.07l.14.07ZM29.09,31c.28.07.21.27.21.27l.07.07h-.21A.77.77,0,0,1,29.09,31Zm.21.83.14-.28.2.35a2.79,2.79,0,0,1,.07.34Zm.69-.21a4.2,4.2,0,0,1-.35-.83l.35.35S30.06,31.65,30,31.65Zm.48-1.8v.56l-.28.2Zm.07,2.35L30.47,32l.14.07Zm.28-1.59-.14-.07c.07,0,.07,0,.14-.06Zm-.21-.82-.07-.07-.07-.14v-.21s.35.21.35.28S30.61,29.79,30.61,29.79Zm.62-.56-.07-.07L31.09,29v-.21s.35.21.35.28S31.23,29.23,31.23,29.23Zm.41,2.56-.2-.07.13-.07.14-.28Zm.21-1.94-.07-.06.07-.14Zm.07.49.07-.07.07.21Zm.48.9s-.27.13-.27.06.07-.41.07-.41l.13.14.07.14Zm.14-1.59a.24.24,0,0,0,.07.14l.07.06h-.21S32.54,29.58,32.54,29.65Zm.07.62.07-.07.07.21Zm.21-.83c0-.07-.07-.07-.07-.21a.87.87,0,0,1-.07-.34.5.5,0,0,0,.21.27.12.12,0,0,0,.2,0Zm.41.48-.07-.07.07-.13Zm.14-19.74L33.23,10c.07-.13.07,0,.14.07h.07ZM33.3,6.8l.28-.14-.14.21Zm.21,22.5c-.07.07.07-.76.07-.76l.2.35A3.94,3.94,0,0,1,33.51,29.3Zm.07-2.41.13-.14.07.21Zm.27-17.26.07.14.21.07L34,10l-.21-.41Zm.07,20.71c-.14-.07-.07-.49-.07-.49l.28.14S34.06,30.41,33.92,30.34Zm.14-.69H34l.07-.14.14.21C34.13,29.85,34.13,29.72,34.06,29.65Zm.41-.49-.2.14-.14-.2a1,1,0,0,0,.14-.28c.07-.07.2.14.2.14Zm-.06-2.69s-.07-.34-.07-.41.27.14.27.14v.06l-.07.14Zm.27.69.07.14.21.07-.14.14-.21-.42ZM35,29.58l-.28.21L35,29Zm-.07-1V28.4l.07.07H35Zm.14-.48c.07-.14.07,0,.13.07h.07l-.07.14Zm.62,1.24L35.44,29l.07.07.07.13.21.07Zm-.42-.76h.49l.07.07Zm.69-1.1-.07-.21.21.21Zm.21-.62.07.07.07.13.21.07-.14.14Zm.42,1-.07-.2.2.2Zm.06-.89s.07-.28.07-.21a.24.24,0,0,0,.07.14l.07.07Zm.07-2.21a1,1,0,0,0,.14-.28c.07-.07.21.14.21.14v.21l-.21.13Zm.28,1.1v-.07l.07-.14.14-.13s.07.34.07.41S37,25.85,37,25.85Zm.55,1.93.07-.13v.06l.14.07Zm.21-2.62L37,24.06l-.07-.63.21-.06.76,2Zm.14.55.07.07.06.14.21.07-.14.14Zm.41.9-.07-.14.21.21Zm.07-1.1s.07-.28.07-.21a.24.24,0,0,0,.07.14l.07.07Zm.35-2.83v.2h-.07Zm0,1.31.13-.07.07.07Zm.2-5.46.07.07.14-.07-.14.14Z"/><polygon points="31.57 5.63 31.51 5.9 31.57 5.9 31.85 5.76 31.71 5.63 31.57 5.63"/><path d="M13,43.25l.2.07v-.14l-.07.07C13.08,43.25,12.94,43.11,13,43.25Z"/><polygon points="13.14 46.63 13.14 46.42 13.07 46.42 13.14 46.63"/><path d="M13.63,44.07c.14.07.2-.34.2-.34l-.27-.14S13.49,44,13.63,44.07Z"/><polygon points="12.45 46.77 12.66 47.18 12.66 47.11 12.59 46.91 12.66 46.77 12.45 46.77"/><polygon points="36.34 7.97 36.13 7.76 36.2 7.97 36.34 7.97"/><path d="M11.28,41s.28-.07.21-.14-.35-.28-.35-.28v.21l.07.14Z"/><polygon points="10.73 44.14 10.66 44.21 10.87 44.28 10.87 44.08 10.8 44.14 10.73 44.14"/><polygon points="11.97 43.73 11.97 43.87 12.11 43.87 12.11 43.66 11.83 43.66 11.97 43.73"/><path d="M11.14,46s-.27.2-.27.27.48,0,.55-.07-.35-.75-.35-.75Z"/><polygon points="10.52 46.84 10.66 46.7 10.52 46.28 10.52 46.84"/><path d="M13.56,44.83l-.07-.13-.07.13a.14.14,0,0,1-.14.14A.22.22,0,0,0,13.56,44.83Z"/><polygon points="36.68 9.9 36.68 9.97 36.75 9.9 36.68 9.9"/><path d="M12.25,45.87c-.07,0,.07-.35.07-.35l-.21.07-.14.07v.07S12.25,46,12.25,45.87Z"/><polygon points="12.52 44.77 12.45 44.83 12.38 44.83 12.32 44.9 12.52 44.97 12.52 44.77"/><polygon points="31.3 6.11 31.23 6.18 31.3 6.32 31.51 6.38 31.57 6.25 31.44 6.11 31.3 6.11"/><polygon points="12.8 45.52 12.94 45.52 12.94 45.32 12.66 45.32 12.8 45.39 12.8 45.52"/></svg>