<svg width="31" height="43" viewBox="0 0 31 43" fill="none" xmlns="http://www.w3.org/2000/svg">
<path d="M13.4373 0H1.37394C0.24931 0 0 0.427382 0 1.28393V6.96277H9.07526H12.875C20.1887 6.96277 22.6254 10.5724 22.6254 15.2825C22.6254 19.9926 20.125 23.7838 12.875 23.7838H3.72146C3.62319 23.8675 3.49944 23.9405 3.49944 23.9067V23.7838H0V41.8389C0 42.5121 0.624186 43 1.43763 43H6.62401C7.25002 43 7.75045 42.6332 7.75045 42.0224V31.4375C7.75045 30.7039 7.99977 30.5204 8.68764 30.5204H11.9378C25.1876 30.5204 31 24.2878 31 15.2914C31 6.29498 25.1294 0 13.4373 0ZM27.9955 14.6788V14.8569L27.9318 14.6788H27.9955ZM27.6207 13.7617L27.7444 13.6388L27.8081 13.8169L27.87 13.995L27.8081 13.9344V13.8116L27.6207 13.7617ZM27.4387 17.309C27.535 17.1525 27.6184 16.9888 27.688 16.8193L27.7499 17.1256C27.6344 17.1652 27.5285 17.2276 27.4387 17.309ZM27.7499 17.8592L27.6261 17.9821V17.804L27.688 17.8646L27.7499 17.8592ZM26.1885 18.8992C26.1248 18.8992 26.0065 18.5324 26.0065 18.5324L26.6307 18.6552L26.5688 18.9597L26.2558 18.7817C26.2558 18.7817 26.2504 18.8992 26.1885 18.8992ZM26.2504 19.3889V19.567L26.1885 19.4441L26.2504 19.3889ZM24.376 9.17447L24.194 9.41844L23.9429 9.48076V9.17447H24.376ZM24.3123 8.4408V8.00451L24.6253 8.18259L24.3123 8.4408ZM24.4943 9.78527L24.4324 9.8476V9.96335L24.3068 9.78527H24.4943ZM24.558 10.2144L24.9328 10.3925H24.6198C24.6198 10.3925 24.7454 10.5154 24.6817 10.5706C24.6292 10.6092 24.5654 10.6304 24.4997 10.6311L24.558 10.2144ZM26.0575 8.99106L26.2394 9.0516L26.1776 9.60186L25.3641 10.7647L26.0575 8.99106ZM25.4933 9.8476L25.5552 9.66952V9.8476H25.4933ZM25.6262 7.64836H25.3114L25.2495 7.58782L25.3732 7.34207C25.4387 7.40084 25.6262 7.64836 25.6262 7.64836ZM25.4442 7.03756L25.5679 6.91469V7.09276L25.4442 7.03756ZM25.6935 8.87175L25.8755 8.8112C25.8755 8.8112 25.7499 9.11749 25.8136 9.11749C25.8136 9.23858 25.5625 8.99462 25.5625 8.99462V8.93229L25.6935 8.87175ZM26.0065 8.56545H25.8245C25.7807 8.46978 25.7589 8.3658 25.7608 8.26094C26.012 8.32149 25.9428 8.50491 25.9428 8.50491L26.0065 8.56545ZM26.507 12.7859H26.6889L26.6252 12.9087V12.8482L26.507 12.7859ZM25.7554 16.3955C25.7471 16.2309 25.7265 16.0673 25.6935 15.9057L26.3177 15.9663L26.0065 16.1444C25.9047 16.209 25.8174 16.2932 25.7499 16.3919L25.7554 16.3955ZM25.8191 17.3731V17.5512L25.6371 17.4906L25.699 17.4301H25.7608L25.8191 17.3731ZM26.0011 10.5243H25.8191L25.881 10.4014V10.462L26.0011 10.5243ZM26.0011 11.0122L26.1248 10.7077L26.3068 10.6454L26.0575 11.1351L25.9956 11.5019L25.6826 11.3791V10.8288L26.0011 11.0122ZM25.9374 13.5249C25.9374 13.4643 25.8755 13.4643 25.8755 13.3468C25.8352 13.2501 25.8142 13.1467 25.8136 13.0423C25.8452 13.141 25.9092 13.2267 25.9956 13.2862C26.0067 13.2993 26.0206 13.3098 26.0363 13.3171C26.0521 13.3243 26.0692 13.328 26.0866 13.328C26.104 13.328 26.1211 13.3243 26.1368 13.3171C26.1526 13.3098 26.1665 13.2993 26.1776 13.2862L25.9374 13.5249ZM26.1193 14.6877V14.8106L25.9956 14.7483C26.0629 14.7393 26.0629 14.7393 26.1248 14.6788L26.1193 14.6877ZM25.8082 12.1198V11.6301L26.1193 11.8082C26.2504 11.8652 25.8136 12.1715 25.8136 12.1109L25.8082 12.1198ZM26.2449 13.954H26.3068L26.2449 14.0769L26.1193 13.8988C26.1885 13.7617 26.1885 13.881 26.2504 13.9451L26.2449 13.954ZM26.1193 12.7912C26.0575 12.8535 26.183 12.1198 26.183 12.1198L26.365 12.4244C26.2924 12.5483 26.2122 12.6679 26.1248 12.7823L26.1193 12.7912ZM25.8082 14.1375C25.8082 14.1375 25.87 14.4437 25.87 14.5043C25.87 14.5648 25.6207 14.4437 25.6207 14.4437V14.3814L25.6826 14.2603L25.8082 14.1375ZM26.3705 18.1744C26.4323 18.1121 26.4323 17.9964 26.496 18.1121L26.3705 18.2902L26.3068 18.1691L26.3705 18.1744ZM26.4323 17.0116L26.3705 16.9511L26.4323 16.8282V17.0116ZM26.3705 15.4214L26.4323 15.3003L26.5579 15.4784L26.3705 15.4214ZM26.3705 10.3444L26.1885 10.1664L26.1248 9.98828L26.1885 9.86719L26.3705 9.92774L26.496 10.0506L26.3705 10.3444ZM25.557 11.2633L25.4933 11.566L25.2513 11.9222C25.2513 11.9222 25.1876 11.7441 25.1257 11.7441C25.0639 11.7441 25.2513 11.2562 25.2513 11.2562L25.557 11.2633ZM24.9474 16.7587L24.8855 16.6964L25.0675 16.5753L24.9474 16.7587ZM25.2604 19.6329H25.1294L25.0675 19.4548L25.2604 19.6329ZM25.1348 20.4894L25.1967 20.6123L25.3787 20.6728L25.2549 20.7957L25.073 20.4289L25.1348 20.4894ZM25.3114 17.9768L25.2495 18.0979L25.1239 17.9198C25.1858 17.7987 25.1858 17.9198 25.2495 17.9821L25.3114 17.9768ZM25.2495 16.9368L25.3114 16.8763H25.3732L25.4369 16.8139V16.992L25.2495 16.9368ZM25.0675 13.4501C24.9924 13.5587 24.9084 13.6611 24.8164 13.7564C24.8801 13.5106 24.9984 13.1438 24.9984 13.1438L25.3732 13.4501H25.0675ZM25.3114 14.0057L25.3732 14.1285L25.5552 14.1891L25.4315 14.312L25.2495 13.9451L25.3114 14.0057ZM25.1294 12.2944C25.1294 12.2944 25.1913 12.7217 25.1294 12.7217C25.0675 12.7217 24.8164 11.9881 24.8164 11.9881L25.1294 12.2944ZM24.8164 10.8876L24.8801 10.7647V10.9428L24.8164 10.8876ZM24.9474 9.78527L24.7654 9.72473C24.7017 9.60186 24.8273 9.72473 24.891 9.72473L24.9529 9.66418L24.9474 9.78527ZM24.7654 21.4671V21.5899L24.5834 21.5294L24.7654 21.4671ZM24.7654 23.3636L24.8273 23.2407V23.303L24.9529 23.3636H24.7654ZM24.8273 23.7927V23.9708H24.7654L24.8273 23.7927ZM24.8273 22.9362L24.891 22.9967L24.9529 23.1196L25.1348 23.1801L25.0093 23.303L24.8273 22.9362ZM25.0784 22.0796C25.0033 22.1882 24.9193 22.2907 24.8273 22.3859C24.891 22.1402 25.0093 21.7733 25.0093 21.7733L25.3841 22.0796H25.0784ZM25.4533 22.507C25.4595 22.5536 25.4812 22.5968 25.5152 22.6299L25.577 22.6904H25.3951C25.3951 22.6904 25.4387 22.4465 25.4387 22.507H25.4533ZM25.4533 16.0856V15.9075L25.5152 16.0304L25.4533 16.0856ZM25.3896 15.7188C25.3896 15.6582 25.1403 14.9228 25.2076 14.9228C25.275 14.9228 25.7081 14.9851 25.7081 14.9851L25.5825 15.2291C25.5238 15.3963 25.4545 15.5599 25.3751 15.7188H25.3896ZM25.6407 19.9392L25.7026 19.8768H25.7645L25.7026 20.0549L25.577 19.932L25.6407 19.9392ZM25.8227 20.4289H25.8846L25.9465 20.3665V20.5446L25.7645 20.4841L25.8227 20.4289ZM25.8846 22.4465L25.9465 22.507H26.0102L25.8846 22.6299V22.4465ZM25.9465 16.4524C26.0102 16.3296 26.0102 16.4524 26.072 16.513H26.1339L26.072 16.6359L25.9465 16.4524ZM26.1976 20.1226H26.0156L26.0775 19.9997V20.062L26.1976 20.1226ZM26.4469 16.0856L26.5106 16.1461L26.5725 16.269L26.7544 16.3296L26.6289 16.4524L26.4469 16.0856ZM26.7508 19.5795L26.6889 19.4014L26.8709 19.5795H26.7508ZM26.8764 20.0068L26.7508 20.1849L26.6889 20.0638H26.7508C26.8127 19.9997 26.8127 19.8768 26.8764 19.9997V20.0068ZM26.7508 15.0528C26.6889 14.9299 26.8127 15.0528 26.8764 15.0528L26.9382 14.9922V15.1133L26.7508 15.0528ZM27.0001 16.5201L27.0638 16.643L27.2458 16.7035L27.1202 16.8264L26.9382 16.4596L27.0001 16.5201ZM27.0001 17.3767L26.9382 17.3161L26.8764 17.1932V17.0152C26.8764 17.0152 27.1876 17.1932 27.1876 17.2609C27.2512 17.309 27.0001 17.3695 27.0001 17.3695V17.3767ZM27.0638 17.8664L26.8818 18.0444L26.9437 17.9216L27.0638 17.8664ZM27.3131 20.68L27.1876 20.858L27.1257 20.7975L27.3131 20.68ZM26.5634 14.2585L26.5015 13.7083L26.6835 13.646L27.3695 15.4267L26.5634 14.2585ZM27.0001 13.7688L27.0638 13.646L27.1876 13.824C27.1257 13.9469 27.1257 13.824 27.0638 13.7635L27.0001 13.7688ZM27.5006 14.8088L27.5624 14.7465H27.6261L27.688 14.6859V14.864L27.5006 14.8088ZM27.6825 15.2985L27.557 15.4196L27.6207 15.2415L27.6825 15.2985ZM27.557 12.8517C27.4332 12.7894 27.4951 12.4226 27.4951 12.4226L27.7444 12.5455C27.7444 12.5455 27.688 12.9052 27.5624 12.8446L27.557 12.8517ZM27.4951 14.1962L27.3695 14.1357L27.3077 14.0128L27.4951 14.1962ZM27.3695 16.1551L27.4332 16.2779L27.6152 16.3385L27.4896 16.4613L27.3077 16.0945L27.3695 16.1551ZM27.6207 15.8505C27.625 15.8035 27.6471 15.7597 27.6825 15.7277C27.6823 15.7357 27.6837 15.7437 27.6867 15.7511C27.6898 15.7586 27.6943 15.7654 27.7001 15.771C27.7059 15.7767 27.7128 15.7812 27.7204 15.7841C27.7281 15.7871 27.7362 15.7885 27.7444 15.7882L27.8081 15.8505H27.6207ZM27.7444 10.0399H27.8081L27.7444 10.161L27.6207 9.98294C27.688 9.8476 27.688 9.96335 27.7499 10.031L27.7444 10.0399ZM27.6825 10.8965V11.0745L27.557 11.0122L27.6825 10.8965ZM27.4332 11.4467L27.7444 11.3844V11.5073L27.4387 11.7441L27.4332 11.4467ZM27.4332 13.4056L27.3695 13.5266L27.2458 13.589C27.2458 13.589 27.1821 13.2827 27.1821 13.2221C27.2458 13.1598 27.4332 13.3432 27.4332 13.3432V13.4056ZM27.1311 10.7647C27.1311 10.7647 26.9164 10.7113 26.8855 10.754C27.0147 10.3409 27.7444 10.5225 27.1311 10.7647ZM27.1311 10.275L27.2567 10.1521V10.3302L27.1311 10.275ZM27.0056 9.17447L27.0693 9.29735L27.2512 9.35789L27.1257 9.48076L26.9437 9.11393L27.0056 9.17447ZM26.9437 11.4984L26.6944 11.8047L26.5688 11.7423L26.6944 11.4984H26.9437ZM26.5688 10.7647L26.507 10.5866L26.6889 10.7647H26.5688ZM26.3177 9.41844L26.3814 9.29735L26.507 9.23502L26.3177 9.41844ZM26.4433 8.62422L26.2613 8.56189L26.3232 8.50135H26.3869L26.4487 8.4408L26.4433 8.62422ZM26.1303 8.13451L26.0065 7.95643L25.9428 8.01698L25.7608 7.65014L25.8245 7.71247L25.8864 7.83356L26.012 7.89589L25.8864 7.5896L26.3869 7.89589L26.1303 8.13451ZM25.2568 6.11691C25.2568 5.99404 25.3186 5.50433 25.5061 5.50433C25.6935 5.50433 25.881 5.6824 25.7554 5.81062C25.6298 5.93883 26.4433 6.11691 25.8191 6.48375C25.1949 6.85058 25.2513 6.238 25.2513 6.11691H25.2568ZM25.6316 7.70713V8.00451C25.6316 8.00451 25.5916 8.08287 25.608 8.11492C25.5115 8.08287 25.1931 8.00451 25.1931 8.00451L25.6316 7.70713ZM25.3805 8.13451L25.3186 8.25738L25.3805 8.43546V8.49601L25.1985 8.12917L25.3805 8.13451ZM25.1985 8.80764L25.5734 9.0516L25.1985 9.35789V8.80764ZM24.7618 8.80764L24.8873 9.11393L24.8237 9.292L24.6981 9.04626L24.6362 8.80229L24.3869 8.49601L25.1367 8.73997L24.7618 8.80764ZM24.7618 7.6448V7.15509L25.0748 7.33317C25.1876 7.40084 24.7509 7.70713 24.7509 7.64836L24.7618 7.6448ZM24.7618 5.6272L24.8237 5.75007L25.0056 5.81062L24.8819 5.93349L24.6999 5.56487L24.7618 5.6272ZM24.4488 6.30033C24.5107 6.30033 24.9492 6.36087 24.9492 6.36087L24.8237 6.60484C24.7732 6.77154 24.7125 6.93508 24.6417 7.09455C24.6253 7.034 24.376 6.30033 24.4379 6.30033H24.4488ZM24.4488 7.6448L24.5107 7.58426H24.5743L24.5107 7.76233L24.3869 7.63946L24.4488 7.6448ZM24.3232 5.13749H24.1995L24.1358 4.95942L24.3232 5.13749ZM24.1412 7.09633L24.2049 7.15687L24.0794 7.27975L24.1412 7.09633ZM24.0175 8.07575L23.9538 7.89767L24.0794 7.95821L24.0175 8.07575ZM23.7045 5.8124L23.6426 5.75185L23.7664 5.50611C23.8301 5.56665 24.0175 5.8124 24.0175 5.8124H23.7045ZM23.7664 8.31971L23.5844 8.38025L23.7099 8.13629C23.8355 8.13629 23.7718 8.13629 23.7099 8.25916L23.7664 8.31971ZM23.9483 24.0385L23.8246 24.2165L23.7609 24.156L23.9483 24.0385ZM23.5625 6.97167H23.6881L23.5625 7.09455L23.5007 6.85058C23.6262 6.78826 23.5625 6.78826 23.5625 6.97167ZM23.5625 6.42142L23.6262 6.30033L23.75 6.4784L23.5625 6.42142ZM23.9374 4.40382L23.6881 4.89353L23.6262 5.26036L23.3096 4.58724L23.6226 4.76531L23.7463 4.45902L23.9374 4.40382ZM23.4388 6.18458L23.2568 5.87829L23.3806 5.7572V5.93527L23.4388 6.18458ZM23.5625 3.90877L23.6262 3.84822L23.4443 4.21506L23.3187 4.09219L23.5007 4.03164L23.5625 3.90877ZM23.3096 3.85356L23.4352 3.79124L23.2532 3.96931L23.3096 3.85356ZM23.2477 4.28095V4.34327C23.2477 4.34327 22.9966 4.46436 22.9966 4.40382C22.9966 4.34327 23.0585 4.03698 23.0585 4.03698L23.184 4.15985L23.2477 4.28095ZM22.9456 3.85356C23.0075 3.79124 23.0075 3.67549 23.0694 3.79124L22.9456 3.96931L22.8819 3.84822L22.9456 3.85356ZM23.0075 5.32091V5.75007L22.9456 5.6272L22.8201 5.80528L23.0075 5.32091ZM23.0075 6.72771H22.8819L22.8201 6.54963L23.0075 6.72771ZM22.3833 3.4244H22.6945L22.6254 3.73069L22.376 4.09753C22.376 4.09753 22.3124 3.91945 22.2505 3.91945C22.1886 3.91945 22.376 3.4244 22.376 3.4244H22.3833ZM22.2578 4.58724C22.2578 4.58724 21.9448 4.89353 21.9448 4.95407C21.8884 4.88649 21.848 4.80751 21.8266 4.72283C21.8052 4.63814 21.8033 4.54987 21.821 4.46437C21.8829 4.2204 22.5708 4.15985 22.6326 4.34327C22.6945 4.52669 22.2505 4.58724 22.2505 4.58724H22.2578ZM22.5071 5.07695L22.3833 5.13749L22.3196 5.01462L22.1959 4.95407L22.2578 4.8312L22.5071 5.07695ZM22.3833 5.44378L22.5071 5.13749L22.6891 5.07695L22.4397 5.56487L22.3779 5.93349L22.0649 5.26036L22.3833 5.44378ZM22.2013 3.73069C22.3251 3.85356 21.7628 4.09753 21.7628 4.2204C21.7628 4.34327 21.5808 4.46436 21.5135 4.52669C21.3879 4.64778 21.8265 4.89353 21.6955 4.89353H21.5699C21.5699 5.01462 21.0694 4.8312 20.9457 4.95407C20.8201 5.01462 20.5071 5.44378 20.3834 5.44378C20.2014 5.44378 20.3834 5.38145 20.2014 5.19804C20.2434 5.14798 20.2654 5.0847 20.2633 5.01996C20.2633 4.89887 20.6382 4.71545 20.7 4.65312C20.7385 4.62446 20.7698 4.58759 20.7916 4.54532C20.8133 4.50305 20.825 4.45649 20.8256 4.40916C20.7599 4.34186 20.7162 4.25692 20.7 4.1652C20.7 4.04233 20.9512 4.22574 21.0749 4.10287C21.2081 4.02613 21.359 3.98385 21.5135 3.98C21.6263 3.97466 22.1249 3.67015 22.1886 3.73069H22.2013ZM19.2005 2.69073C19.2324 2.78978 19.2962 2.87602 19.3825 2.93647C19.4444 3.05756 19.5645 2.99702 19.6318 2.99702L19.4498 3.05756C19.4498 3.05756 19.337 3.22139 19.2187 3.23564C19.2497 3.22139 19.2078 3.15373 19.2624 2.99346C19.225 2.95319 19.1985 2.90434 19.1855 2.85144C19.1725 2.79853 19.1733 2.74326 19.1878 2.69073H19.2005ZM19.5754 3.60782L19.5135 3.11989C19.5135 3.11989 19.8884 3.73069 19.8247 3.79124C19.761 3.85178 19.3261 3.96931 19.3261 3.85356C19.3061 3.79124 19.5627 3.60782 19.5627 3.60782H19.5754ZM19.9503 2.8136L19.8247 2.93647L19.7628 2.69073C19.8884 2.63018 19.8247 2.63018 19.8247 2.8136H19.9503ZM20.3252 4.2204C20.2354 4.09985 20.1259 3.99457 20.0012 3.90877C20.0012 3.90877 20.2505 3.23564 20.3124 3.35851C20.3743 3.48139 20.2505 3.60248 20.4944 3.78589C20.6873 3.97466 20.3124 4.09753 20.3124 4.2204H20.3252ZM20.5071 4.28095L20.3834 4.58724L20.1323 4.8312C20.0704 4.89353 20.2578 4.28095 20.2578 4.28095H20.5071ZM19.8757 3.73069L19.9375 2.99702L20.2505 3.17509L19.8757 3.73069ZM19.6937 4.52669L19.8174 4.89353L19.6937 5.01462V4.52669ZM19.7556 4.2204V4.15985L19.8811 4.09753L20.0631 4.03698C20.0631 4.03698 19.9375 4.34327 20.0012 4.34327C20.0012 4.46437 19.7501 4.2204 19.7501 4.2204H19.7556ZM20.0067 4.77065V4.89353L20.1887 5.01462L19.9375 4.95407L20.0067 4.77065ZM21.5062 2.75305C21.5062 2.75305 21.9429 3.48673 21.8811 3.54727C21.8192 3.60782 21.3188 3.79124 21.3188 3.67015C21.3879 3.51975 21.4714 3.37606 21.5681 3.24098L21.5062 2.75305ZM21.0622 3.73069H20.9439V3.60782L20.8183 3.54727H21.0676L21.0622 3.73069ZM20.8802 2.56964L21.0058 2.99702C21.0058 2.99702 20.4434 3.4244 20.3816 3.36386L20.4434 2.56964H20.125L19.812 2.26335C20.3761 2.26335 20.6873 2.32389 20.8747 2.56964H20.8802ZM19.6937 2.07993L19.7556 2.258C19.63 2.31855 19.63 2.258 19.63 2.13513L19.6937 2.07993ZM18.8184 2.258C18.9439 2.13513 18.9439 1.89117 19.1314 1.89117C19.2551 1.89117 19.3134 2.13513 19.3807 2.19568C19.5627 2.258 19.6937 2.31855 19.6937 2.50197C19.6937 2.62484 19.1932 2.44142 19.0677 2.56429C18.9439 2.62484 18.6309 3.05222 18.5054 3.05222C18.3234 3.05222 18.3234 3.2303 18.1924 3.11455C18.1305 3.05222 18.3743 2.74771 18.3743 2.62484C18.3743 2.50197 18.7601 2.32389 18.8129 2.26335L18.8184 2.258ZM18.1924 3.96931H18.0104L18.136 3.90877V3.84822C18.0104 3.90877 17.8866 3.84822 17.7611 3.84822C17.5118 3.84822 17.0732 4.33793 16.9495 4.2756C16.7675 4.21506 17.0113 3.90877 17.0113 3.78589C17.0113 3.66302 17.2606 3.7859 17.5118 3.72535C17.6355 3.6648 17.823 3.41906 18.0104 3.41906C18.2615 3.41906 18.3234 3.17509 18.5108 3.24098C18.6983 3.30687 18.762 3.41906 18.762 3.48673C18.762 3.60782 18.58 3.73069 18.2615 3.79124C18.2291 3.82661 18.1843 3.84884 18.136 3.85356L18.1924 3.96931ZM18.0686 4.64244L17.8866 4.33793L18.0104 4.21506V4.39313L18.0686 4.64244ZM17.4426 3.6648V3.4244L17.6246 3.48673L17.4426 3.6648ZM18.0049 3.17509L18.0686 2.99702L18.1305 3.05756L18.0049 3.17509ZM17.5063 2.13513C17.6301 2.13513 18.1924 1.89117 18.3179 1.95706C18.4435 2.07993 17.8812 2.26335 17.8812 2.44676C17.8812 2.56964 18.0632 2.93647 18.0049 3.05756C17.8812 3.18044 17.6301 2.75305 17.4426 2.75305C17.2552 2.75305 17.1933 3.18044 17.0677 3.11989C16.944 2.99702 17.1314 2.75306 17.1314 2.56964C17.1314 2.44676 17.2552 2.44676 17.3807 2.32389C17.5063 2.20102 17.3134 2.14047 17.5009 2.14047L17.5063 2.13513ZM15.5045 2.13513C15.5045 2.13513 15.6283 2.31321 15.4409 2.3791C15.4495 2.37142 15.4563 2.36207 15.461 2.35164C15.4658 2.34122 15.4682 2.32995 15.4682 2.31855C15.4682 2.30715 15.4658 2.29588 15.461 2.28545C15.4563 2.27503 15.4495 2.26568 15.4409 2.258L15.379 2.13513H15.5045ZM15.5664 3.17509L15.692 3.29797L15.6283 3.35851L15.5664 3.29797L15.4409 3.35851L15.5664 3.17509ZM14.7566 2.38444C14.7566 2.38444 14.8203 2.75305 14.8203 2.8136C14.8203 2.93647 14.4454 2.20102 14.4454 2.20102L14.7566 2.38444ZM14.1324 2.50731C14.0431 2.35489 13.9382 2.2117 13.8194 2.07993H14.1943C14.3126 2.0176 14.187 2.50731 14.1252 2.50731H14.1324ZM13.9505 1.46735L13.8249 1.83418C13.7786 1.86389 13.7353 1.89788 13.6957 1.93569C13.6811 1.82884 13.6375 1.40146 13.6375 1.40146L13.9505 1.46735ZM10.0616 2.8136C10.0797 2.85183 10.089 2.89345 10.089 2.93558C10.089 2.97771 10.0797 3.01934 10.0616 3.05756C10.055 3.01167 10.0333 2.96913 9.99971 2.93647L9.93783 2.87415L10.0616 2.8136ZM9.99971 3.30331H9.93783L9.81227 3.36386L9.87414 3.24098L9.99971 3.30331ZM9.6867 1.94993H9.56296L9.49927 1.77186L9.6867 1.94993ZM9.62483 2.56251C9.67313 2.6903 9.73408 2.81317 9.80681 2.92935C9.80681 3.05044 9.2445 2.50019 9.2445 2.50019L9.62483 2.56251ZM9.00065 4.02986V3.96753L9.06252 3.84644C9.18808 3.48673 9.37552 4.46436 9.00065 4.03698V4.02986ZM8.93331 2.93647V2.8136H8.99701L9.05888 2.87415L8.93331 2.93647ZM8.99701 1.71309H9.05888L8.99701 1.83418L8.87144 1.65611C8.93331 1.52967 8.93331 1.65076 9.00065 1.71309H8.99701ZM8.87144 3.60782C8.80957 3.54727 8.43287 3.30331 8.43287 3.30331L8.75134 3.18044C8.87508 3.05756 8.93331 3.60782 8.87508 3.60782H8.87144ZM8.49657 3.78589C8.47901 3.81952 8.45319 3.84836 8.42142 3.86981C8.38966 3.89125 8.35295 3.90464 8.31459 3.90877C8.37646 3.90877 8.37646 3.78589 8.37646 3.78589V3.73069L8.49657 3.78589ZM8.43287 1.70775C8.43287 1.76829 8.371 1.95171 8.371 1.82884L8.24544 1.70775H8.43287ZM5.68682 2.56964L5.75051 2.63018V2.87415C5.75051 2.87415 5.49938 2.63018 5.49938 2.56964C5.43751 2.50731 5.68682 2.56964 5.68682 2.56964ZM5.50484 3.48673L5.56854 3.54727L5.63041 3.48673V3.6648L5.44843 3.54193L5.50484 3.48673ZM5.32286 3.91411L5.07355 3.79124C5.07355 3.67015 5.07355 3.73069 5.1973 3.79124L5.26099 3.73069L5.32286 3.91411ZM5.1973 3.48673L5.13543 3.4244L5.00986 3.48673L5.13543 3.30865L5.26099 3.42974L5.1973 3.48673ZM5.13543 1.70597V1.59378L5.1973 1.77186H5.07355L5.13543 1.70597ZM5.07355 2.25622C5.07355 2.25622 5.1973 2.4343 5.00986 2.50019C5.01852 2.49235 5.02542 2.48285 5.03015 2.47228C5.03487 2.4617 5.03731 2.45029 5.03731 2.43875C5.03731 2.42721 5.03487 2.4158 5.03015 2.40523C5.02542 2.39465 5.01852 2.38515 5.00986 2.37731L4.92979 2.26335L5.07355 2.25622ZM4.92979 4.34327L4.99166 4.1652C4.99166 4.1652 5.17364 4.40916 5.24279 4.40916C5.30467 4.46971 4.99166 4.53203 4.99166 4.53203L4.92979 4.46437V4.34327ZM4.61679 4.28095L4.68048 4.15985L4.80423 4.33793V4.58189L4.42935 4.2756L4.61679 4.28095ZM4.43481 3.97466L4.56038 3.85356L4.68594 3.97466H4.43481ZM4.68594 3.24098V3.60782C4.62225 3.60782 4.56038 3.60782 4.50396 3.48673C4.40875 3.47381 4.32052 3.43064 4.25283 3.36386C4.3544 3.39711 4.46427 3.39711 4.56583 3.36386C4.59779 3.36095 4.62762 3.34697 4.64998 3.32445C4.67233 3.30192 4.68391 3.27232 4.68594 3.24098ZM4.50396 1.65076C4.53608 1.64868 4.56633 1.63525 4.58909 1.61298C4.61185 1.5907 4.62557 1.5611 4.62771 1.52967V1.89651C4.56584 1.89651 4.50396 1.89651 4.44573 1.77364C4.35117 1.76034 4.26363 1.7172 4.19642 1.65076C4.29505 1.68294 4.40169 1.68294 4.50032 1.65076H4.50396ZM4.32198 2.50731C4.32198 2.50731 4.38386 2.87415 4.38386 2.93647C4.38386 3.05756 4.00898 2.32389 4.00898 2.32389L4.32198 2.50731ZM4.00898 3.4244C4.07085 3.36385 4.00898 3.60248 4.00898 3.60248L3.88342 3.6648L3.62501 3.55262C3.62501 3.55262 3.93801 3.36385 3.99988 3.4244H4.00898ZM3.75967 2.20102C3.88342 2.14047 3.75967 2.63018 3.69598 2.63018C3.60661 2.47722 3.50175 2.33345 3.38298 2.20102H3.75967ZM3.49944 3.73069L3.43757 3.67015L3.56132 3.73069L3.37934 3.85356C3.18644 3.79124 3.43757 3.79124 3.49944 3.73069ZM2.87526 3.11989H3.25013C3.25013 3.11989 3.62501 3.4244 3.49944 3.48673C3.49944 3.55262 2.87526 3.11989 2.87526 3.11989ZM3.312 2.50731L3.43757 2.68539L3.18644 2.74771L3.312 2.62484V2.50731ZM3.13003 1.34625L3.1919 1.65076L3.25559 2.07993C3.25559 2.07993 3.07361 1.95705 3.07361 2.0176C3.00992 2.07993 2.82248 1.59022 2.82248 1.59022L3.13003 1.34625ZM2.31294 4.46437L2.37482 4.64244L2.24925 4.52135L2.31294 4.46437ZM1.74881 3.55262L1.8125 3.49207L1.87438 3.55262L1.93625 3.49207V3.67015L1.74881 3.55262ZM1.8125 6.24334L1.63053 5.87651L1.6924 5.93883L1.75427 6.05993L1.93625 6.12225L1.8125 6.24334ZM1.87438 4.53203C1.87438 4.53203 1.83434 4.37533 1.81796 4.34327C1.99994 4.23287 1.93625 4.46971 1.93625 4.46971L1.99994 4.53203H1.87438ZM2.05635 2.87949C2.05635 2.87949 1.80704 2.63552 1.80704 2.57498C1.74335 2.51265 1.98902 2.57498 1.98902 2.57498L2.0509 2.63552L2.05635 2.87949ZM1.9963 2.08171C1.96173 1.99623 1.81432 1.65611 1.81432 1.65611L1.9963 1.47803L2.06181 1.77186C2.06181 1.77186 2.06181 2.01226 2.00176 2.07637L1.9963 2.08171ZM2.12005 5.63254L2.18192 5.50967L2.30748 5.3868C2.30748 5.3868 2.3821 5.68953 2.3821 5.75007C2.3821 5.81062 2.12551 5.68953 2.12551 5.68953L2.12005 5.63254ZM2.43123 6.73305L2.30748 6.55498H2.43123V6.73305ZM2.49492 2.26869L2.43123 2.14582L2.8698 2.32389L2.74423 2.44676L2.61867 2.38444L2.49492 2.26869ZM2.81156 3.90877L2.93713 4.08684H2.68782L2.81156 3.90877ZM2.81156 4.76531L2.93713 4.70477L2.999 4.76531H2.81156ZM3.18644 5.51145L3.12457 5.38858L3.37388 5.45091L3.43757 5.32803L3.56132 5.38858L3.37934 5.45091L3.18644 5.51145ZM3.62501 6.8577L3.49944 6.67963C3.56131 6.55676 3.56132 6.67963 3.62501 6.74018H3.68688L3.62501 6.8577ZM3.49944 4.83832L3.56132 4.71723L3.68688 4.77778L3.49944 4.83832ZM3.99988 4.47149C3.87432 4.2204 3.68688 3.90877 3.68688 3.90877H4.24919L3.99988 4.08684V4.47149ZM4.12545 6.78648V6.30033L4.43663 6.4784C4.56584 6.54429 4.12545 6.8488 4.12545 6.78648ZM4.62407 4.89175V4.76887L4.74963 4.94695L4.50032 5.0075L4.62407 4.89175ZM4.74963 6.85058L4.68776 6.78826L4.86974 6.66716L4.74963 6.85058ZM4.99894 5.06982L5.12451 5.2479H4.8752L4.99894 5.06982ZM5.25007 5.8676L5.18638 5.80706L5.31195 5.8676L5.12997 5.99048C4.92979 5.93349 5.18638 5.93349 5.25007 5.8676ZM5.37564 6.35731L5.31195 6.17924L5.49392 6.35731H5.37564ZM5.55762 4.52313C5.55762 4.52313 5.51758 4.36642 5.5012 4.33437C5.68318 4.22396 5.61949 4.4608 5.61949 4.4608L5.68136 4.52313H5.55762ZM5.68136 3.11633V3.054L5.86334 3.11633C5.87426 3.24098 5.81239 3.18044 5.68682 3.11989L5.68136 3.11633ZM5.93249 3.78768L6.05624 3.6096L6.1818 3.78768H5.93249ZM6.36924 4.21684C6.18726 4.15629 6.43111 4.15629 6.4948 4.09397L6.43111 4.03342L6.55668 4.09397L6.36924 4.21684ZM6.43111 2.93291L6.30737 2.87058L6.1818 2.74949L6.11993 2.62662L6.55668 2.8047L6.43111 2.93291ZM6.61309 2.38088C6.61309 2.38088 6.36378 2.13691 6.36378 2.07637C6.30191 2.01404 6.54576 2.07637 6.54576 2.07637L6.60763 2.13691L6.61309 2.38088ZM6.93155 3.18044V3.05756L7.05712 3.23564L6.80599 3.29797L6.93155 3.18044ZM6.93155 2.69073H7.18268L7.05712 2.75305L6.93155 2.69073ZM6.93155 4.40382L7.05712 4.34327L7.11899 4.40382H6.93155ZM7.05712 3.97466L6.99524 3.85356L7.24456 3.91411L7.05712 3.97466ZM7.11899 1.65076L7.05712 1.52967L7.49387 1.70775L7.37012 1.82884L7.25002 1.77186L7.11899 1.65076ZM7.37012 2.26335V2.20102H7.5521C7.56302 2.32389 7.49932 2.32389 7.37558 2.26335H7.37012ZM7.745 3.85356L7.80687 3.91411H7.62489L7.745 3.85356ZM7.6813 4.34327V4.28095L7.86328 4.40382L7.6813 4.34327ZM8.05618 3.60782L7.99431 3.42974L8.11987 3.49207L8.05618 3.60782ZM7.8742 2.63018L8.12533 2.45211C8.12533 2.45211 8.37464 2.69607 8.24908 2.7584C8.12533 2.87415 7.8742 2.63018 7.8742 2.63018ZM9.00065 4.46437C9.00065 4.52669 8.24908 4.34327 8.24908 4.34327L8.62577 4.2204C8.62577 4.2204 9.06252 4.40382 9.00065 4.46437ZM9.00065 4.2204H9.24996L9.37552 4.09753L9.43739 4.2756L9.00065 4.2204ZM9.62483 4.09753C9.73214 4.09691 9.83835 4.07636 9.93783 4.03698L10.0616 3.90877V3.96931C10.0648 4.05471 10.0866 4.13846 10.1253 4.21506C10.0923 4.21845 10.0589 4.2148 10.0275 4.20435C9.99607 4.19389 9.96734 4.17689 9.94329 4.15451C9.83506 4.1491 9.72801 4.12995 9.62483 4.09753ZM9.99971 4.64778L10.1253 4.58724H10.2508L9.99971 4.64778ZM10.875 1.71309L10.693 1.95706L10.8186 2.32389L10.38 1.89651L10.875 1.71309ZM10.875 3.05756V3.18044C10.875 3.18044 10.562 3.05757 10.562 3.00236C10.5001 2.94182 10.744 2.87949 10.744 2.87949L10.8077 2.94181L10.875 3.05756ZM10.693 4.2204V4.15985L10.8186 4.28095H10.5711C10.5001 4.15985 10.5711 4.2204 10.6876 4.2204H10.693ZM11.006 4.58724L10.8241 4.52669H11.006V4.58724ZM10.8241 3.91411L10.8859 3.85356H10.9351L10.9988 3.79124L11.0606 3.96931L10.8241 3.91411ZM10.9351 3.4244V3.48673L10.8732 3.36386H11.0552C11.1171 3.48673 11.0625 3.4244 10.9351 3.4244ZM11.5611 4.52669L11.4974 4.40382L11.5611 4.46437L11.6848 4.34327L11.5611 4.52669ZM11.5611 4.15985C11.4974 4.2204 11.1862 3.79124 11.1862 3.79124L11.3682 3.48673L11.5502 3.73069L11.7321 4.15985C11.7321 4.15985 11.5611 4.09753 11.5611 4.15985ZM11.8104 1.52967L11.936 1.46735L11.9978 1.34625C11.9978 1.34625 12.0615 1.65076 11.9978 1.71309C12.0615 1.77364 11.8158 1.65076 11.8158 1.65076L11.8104 1.52967ZM11.8759 3.55262C11.8759 3.42974 11.8759 3.49207 11.9996 3.55262L12.0633 3.49207L12.1252 3.67015L11.8759 3.55262ZM11.9996 3.12523H11.8759L12.1252 3.06291L11.9996 3.12523ZM12.1816 2.69429C12.1471 2.60881 11.9996 2.26869 11.9996 2.26869L12.1816 2.09061L12.2453 2.39512C12.2453 2.39512 12.2508 2.62306 12.1889 2.68895L12.1816 2.69429ZM12.6257 3.90877L12.5001 3.73069H12.6257V3.90877ZM12.5001 3.35851V3.30331L12.562 3.24098L12.5001 3.11989L12.6821 3.24098L12.5001 3.35851ZM12.5601 2.13513V2.14047V2.13513ZM12.5601 2.11376C12.5456 2.00692 12.5019 1.57953 12.5019 1.57953L12.8149 1.64008L12.6893 2.00692C12.6415 2.0427 12.5976 2.08329 12.5583 2.12801L12.5601 2.11376ZM12.8149 2.74771L12.8768 2.68539V2.56429L12.9387 2.74237L12.8149 2.74771ZM13.1188 2.20102L13.4373 1.94993L13.501 2.25622L13.5628 2.68361C13.5628 2.68361 13.3809 2.56251 13.3809 2.62306C13.3117 2.69073 13.1188 2.20102 13.1188 2.20102ZM13.7448 4.46437L13.6193 4.52669L13.3699 4.40382C13.3699 4.40382 13.6829 4.22574 13.7448 4.28095C13.8122 4.2204 13.7503 4.46437 13.7503 4.46437H13.7448ZM14.1816 2.87415C14.1816 2.87415 14.5564 3.18044 14.4327 3.24098C14.4327 3.30331 13.8067 2.87415 13.8067 2.87415H14.1816ZM13.9996 3.36386L14.1252 3.4244L13.9996 3.54727V3.36386ZM14.4382 3.97466V4.34327C14.3126 4.09753 14.1252 3.79124 14.1252 3.79124H14.6875L14.4382 3.97466ZM15.0005 3.24098C15.0328 3.23894 15.0633 3.22558 15.0863 3.20334C15.1094 3.1811 15.1235 3.15147 15.126 3.11989V3.48673C15.0623 3.48673 15.0005 3.48673 14.9441 3.36386C14.8495 3.35056 14.762 3.30742 14.6947 3.24098C14.7939 3.27356 14.9013 3.27356 15.0005 3.24098ZM15.1206 3.85356H14.8749L15.0005 3.73069L15.1206 3.85356ZM15.2443 4.46437L14.8694 4.15985H15.0514L15.1151 4.03698L15.2389 4.21506L15.2443 4.46437ZM15.3699 2.75305L15.4318 2.93113L15.308 2.99168L15.3699 2.75305ZM15.4318 4.40382L15.3699 4.34327V4.2204L15.4318 4.04232C15.4318 4.04232 15.6137 4.28629 15.6829 4.28629C15.7502 4.34327 15.4372 4.40382 15.4372 4.40382H15.4318ZM15.8121 1.89651C15.6883 1.95705 15.5009 1.65076 15.5009 1.65076L15.8121 1.52967C15.8121 1.52967 15.9377 1.83418 15.8121 1.89651ZM16.1251 2.44676L16.187 2.50731V2.75305C16.187 2.75305 15.9377 2.50731 15.9377 2.44676C15.8758 2.38444 16.1251 2.44676 16.1251 2.44676ZM15.9995 4.4056C15.9995 4.4056 15.9595 4.24889 15.9449 4.22752C16.1269 4.11534 16.0632 4.35396 16.0632 4.35396L16.1251 4.4145L15.9995 4.4056ZM16.1251 2.9988V2.93825L16.3071 2.9988C16.3125 3.11989 16.2507 3.05935 16.1251 2.9988ZM16.3744 3.67193L16.5 3.49385L16.6255 3.67193H16.3744ZM16.3125 2.32567L16.3744 1.94993L16.813 1.70597H17.3134L16.813 2.0728C16.7629 2.21282 16.7209 2.35551 16.6874 2.50019L16.3125 2.32567ZM17.0004 5.13927C16.9674 5.14255 16.9341 5.13884 16.9027 5.12839C16.8713 5.11794 16.8426 5.101 16.8184 5.07873C16.7566 5.0164 17.0004 5.0164 17.0004 4.90065C17.0004 4.83832 16.6874 4.72258 16.7511 4.65491C16.7808 4.61776 16.8186 4.5876 16.8617 4.56665C16.9048 4.54569 16.9522 4.53447 17.0004 4.53381C17.126 4.53381 17.126 4.77778 17.1824 4.83832C17.2388 4.89887 17.6828 4.28807 17.6828 4.3504C17.5752 4.71088 17.4282 5.05895 17.2443 5.38858C17.1878 5.44378 17.0623 5.13927 17.0004 5.13927ZM17.5627 5.0164L17.6246 4.89531L17.7502 4.71723V5.20516L17.6883 5.08407L17.5627 5.0164ZM17.9376 5.44556C17.874 5.43408 17.8126 5.41306 17.7556 5.38324L18.0049 5.07873L18.2561 5.38324L18.0049 5.26214C18.0131 5.27832 18.0179 5.29596 18.0189 5.314C18.02 5.33203 18.0173 5.35008 18.011 5.36706C18.0047 5.38404 17.9949 5.39959 17.9823 5.41278C17.9697 5.42597 17.9545 5.43829 17.9376 5.44556ZM18.3762 4.95585H18.1942V4.52847C18.1942 4.09931 18.5072 4.70655 18.5072 4.70655C18.5072 4.70655 18.438 4.95585 18.3762 4.95585ZM18.4999 4.4056C18.438 4.34505 18.6819 4.22752 18.6819 4.16163C18.6819 4.03876 18.6819 3.98356 18.8075 3.91589C18.8693 3.85535 18.8075 3.67193 18.933 3.67193C19.0586 3.67193 18.933 3.91589 19.0568 3.97644C19.1805 4.03698 19.4316 4.09931 19.4316 4.22218C19.4316 4.28273 19.1205 4.09931 18.9949 4.16163C18.8693 4.22396 18.9421 4.40382 18.7601 4.40382C18.5782 4.40382 18.5636 4.46615 18.4999 4.4056ZM18.6819 4.89531L18.7456 4.52847L18.9276 4.58902L18.802 4.64956L18.6819 4.89531ZM19.0568 5.8124L18.8748 5.44556L18.9421 5.51145L19.004 5.63432L19.186 5.69487L19.0568 5.8124ZM19.1205 5.26214L18.9949 5.08407C19.0568 4.9612 19.0568 5.08407 19.1205 5.14462H19.1823L19.1205 5.26214ZM19.2442 4.46615L19.6191 4.64422H19.3061C19.3061 4.64422 19.4298 4.76709 19.3679 4.8223C19.3158 4.86185 19.2519 4.88373 19.186 4.88462L19.2442 4.46615ZM19.2442 5.32269L19.8065 5.14462L20.125 5.68953L19.2442 5.32269ZM20.1832 6.11869L20.2451 5.99582V6.05636L20.3706 6.11869H20.1832ZM20.7455 6.05636V5.75007C20.7455 5.75007 20.1832 5.68775 20.307 5.572C20.3706 5.4509 20.933 5.63432 20.933 5.63432L21.1149 5.94061L20.7455 6.05636ZM20.9948 5.44556H20.8129C20.9075 5.29538 21.012 5.15143 21.1259 5.01462L21.3078 5.26036L20.9948 5.44556ZM21.5571 5.26749L21.932 5.572H21.6208C21.5475 5.67703 21.4653 5.77591 21.3752 5.8676C21.437 5.6272 21.5626 5.26036 21.5626 5.26036L21.5571 5.26749ZM21.6208 6.73483C21.6208 6.73483 21.8756 5.8676 21.9375 5.8676C21.9994 5.8676 22.4998 6.11335 22.4379 6.17389C22.2774 6.23625 22.1091 6.27757 21.9375 6.29677L21.6208 6.73483ZM22.245 7.22454C22.3142 7.07414 22.3976 6.93045 22.4943 6.79538L22.4325 6.30745C22.4325 6.30745 22.8692 7.04112 22.8073 7.10167C22.7455 7.16222 22.2505 7.33851 22.2505 7.21742L22.245 7.22454ZM22.558 24.1044H22.4325L22.3706 23.9263L22.558 24.1044ZM21.7446 24.2824L21.8083 24.1613L21.932 24.0385C21.932 24.0385 21.9957 24.3448 21.9957 24.4053C21.9957 24.4659 21.7446 24.3448 21.7446 24.3448V24.2824ZM19.8702 26.2413C19.9321 26.3036 19.6882 26.3641 19.6882 26.3641L19.6245 26.3036L19.5627 26.1807V26.0027C19.5627 26.0027 19.8757 26.1772 19.8757 26.2377L19.8702 26.2413ZM19.4953 25.4471L19.5572 25.5699L19.7392 25.6305L19.6136 25.7533L19.4316 25.3865L19.4953 25.4471ZM19.3134 25.8744H19.3752L19.3061 25.9902L19.1805 25.8121C19.2497 25.6875 19.2497 25.8121 19.3061 25.8709L19.3134 25.8744ZM18.8748 26.0525H18.9421L19.004 25.992V26.17L18.822 26.1095L18.8748 26.0525ZM18.3762 25.8121L18.6874 25.9902C18.8129 26.0507 18.3762 26.357 18.3762 26.2965V25.8121ZM17.9376 25.7516L17.812 25.9296L17.7502 25.8673L17.9376 25.7516ZM17.4372 26.1789V26.357L17.3753 26.1789H17.4372ZM16.1251 26.6081V26.7862H16.0632L15.9377 26.5404L16.1251 26.6081ZM15.5009 25.935C15.6247 25.8727 15.4372 26.1131 15.4372 26.1131H15.3135L15.2498 25.9902L15.126 25.9296C15.126 25.9296 15.5009 25.8727 15.5009 25.935ZM13.6247 25.8727C13.6247 25.8727 13.7503 26.0507 13.5628 26.1184C13.5713 26.1104 13.578 26.1009 13.5825 26.0903C13.5871 26.0798 13.5895 26.0684 13.5895 26.057C13.5895 26.0455 13.5871 26.0342 13.5825 26.0236C13.578 26.013 13.5713 26.0035 13.5628 25.9955L13.501 25.8727H13.6247ZM13.1188 26.9732C13.1514 26.9711 13.1821 26.9575 13.2052 26.9349C13.2283 26.9122 13.2422 26.8822 13.2444 26.8503V27.2171C13.1825 27.2171 13.1188 27.2171 13.0624 27.0943C12.9679 27.0818 12.8803 27.0393 12.8131 26.9732C12.9124 27.0051 13.0195 27.0051 13.1188 26.9732ZM12.8695 26.1166C12.8695 26.1166 12.9314 26.4835 12.9314 26.544C12.9314 26.6669 12.5565 25.9332 12.5565 25.9332L12.8695 26.1166ZM12.3127 25.8121C12.4382 25.7516 12.3127 26.2395 12.2508 26.2395C12.1614 26.0871 12.0566 25.9439 11.9378 25.8121H12.3127ZM12.3745 26.7292V26.7915C12.3745 26.7915 12.1252 26.9126 12.1252 26.8521C12.1252 26.7915 12.1871 26.4852 12.1871 26.4852L12.3127 26.6081L12.3745 26.7292ZM12.0633 27.0943C12.0633 27.1566 11.4373 26.7274 11.4373 26.7274H11.8122C11.8122 26.7274 12.1871 27.0337 12.0633 27.0943ZM10.3127 25.8121L10.3746 26.1184C10.3746 26.1184 10.3746 26.3552 10.3145 26.4211C10.28 26.3357 10.1326 25.9955 10.1326 25.9955L10.3127 25.8121ZM6.93155 25.3206L6.80599 25.6875C6.7597 25.7172 6.71643 25.7512 6.67678 25.789C6.66222 25.6821 6.61855 25.2547 6.61855 25.2547L6.93155 25.3206ZM6.86968 26.9126C6.99524 26.7915 7.05166 27.3418 6.99524 27.3418C6.93155 27.2795 6.55668 27.0355 6.55668 27.0355C6.0617 26.4835 6.18726 26.1772 6.87514 26.9108L6.86968 26.9126ZM6.11993 25.0784L5.93795 25.3224L6.0617 25.6892L5.62495 25.2619L6.11993 25.0784ZM5.37018 35.3534C5.32006 35.4934 5.27814 35.6361 5.24461 35.7808L4.86974 35.6027L4.93161 35.2359L5.37018 34.9919H5.8688L5.37018 35.3534ZM5.80693 38.4733L5.62495 38.411L5.75051 38.2899L5.80693 38.4733ZM4.56583 37.615L4.25283 37.3087C4.81515 37.3087 5.12815 37.3692 5.31559 37.615L5.44115 38.0424C5.44115 38.0424 4.87884 38.4715 4.81515 38.4092L4.87884 37.615H4.56583ZM4.62771 37.9818V38.0424L4.44573 38.2204C4.44573 38.2204 4.44573 37.8536 4.50942 37.8536C4.50032 37.7432 4.62407 37.9818 4.62407 37.9818H4.62771ZM3.69052 38.1047C3.52974 38.1584 3.35937 38.179 3.19008 38.1652C2.94077 38.1652 2.50402 38.6549 2.37846 38.5926C2.19648 38.5321 2.44033 38.2258 2.44033 38.1047C2.44033 37.9836 2.69146 38.1047 2.94077 38.0424C3.06633 37.9818 3.25377 37.7379 3.44121 37.7379C3.62865 37.7379 3.69052 37.615 3.75421 37.5598L3.69052 37.4992C3.7386 37.495 3.78335 37.4734 3.81608 37.4387V37.5598H3.94165C4.12363 37.6221 4.19096 37.7379 4.19096 37.8055C4.18732 37.9213 3.99988 38.0424 3.68688 38.0993L3.69052 38.1047ZM3.75421 38.4092L3.57223 38.5873V38.3487L3.75421 38.4092ZM1.87802 37.7984C1.9096 37.8971 1.97356 37.9828 2.05999 38.0424C2.12369 38.1652 2.24197 38.1047 2.31112 38.1047L2.12915 38.1652C2.12915 38.1652 2.0145 38.3291 1.89621 38.3433C1.92715 38.3291 1.8853 38.2632 1.93989 38.1029C1.90374 38.0616 1.87879 38.0121 1.86734 37.9589C1.85589 37.9056 1.85831 37.8505 1.87438 37.7984H1.87802ZM2.19102 37.3692L2.25289 37.4316L2.31658 37.5527L2.49856 37.615L2.3821 37.7432L2.19102 37.3692ZM2.44033 38.9595C2.44033 38.9595 2.50402 39.3281 2.50402 39.3886C2.50402 39.5115 2.12915 38.776 2.12915 38.776L2.44033 38.9595ZM2.31658 35.0418H2.13461C2.22918 34.8932 2.33311 34.7504 2.44579 34.6144L2.62777 34.8584L2.31658 35.0418ZM2.62777 35.5315L2.50038 35.7844C2.45028 35.9512 2.3895 36.1147 2.3184 36.2741C2.3184 36.2135 2.06727 35.4799 2.13643 35.4799C2.20558 35.4799 2.62413 35.5351 2.62413 35.5351L2.62777 35.5315ZM2.12915 33.3946L2.19102 33.2717L2.25289 33.5175L2.12915 33.3946ZM2.25289 27.34V27.2777L2.31658 27.1566L2.44033 27.0337C2.44033 27.0337 2.50402 27.34 2.50402 27.4005C2.50402 27.4611 2.24925 27.34 2.24925 27.34H2.25289ZM2.56407 29.9702C2.56407 30.0307 2.31476 29.9079 2.31476 29.9079V29.8473L2.3821 29.7298L2.50766 29.6087C2.50766 29.6087 2.56407 29.9079 2.56407 29.9702ZM2.5022 31.0707L2.37664 31.2488L2.25107 31.1882L2.5022 31.0707ZM2.43851 32.2941L2.37664 32.3546L2.31476 32.2941H2.43851ZM2.43851 32.538L2.25653 32.7161V32.4721L2.43851 32.538ZM2.3821 33.0277L2.44397 32.9672L2.62595 33.0883L2.3821 33.0277ZM3.19372 30.9478L3.25741 30.8873H3.31928L3.25741 31.0654L3.13185 30.9425L3.19372 30.9478ZM3.13185 28.6239L3.25741 28.5634V28.5011L3.31928 28.6239H3.13185ZM2.89345 32.5968C2.92257 32.5826 2.88254 32.5149 2.93713 32.3546C2.90084 32.313 2.87608 32.263 2.86525 32.2094C2.85441 32.1558 2.85786 32.1003 2.87526 32.0483C2.9071 32.1474 2.97096 32.2336 3.05724 32.2941C3.11911 32.4152 3.23921 32.3546 3.30655 32.3546L3.12457 32.4152C3.12457 32.4152 3.01174 32.579 2.89345 32.5968ZM3.06269 33.4551L2.93713 33.334L2.999 33.2717L3.06269 33.4551ZM3.12457 29.8473L2.74605 29.541H2.92803L2.9899 29.4181L3.11547 29.5962L3.12457 29.8473ZM2.81156 30.1536V30.2747L2.68782 30.2141C2.74605 30.2141 2.74605 30.2141 2.81156 30.1536ZM2.87526 28.6239C2.90767 28.6218 2.93816 28.6081 2.96096 28.5855C2.98376 28.5628 2.9973 28.5328 2.999 28.5011V28.8679C2.93713 28.8679 2.87526 28.8679 2.81702 28.7468C2.72246 28.7335 2.63492 28.6904 2.56771 28.6239C2.66761 28.656 2.77536 28.656 2.87526 28.6239ZM2.62413 27.5234L2.93713 27.7015C2.93713 27.7015 2.999 28.0683 2.999 28.1289C2.999 28.2571 2.62413 27.5234 2.62413 27.5234ZM2.68782 33.8255L3.12457 33.5816H3.62501L3.12457 33.9484C3.07423 34.0889 3.03231 34.2322 2.999 34.3776L2.62413 34.1995L2.68782 33.8255ZM3.81245 27.6481L3.87432 27.8261L3.75057 27.8885L3.81245 27.6481ZM3.75057 26.2413V26.0632L3.81245 26.1861L3.75057 26.2413ZM4.99894 34.1817C5.05115 34.2211 5.11498 34.243 5.18092 34.244L5.05718 34.3046V34.244C5.04109 34.2431 5.026 34.2361 5.01512 34.2244C5.00425 34.2128 4.99844 34.1974 4.99894 34.1817ZM5.12451 33.9377V33.448L5.43751 33.6261C5.56308 33.7009 5.12451 34.0036 5.12451 33.9448V33.9377ZM5.43751 32.8372L5.31195 32.7143H5.37564L5.43751 32.6538H5.49938L5.43751 32.8372ZM5.37564 32.0448L5.19366 31.9237H5.37564L5.49938 31.8613L5.37564 32.0448ZM5.43751 31.2505L5.31195 31.1277H5.37564L5.43751 31.0671H5.49938L5.43751 31.2505ZM5.12451 29.7298L5.06264 29.6692L4.99894 29.5464V29.3683C4.99894 29.3683 5.31195 29.5464 5.31195 29.614C5.37564 29.6639 5.12451 29.7298 5.12451 29.7298ZM5.06264 30.0859V30.0254L5.12451 30.1483H4.92979L5.06264 30.0859ZM4.56583 35.2288C4.56583 35.2288 4.25283 35.5351 4.25283 35.5956C4.19638 35.5284 4.15598 35.4497 4.13457 35.3653C4.11316 35.2809 4.11129 35.1929 4.12909 35.1077C4.19096 34.8619 4.87884 34.8014 4.94071 34.9848C5.00258 35.1682 4.56583 35.2288 4.56583 35.2288ZM4.74781 36.4521C4.66165 36.3328 4.55661 36.2276 4.43663 36.1405C4.43663 36.1405 4.68776 35.4674 4.74963 35.5885C4.81151 35.7096 4.68776 35.8342 4.93161 36.0176C5.12451 36.2082 4.74781 36.3311 4.74781 36.4521ZM4.80969 37.0024C4.80969 37.0647 4.56038 36.9419 4.56038 36.9419V36.8813L4.62225 36.7584L4.74781 36.6356C4.74781 36.6356 4.80969 36.9419 4.80969 37.0024ZM3.93619 36.0248C3.88352 36.0631 3.81986 36.0843 3.75421 36.0853L3.81608 35.6579L4.19096 35.836H3.87432C3.87432 35.836 3.99806 35.9624 3.93619 36.0248ZM3.75421 31.929L3.62865 32.0501V31.8061L3.69052 31.8667V31.929H3.75421ZM3.81608 32.4793L3.87796 32.4169H3.94165L3.87796 32.595L3.75421 32.4739L3.81608 32.4793ZM3.75421 34.26C3.81608 34.26 3.81608 34.3829 3.81608 34.3829V34.4435L3.63411 34.3829C3.63411 34.3829 3.75057 34.1283 3.75057 34.2511L3.75421 34.26ZM3.87796 34.6874L4.05994 34.9332L3.74875 35.1112H3.56677C3.6602 34.961 3.76291 34.8165 3.87432 34.6785L3.87796 34.6874ZM4.38386 33.578C4.38386 33.578 4.8206 34.3117 4.75873 34.374C4.69686 34.4363 4.19642 34.618 4.19642 34.4951C4.26591 34.3454 4.34936 34.2024 4.44573 34.0677L4.38386 33.578ZM4.44573 29.6033L4.50942 29.541H4.56583L4.50396 29.7191L4.3784 29.598L4.44573 29.6033ZM4.38386 29.1136L4.50942 29.0513L4.63317 28.8073L4.56583 29.1742L4.38386 29.1136ZM4.24919 34.1817L4.18732 34.0606L4.06176 34.2387L4.24373 33.749L4.24919 34.1817ZM4.24919 36.8119L4.31289 36.9347L4.49486 36.9953L4.3693 37.1181L4.18732 36.7513L4.24919 36.8119ZM4.8752 31.5533L4.69322 31.7314C4.69322 31.7314 4.69322 31.3645 4.75509 31.3645C4.75509 31.2416 4.88066 31.4856 4.88066 31.4856L4.8752 31.5533ZM4.56583 30.9478C4.58239 30.9481 4.59883 30.945 4.61417 30.939C4.62952 30.9329 4.64346 30.9238 4.65517 30.9124C4.66688 30.9009 4.67612 30.8873 4.68234 30.8723C4.68857 30.8572 4.69165 30.8412 4.6914 30.8249L4.75327 30.7039L4.81515 30.8249C4.80755 30.8494 4.79497 30.872 4.77816 30.8916C4.76136 30.9111 4.74067 30.9271 4.71737 30.9386C4.69406 30.9501 4.66861 30.9568 4.64257 30.9584C4.61652 30.96 4.59042 30.9564 4.56583 30.9478ZM4.62771 28.4405L4.3784 28.6186L4.62407 27.949L4.62771 28.4405ZM4.31289 27.7709C4.32131 27.763 4.328 27.7534 4.33257 27.7429C4.33715 27.7323 4.3395 27.721 4.3395 27.7095C4.3395 27.698 4.33715 27.6867 4.33257 27.6761C4.328 27.6656 4.32131 27.656 4.31289 27.6481L4.24919 27.527H4.38386C4.38386 27.527 4.50032 27.7068 4.31289 27.7709ZM4.43663 31.3182L4.31289 31.3805V31.3182C4.30461 31.3185 4.29637 31.3171 4.28865 31.3141C4.28093 31.3112 4.27389 31.3068 4.26795 31.3011C4.26201 31.2955 4.25729 31.2887 4.25407 31.2813C4.25085 31.2738 4.24919 31.2658 4.24919 31.2577C4.30381 31.2958 4.36952 31.3158 4.43663 31.3147V31.3182ZM4.50032 32.7873L4.12545 33.2147C4.12545 33.2147 3.87432 33.4587 3.81245 33.4587C3.75057 33.4587 4.12545 32.7873 4.12545 32.7873H4.50032ZM4.24919 31.8079H4.12545V31.6886L3.99988 31.6281H4.24919V31.8079ZM3.81245 25.691C3.87432 25.5699 3.87432 25.691 3.93801 25.7533H3.99988L3.93801 25.8744L3.81245 25.691ZM3.81245 28.7504L3.99442 28.8109L3.86886 28.9338L3.68688 28.5669L3.75057 28.6275L3.81245 28.7504ZM3.43757 29.7903L3.37388 29.728V29.6069L3.43757 29.4288C3.43757 29.4288 3.61955 29.6746 3.68688 29.6746C3.75057 29.7298 3.43757 29.7868 3.43757 29.7868V29.7903ZM3.43757 32.7873L3.37388 32.9654V32.8425L3.43757 32.7873ZM3.12457 34.6821H2.94259L3.06815 34.6215V34.561L3.12457 34.6821ZM2.68782 35.3552C2.68782 35.2323 2.74969 34.7444 2.93713 34.7444C3.12457 34.7444 3.31201 34.9225 3.18644 35.0489C3.06087 35.1753 3.87432 35.3552 3.25013 35.722C2.62595 36.0889 2.68782 35.4745 2.68782 35.3516V35.3552ZM3.312 37.136L3.37388 37.0131L3.49944 36.892C3.49944 36.892 3.56132 37.1965 3.56132 37.2588C3.56132 37.3212 3.312 37.1965 3.312 37.1965V37.136ZM3.25013 36.7086L3.06815 36.3417L3.13003 36.4023L3.1919 36.5252L3.37388 36.5857L3.25013 36.7086ZM2.68782 35.9126L2.999 36.0907C3.12457 36.153 2.68782 36.4575 2.68782 36.3969V35.9126ZM2.999 37.3194C2.87526 37.3799 2.87526 37.3194 2.87526 37.1965L2.93713 37.136L2.999 37.3194ZM2.62413 37.1965L2.50038 37.0184C2.56225 36.8973 2.56225 37.0184 2.62413 37.0808H2.68782L2.62413 37.1965ZM2.74969 37.5633C2.74969 37.5633 2.81156 37.8696 2.81156 37.932C2.81156 37.9943 2.56225 37.8696 2.56225 37.8696V37.8091L2.62413 37.6862L2.74969 37.5633ZM3.75057 37.1965V37.0184L3.81245 37.1413L3.75057 37.1965ZM3.49944 36.4628L3.43757 35.9126L3.61955 35.852L3.80153 36.3417V36.4628H3.92709L3.8634 36.5857L4.30197 37.6257L3.49944 36.4628ZM5.18638 36.7691H5.25007L5.18638 36.892L5.06264 36.7139C5.12451 36.575 5.12451 36.6979 5.18638 36.7584V36.7691ZM5.12451 35.9126C5.15635 36.0116 5.22021 36.0979 5.30649 36.1583C5.31759 36.1714 5.33149 36.1819 5.34722 36.1891C5.36295 36.1964 5.3801 36.2001 5.39748 36.2001C5.41485 36.2001 5.43201 36.1964 5.44773 36.1891C5.46346 36.1819 5.47737 36.1714 5.48846 36.1583L5.23915 36.4023C5.23915 36.3417 5.17546 36.3417 5.17546 36.2242C5.13686 36.1211 5.11954 36.0116 5.12451 35.9019V35.9126ZM5.37564 37.6933L5.43751 37.5705V37.6328L5.56308 37.6933H5.37564ZM5.31195 37.1431V37.0825L5.37564 36.9597L5.49938 36.8368C5.49938 36.8368 5.56308 37.1431 5.56308 37.2036C5.56308 37.2642 5.31195 37.1253 5.31195 37.1253V37.1431ZM5.87426 27.5929L5.93795 27.6534H5.75597L5.87426 27.5929ZM5.75051 27.1655H5.87426V27.3436L5.75051 27.1655ZM5.81239 28.0826V28.022L5.99436 28.1431L5.81239 28.0826ZM5.87426 26.0632L5.81239 25.8851L5.99436 26.0632H5.87426ZM5.69228 29.9809V30.1589L5.63041 30.0966L5.69228 29.9809ZM5.63041 34.8121L5.56854 34.6892L5.44297 34.6287L5.50484 34.5058L5.63041 34.3277V34.8121ZM5.25553 23.9868L5.31741 24.0474V24.1079H5.3811L5.25553 24.2308V23.9868ZM5.43751 26.3107C5.43751 26.3107 5.68682 26.5547 5.56308 26.617C5.43751 26.7381 5.18638 26.4941 5.18638 26.4941L5.43751 26.3107ZM5.18638 29.2454L4.92979 29.1136C4.92979 28.9908 4.92979 29.0513 5.05536 29.1136L5.11723 29.0513L5.18638 29.2454ZM5.12451 25.1497V25.212L5.06264 25.3331L4.93707 25.3954C4.93707 25.3954 4.8752 25.0891 4.8752 25.0286C4.92979 24.9538 5.12451 25.1372 5.12451 25.1372V25.1497ZM4.68776 24.5389V24.4765L4.81151 24.5389C4.79398 24.5724 4.76813 24.601 4.73633 24.6222C4.70453 24.6433 4.6678 24.6563 4.62953 24.66C4.68776 24.6475 4.68776 24.5264 4.68776 24.5264V24.5389ZM4.86974 25.6394C4.80605 25.7622 4.80605 25.6394 4.74417 25.5788H4.6823L4.74417 25.456L4.86974 25.6394ZM4.3693 25.4613L5.05718 27.2421L4.24373 26.0792L4.18186 25.529L4.3693 25.4613ZM4.24373 27.2955L4.06176 27.2349L4.12545 27.1121L4.24373 27.2955ZM3.87432 23.9138L4.0563 24.2201C3.9806 24.3471 3.89735 24.4695 3.80699 24.5869C3.75057 24.6475 3.87432 23.9138 3.87432 23.9138ZM3.69234 25.0767C3.70344 25.0897 3.71735 25.1003 3.73307 25.1075C3.7488 25.1147 3.76596 25.1184 3.78333 25.1184C3.8007 25.1184 3.81786 25.1147 3.83358 25.1075C3.84931 25.1003 3.86322 25.0897 3.87432 25.0767L3.62501 25.3206C3.62501 25.2601 3.56132 25.2601 3.56132 25.1425C3.52094 25.0452 3.49994 24.9413 3.49944 24.8363C3.53328 24.9343 3.59915 25.0188 3.68688 25.0767H3.69234ZM3.1919 29.1724L3.31746 29.0495L3.44303 29.1724H3.1919ZM3.37388 26.788V26.8485C3.37388 26.8485 3.12457 26.9714 3.12457 26.9091C3.12457 26.8467 3.18644 26.5422 3.18644 26.5422L3.312 26.6651L3.37388 26.788ZM3.06269 25.9314L3.24467 25.992L3.11911 26.1148L2.93713 25.748L2.999 25.8085L3.06269 25.9314ZM2.81156 24.0955C2.81156 24.0955 2.87526 24.5246 2.81156 24.5246C2.74787 24.5246 2.50038 23.7909 2.50038 23.7909L2.81156 24.0955ZM2.56407 24.7098L2.93895 25.0161H2.62413C2.55252 25.1242 2.47154 25.2261 2.3821 25.3206C2.43669 25.0767 2.56407 24.7098 2.56407 24.7098ZM2.1892 25.6875C2.25107 25.6875 2.68964 25.7498 2.68964 25.7498L2.56407 25.9902C2.51365 26.1569 2.45288 26.3204 2.3821 26.4799C2.3821 26.4211 2.12733 25.6875 2.1892 25.6875ZM2.1892 30.5204V30.4581L2.25107 30.581H2.06909L2.1892 30.5204ZM2.37118 36.4521H2.74605L2.3821 36.8813C2.3821 36.8813 2.13279 37.1253 2.06909 37.1253C2.0054 37.1253 2.3821 36.4521 2.3821 36.4521H2.37118ZM1.74517 37.2481L2.05817 37.4262L1.74517 37.6702V37.2481ZM1.24655 38.5321V38.6549L1.12099 38.4769L1.24655 38.5321ZM1.24655 39.2052H1.42853L1.4904 39.0823L1.61597 39.2604V39.5061L1.24655 39.2052ZM1.49586 39.816L1.55773 39.6379C1.55773 39.6379 1.73971 39.8837 1.80886 39.8837C1.87074 39.9442 1.55773 40.0048 1.55773 40.0048L1.49586 39.9442V39.816ZM1.55773 40.4891V40.3663L1.62143 40.1882C1.62143 40.1882 1.8034 40.4339 1.87074 40.4339C1.93261 40.4945 1.62143 40.555 1.62143 40.555L1.55773 40.4891ZM2.62049 41.0394L2.49674 40.9788L2.74605 40.856L2.62049 41.0394ZM2.87162 40.8613L2.93349 40.6832V40.8061L3.11547 40.929L2.87162 40.8613ZM3.4958 41.1676C3.43393 41.1676 3.1828 40.4339 3.1828 40.4339L3.4958 40.7384C3.4958 40.7384 3.56131 41.1623 3.49944 41.1623L3.4958 41.1676ZM3.55768 39.7003C3.55768 39.7003 2.99536 40.4945 2.80792 40.4945C2.74605 40.555 2.12187 41.2905 1.80886 41.1071C1.62689 40.9842 2.12187 40.3716 2.12187 40.3111C2.05817 40.1882 1.62143 39.0271 1.80886 39.0271C1.9963 39.0271 2.18374 39.5774 2.18374 39.5774C2.18374 39.5774 2.87162 39.7003 2.74605 39.5168C2.62049 39.3334 2.92803 38.4145 2.99536 38.354C3.12093 38.2311 2.93349 39.0877 2.93349 39.2105C2.93349 39.2711 3.1828 38.7814 3.1828 38.7814V39.5168L3.4958 38.9043C3.4958 38.9043 4.24555 38.5374 4.37112 38.598C4.5531 38.6603 4.49668 39.0271 4.49668 39.0271L5.18274 38.354C5.12087 38.4769 5.059 38.598 5.18274 38.7208C5.30649 38.8437 5.30831 38.9648 5.24643 39.0271C5.18456 39.0895 4.38386 39.6326 4.38386 39.6326C4.38386 39.6326 4.25829 39.8107 3.82154 39.8783C3.76507 39.878 3.71 39.861 3.66356 39.8296C3.61713 39.7981 3.58149 39.7537 3.56132 39.702L3.55768 39.7003ZM5.30831 39.6379L5.24643 39.816L5.18274 39.6379H5.30831ZM4.38386 41.0394C4.38386 41.4686 3.75967 41.2175 3.75967 41.2175C3.75967 41.2175 4.00898 40.6672 3.94165 40.6067C3.87432 40.5461 4.18732 39.8801 4.18732 39.8801H4.81151L5.31195 40.6743C5.31195 40.6743 4.38386 40.612 4.38386 41.0394ZM5.50848 40.3057L5.44661 40.1828L5.32105 40.1223L5.38474 39.9994L5.63405 40.2452L5.50848 40.3057ZM5.50848 39.816C5.44661 39.8783 5.57218 39.1429 5.57218 39.1429L5.75415 39.4492C5.67719 39.5766 5.5921 39.6991 5.49938 39.816H5.50848ZM5.75961 39.1429C5.75961 39.0823 5.82149 38.776 5.82149 38.776L5.94705 38.8989L6.00892 39.0218V39.0823C6.00892 39.0823 5.75051 39.2052 5.75051 39.1429H5.75961ZM5.94159 39.816L6.06534 39.9941C6.00346 40.117 6.00346 39.9941 5.94159 39.9335H5.8779L5.94159 39.816ZM6.12357 40.9183L6.05988 40.7954L5.93613 40.9735L6.11811 40.4838L6.12357 40.9183ZM5.94159 38.1652V38.0993L6.06534 38.037L6.24731 37.9765C6.24731 37.9765 6.12357 38.2828 6.18544 38.2828C6.18726 38.4092 5.93795 38.1652 5.93795 38.1652H5.94159ZM6.44021 39.946L6.31647 40.1241L6.25277 40.0635L6.44021 39.946ZM6.37834 40.8025L6.19636 40.4357L6.25823 40.4963L6.32193 40.6191L6.5039 40.6797L6.37834 40.8025ZM7.12809 28.2037C7.12809 28.2642 6.37834 28.0808 6.37834 28.0808L6.74957 27.949C6.74957 27.949 7.18814 28.1271 7.12445 28.1965L7.12809 28.2037ZM7.00434 27.6516H7.25365L7.37922 27.5305L7.44109 27.7086L7.00434 27.6516ZM7.44109 26.674C7.33458 26.6667 7.22942 26.6464 7.12809 26.6135C7.23557 26.6128 7.34189 26.5916 7.44109 26.5511L7.56666 26.4283V26.4906C7.56972 26.5752 7.59079 26.6583 7.62853 26.7345C7.59352 26.7383 7.5581 26.7341 7.52498 26.7224C7.49187 26.7106 7.46193 26.6917 7.43745 26.6669L7.44109 26.674ZM7.44109 25.5112L7.81597 25.5735C7.86427 25.7013 7.92522 25.8241 7.99795 25.9403C7.99977 26.0543 7.43745 25.504 7.43745 25.504L7.44109 25.5112ZM7.75045 28.0737C7.82001 27.9235 7.90346 27.7798 7.99977 27.6445L7.93789 27.1566C7.93789 27.1566 8.37464 27.8903 8.31277 27.9508C8.2509 28.0113 7.75045 28.1965 7.75045 28.0737ZM8.12533 28.38L8.24908 28.3176H8.37464L8.12533 28.38ZM8.24908 27.4005V27.1566L8.37464 27.3347L8.24908 27.4005ZM8.43105 25.6875C8.43105 25.6875 8.11987 25.5664 8.11987 25.5094C8.05618 25.4488 8.30185 25.3883 8.30185 25.3883L8.36372 25.4488L8.42559 25.5717L8.43105 25.6875ZM8.55662 26.1772V26.2377L8.49475 26.1166H8.67672C8.75134 26.2377 8.68764 26.1772 8.56936 26.1772H8.55662ZM8.7386 27.4611C8.67672 27.34 8.7386 27.4005 8.86416 27.4005V27.34L8.98973 27.4611H8.7386ZM9.11347 26.2377C8.98973 26.2377 8.67672 25.7498 8.67672 25.7498L8.80229 25.3829L9.17717 25.561L8.92603 25.7391C8.92603 25.7391 9.31183 26.2377 9.12439 26.2377H9.11347ZM9.17717 26.8503L9.30091 26.9108L9.23904 26.9732L9.17717 26.8503ZM9.67579 28.2571L9.62483 28.1271L9.6867 28.1894L9.81227 28.0666L9.67579 28.2571ZM9.67579 27.8903C9.61391 27.9508 9.30091 27.5234 9.30091 27.5234L9.48289 27.2171L9.66487 27.4611L9.84684 27.8903C9.84684 27.8903 9.6867 27.8279 9.6867 27.8903H9.67579ZM9.67579 25.7533V25.634L9.80135 25.5735L9.86322 25.4506C9.86322 25.4506 9.92692 25.7569 9.86322 25.8175C9.93783 25.8709 9.6867 25.7498 9.6867 25.7498L9.67579 25.7533ZM10.1144 28.6275L10.0507 28.5046H10.2326L10.1144 28.6275ZM10.2963 28.5046V28.3265L10.4219 28.3889L10.2963 28.5046ZM10.2963 26.9144L10.3582 26.8539L10.4838 26.9767L10.2963 26.9144ZM10.6093 27.8315C10.4274 27.8315 10.6093 27.7709 10.6712 27.7104L10.6093 27.6481L10.7331 27.7104L10.6093 27.8315ZM10.6712 26.487L10.9842 26.3641C10.9842 26.3641 11.108 26.6704 10.9842 26.731C10.8605 26.7915 10.6876 26.4835 10.6876 26.4835L10.6712 26.487ZM11.108 27.0373V27.2153L10.9842 27.0373H11.108ZM11.0461 28.5046L11.1716 28.4441L11.2335 28.5046H11.0461ZM11.5465 25.691L11.6084 25.9973L11.6703 26.4247C11.6703 26.4247 11.4883 26.3036 11.4883 26.3641C11.4264 26.4247 11.239 25.9368 11.239 25.9368L11.5465 25.691ZM11.4992 28.1271L11.3755 28.006H11.5574L11.4992 28.1271ZM12.2508 28.4939L12.1252 28.5563L11.8759 28.4334C11.8759 28.4334 12.1871 28.2553 12.2508 28.3105C12.3127 28.2571 12.2508 28.5011 12.2508 28.5011V28.4939ZM12.562 28.0666C12.4382 27.8208 12.2508 27.5163 12.2508 27.5163H12.8131L12.562 27.6944V28.0666ZM13.188 28.5563L12.8131 28.25H12.9951L13.0569 28.1271L13.1825 28.3052L13.188 28.5563ZM13.1188 27.7709L13.2444 27.6481L13.3699 27.7709H13.1188ZM13.4955 26.487L13.5574 26.6651L13.4318 26.7256L13.4955 26.487ZM13.6193 27.2207L13.7448 27.3436L13.6829 27.4041L13.6193 27.3436L13.4955 27.4041L13.6193 27.2207ZM13.6829 28.5046L13.6193 28.4441V28.3212L13.6829 28.1431C13.6829 28.1431 13.8649 28.3889 13.9323 28.3889C13.9996 28.4405 13.6884 28.5011 13.6884 28.5011L13.6829 28.5046ZM14.1197 28.1378C14.1197 28.1378 14.0797 27.9829 14.0633 27.9597C14.2453 27.8475 14.1816 28.0861 14.1816 28.0861L14.2453 28.1467L14.1197 28.1378ZM14.3017 26.487C14.3017 26.487 14.0524 26.2413 14.0524 26.1807C13.9887 26.1202 14.2343 26.1807 14.2343 26.1807L14.2962 26.2413L14.3017 26.487ZM14.3017 26.0579L14.2398 25.9368H14.3017C14.3635 25.8744 14.3635 25.7587 14.4272 25.8744L14.3017 26.0579ZM14.6147 27.2207L14.7384 27.3988H14.5L14.6147 27.2207ZM14.7967 28.5046L14.733 28.3835L14.9841 28.4441L14.7967 28.5046ZM14.9204 27.8315C14.7384 27.7709 14.9841 27.7709 15.046 27.7104L14.9841 27.6481L15.1097 27.7104L14.9204 27.8315ZM14.8585 27.2812C14.8585 27.2812 15.1097 26.4247 15.1715 26.4247C15.2334 26.4247 15.7338 26.6704 15.672 26.731C15.5116 26.794 15.3433 26.8353 15.1715 26.8539L14.8585 27.2812ZM15.4845 27.2812L15.359 27.1601H15.4208L15.4845 27.0978H15.5464L15.4845 27.2812ZM15.6083 28.3212L15.7338 28.2607L15.7957 28.3212H15.6083ZM16.1087 27.4041L15.9267 27.3436L16.0523 27.2812L16.176 27.0373L16.1087 27.4041ZM16.4836 27.7709L16.6092 27.7104V27.6481L16.671 27.7709H16.4836ZM16.6092 27.1601L16.4836 27.0373H16.5455L16.6092 26.9767H16.671L16.6092 27.1601ZM16.4836 26.3036L16.4217 26.6704L16.1251 25.9902L16.4381 26.1683L16.5618 25.862L16.7438 25.8014L16.4836 26.3036ZM16.984 25.8139L17.0459 25.7533H17.1223L17.0586 25.9314L16.9404 25.8121L16.984 25.8139ZM17.1096 28.0167L16.984 27.8938L17.166 27.8315L17.2279 27.7104L17.2916 27.6481L17.1096 28.0167ZM17.6082 27.7104V27.4041C17.6082 27.4041 17.0459 27.3436 17.1715 27.226C17.2333 27.1032 17.7957 27.2866 17.7957 27.2866L17.9776 27.5929L17.6082 27.7104ZM17.9831 26.2413L17.8593 26.1202H17.9212L17.9831 26.0579H18.0468L17.9831 26.2413ZM18.1087 25.691V25.5129L18.1705 25.6358L18.1087 25.691ZM18.2906 28.0167L18.2288 27.9544L18.2906 27.8315V28.0167ZM18.5418 26.9144C18.4781 26.9144 18.3598 26.5476 18.3598 26.5476L18.984 26.6704L18.9221 26.9767L18.6091 26.7986C18.6091 26.7986 18.6255 26.9108 18.5636 26.9108L18.5418 26.9144ZM19.0404 27.2812L18.8584 27.2207C18.7965 27.0978 18.9221 27.2207 18.984 27.2207L19.0458 27.1601L19.0404 27.2812ZM18.8584 25.3865L18.9221 25.2636V25.3242L19.0458 25.3865H18.8584ZM19.1095 26.6099C19.3588 26.6704 19.2915 26.8539 19.2915 26.8539L19.3534 26.9144H19.1714C19.1335 26.8162 19.1173 26.7111 19.1241 26.6063L19.1095 26.6099ZM19.2915 27.3436L19.4153 27.0978L19.5972 27.4041C19.6248 27.5048 19.6461 27.6071 19.6609 27.7104L19.2915 27.3436ZM19.9157 27.1655C19.8538 27.1655 19.6027 26.43 19.6027 26.43L19.9157 26.7363C19.9157 26.7363 20.0012 27.1566 19.9375 27.1566L19.9157 27.1655ZM20.3543 25.5753V26.0632L20.1031 26.2413L20.3543 25.5753ZM20.4161 27.6534L20.3543 27.4753L20.478 27.5377L20.4161 27.6534ZM20.6655 26.2466L20.5417 26.1861C20.6036 26.1861 20.6036 26.1861 20.6655 26.1255V26.2466ZM20.4835 25.5129L20.4216 25.4524L20.3597 25.3295V25.1514C20.3597 25.1514 20.6709 25.3295 20.6709 25.3972C20.751 25.4435 20.4999 25.504 20.4999 25.504L20.4835 25.5129ZM21.0458 25.025L20.9839 24.9627L20.922 24.8398V24.6617C20.922 24.6617 21.2332 24.8398 21.2332 24.9075C21.3078 24.9538 21.0622 25.0161 21.0622 25.0161L21.0458 25.025ZM21.4207 27.2866L21.2387 27.226L21.3643 27.1655L21.4898 26.9197L21.4207 27.2866ZM21.6026 25.5753L21.5389 25.5129L21.6026 25.3919V25.5753ZM21.6645 26.0027L21.7264 25.9421L21.7901 26.1202L21.6645 26.0027ZM22.1013 26.7986C22.1013 26.7986 21.852 26.9197 21.852 26.8592C21.852 26.7987 21.9138 26.4924 21.9138 26.4924L22.0394 26.6152L22.1013 26.7363V26.7986ZM22.2268 25.3919C22.2334 25.4377 22.2551 25.4803 22.2887 25.5129L22.3524 25.5753H22.1704C22.1704 25.5753 22.2505 25.3206 22.2505 25.3829L22.2268 25.3919ZM22.2887 25.9421L22.3524 25.8798L22.4143 26.0579L22.2887 25.9421ZM22.4707 25.2084C22.4707 25.1461 22.4088 25.1461 22.4088 25.0304C22.3686 24.933 22.3476 24.8291 22.3469 24.7241C22.3785 24.8228 22.4425 24.9085 22.5289 24.968C22.5398 24.9814 22.5537 24.9922 22.5694 24.9996C22.5852 25.007 22.6024 25.0109 22.6199 25.0109C22.6374 25.0109 22.6546 25.007 22.6704 24.9996C22.6861 24.9922 22.7 24.9814 22.7109 24.968L22.4707 25.2084ZM22.8456 25.6358L22.7837 25.5753L22.8456 25.4524V25.6358ZM22.9711 8.14341L22.8456 7.96534C22.9092 7.84246 22.9092 7.96534 22.9711 8.02588H23.033L22.9711 8.14341ZM22.9456 5.13749L23.195 5.01462L23.0694 5.19269L22.9456 5.13749ZM23.1276 25.082C23.0639 25.1425 23.1895 24.4089 23.1895 24.4089L23.3715 24.7152C23.2974 24.8401 23.2159 24.9608 23.1276 25.0767V25.082ZM23.1895 22.9451L23.3151 22.8222L23.3769 23.0003L23.1895 22.9451ZM23.4388 7.64836L23.5007 7.77124L23.6827 7.83178L23.5571 7.95465L23.3751 7.58782L23.4388 7.64836ZM23.5007 25.9902C23.3751 25.9296 23.4388 25.5628 23.4388 25.5628L23.6881 25.6839C23.6881 25.6839 23.6262 26.0543 23.5007 25.9902ZM23.6262 25.3794H23.5625L23.6262 25.2565L23.75 25.4346C23.6881 25.5664 23.6881 25.4435 23.6262 25.3829V25.3794ZM24.0011 24.9502L23.8191 25.0731L23.6936 24.895C23.7482 24.82 23.7905 24.7371 23.8191 24.6493C23.881 24.5887 24.0011 24.7721 24.0011 24.7721V24.9502ZM23.9374 22.5658C23.9374 22.5658 23.8756 22.2595 23.8756 22.1989C23.9374 22.1366 24.1249 22.32 24.1249 22.32V22.3824L24.063 22.5035L23.9374 22.5658ZM24.1886 23.1766L24.2504 23.2995L24.4324 23.36L24.3068 23.4829L24.1249 23.116L24.1886 23.1766ZM24.4379 25.3135L24.1886 25.4916L24.4379 24.8184V25.3135ZM24.376 24.457V24.2789L24.4379 24.3412H24.4997L24.376 24.457ZM24.4997 24.0296C24.5634 23.9067 24.5634 24.0296 24.6253 24.0901H24.6872L24.6253 24.213L24.4997 24.0296ZM25.0639 25.1301L24.8819 24.7632L24.9438 24.8238L25.0056 24.9467L25.1876 25.009L25.0639 25.1301ZM24.6872 24.457H25.1294L25.1913 24.5193L24.6872 24.457ZM25.3132 23.4793L25.2513 23.3012L25.4333 23.4793H25.3132ZM25.4952 22.9291L25.557 22.9896L25.6207 23.1125L25.8027 23.173L25.6771 23.2959L25.4952 22.9291ZM25.87 23.7856L25.8082 23.6075L25.9901 23.7856H25.87ZM25.9319 22.9896C25.9319 22.9896 25.9956 22.7456 25.9956 22.8115C26.0023 22.8579 26.024 22.901 26.0575 22.9344L26.1193 22.9949L25.9319 22.9896ZM25.9956 21.0308C26.0492 20.956 26.0909 20.8738 26.1193 20.7868C26.183 20.7245 26.3013 20.9079 26.3013 20.9079V21.086L26.1193 21.2088L25.9956 21.0308ZM26.2449 22.0102V21.9479L26.3068 21.8268L26.4323 21.7039C26.4323 21.7039 26.496 22.0102 26.496 22.0707C26.496 22.1313 26.2504 22.0191 26.2504 22.0191L26.2449 22.0102ZM26.7453 23.7215L26.8072 23.6004V23.6752L26.9328 23.7357L26.7453 23.7215ZM26.9273 21.3976L26.2394 20.42L26.1776 19.8679L26.3596 19.8074L27.0474 21.5881L26.9273 21.3976ZM27.0529 21.8873L27.1148 21.9479L27.1766 22.0707L27.3586 22.1313L27.2349 22.2542L27.0529 21.8873ZM27.4278 22.6815L27.3641 22.5604L27.5461 22.7385L27.4278 22.6815ZM27.4951 21.7164C27.4951 21.7164 27.557 21.4706 27.557 21.5383C27.5639 21.5844 27.5863 21.6271 27.6207 21.6594L27.6825 21.7217L27.4951 21.7164ZM27.8081 19.2091V19.3871H27.7444L27.8081 19.2091ZM27.8081 20.3701L27.9318 20.3096L27.9955 20.3701H27.8081ZM27.9901 15.5389L28.052 15.5995L28.1775 15.5389L28.052 15.6618L27.9901 15.5389Z" fill="#3D3D3D"/>
</svg>
