<svg width="900" height="77" viewBox="0 0 900 77" fill="none" xmlns="http://www.w3.org/2000/svg">
<rect width="900" height="77" fill="white"/>
<g clip-path="url(#clip0)">
<path d="M138.782 40.4127C138.782 38.0302 140.54 36.3678 143.73 36.3678C145.677 36.3678 147.269 36.9824 148.133 37.5853C148.257 37.6731 148.476 37.878 148.346 38.2702C148.174 38.6858 147.867 39.318 147.642 39.7278C147.511 39.9678 147.18 39.9327 147.008 39.8507C146.393 39.5405 145.387 39.0195 144.458 38.9258C144.221 38.9024 143.984 38.8907 143.753 38.8966C142.936 38.9141 142.256 39.1951 142.013 39.8097C141.966 39.9268 141.942 40.0497 141.936 40.1727C141.913 40.9863 143.055 41.279 144.44 41.5131C147.014 41.9463 148.956 42.6956 148.956 45.3122C148.956 47.5366 147.168 49.5444 143.67 49.4858C141.362 49.439 139.723 48.6663 138.847 47.9171C138.817 47.8936 138.486 47.5541 138.663 47.1502C138.871 46.6292 139.214 46.0322 139.486 45.7161C139.634 45.5112 140.036 45.4819 140.244 45.6049C140.966 46.0497 142.155 46.7639 143.528 46.8107C143.635 46.8166 143.741 46.8166 143.848 46.8107C145.085 46.7814 145.831 46.319 145.813 45.5405C145.801 44.8556 144.819 44.4517 143.262 44.159C140.782 43.6966 138.782 42.8888 138.782 40.4127ZM161.361 43.8078C159.609 43.8312 157.999 44.3053 157.958 45.6575C157.958 46.7346 158.839 47.2614 160.076 47.1912C161.266 47.08 162.171 46.5707 162.568 45.8917C162.716 45.64 162.74 44.7034 162.728 44.3053C162.728 44.2175 162.556 44.0595 162.479 44.0302C162.106 43.8722 161.828 43.8253 161.361 43.8078ZM155.525 38.3522C156.342 37.6263 157.969 36.4966 160.562 36.5551C163.977 36.6253 165.782 38.2117 165.953 41.999C166.024 43.5619 165.906 47.9229 165.882 49.0117C165.876 49.1697 165.823 49.2751 165.61 49.281C165.048 49.3044 163.746 49.2927 163.148 49.2868C162.846 49.2751 162.811 49.1229 162.805 48.9707C162.805 48.8712 162.793 48.5668 162.787 48.3268C162.781 48.198 162.663 48.198 162.627 48.2331C161.828 49.0819 160.514 49.4858 159.118 49.4858C156.993 49.4858 154.88 48.2507 154.886 45.8039C154.892 43.2985 156.685 42.0634 158.662 41.7707C159.922 41.5834 161.349 41.7473 162.426 42.1746C162.497 42.2039 162.633 42.1629 162.639 42.0634C162.645 41.7414 162.627 41.1385 162.568 40.8458C162.408 40.1141 161.793 39.5229 160.491 39.359C160.224 39.3239 159.952 39.318 159.686 39.3356C158.65 39.4175 157.407 40.2136 156.892 40.5122C156.774 40.5824 156.579 40.5297 156.519 40.4536C156.217 40.0673 155.46 38.9434 155.401 38.7678C155.336 38.5922 155.419 38.4458 155.525 38.3522ZM167.078 43.0117C167.06 39.5171 169.516 36.5727 173.511 36.5492C176.003 36.5317 177.814 37.6497 178.134 38.1766C178.199 38.2995 178.163 38.4049 178.122 38.5278C177.909 38.9668 177.376 39.8214 176.997 40.3014C176.837 40.5063 176.66 40.3307 176.459 40.1961C175.89 39.8214 174.813 39.3649 173.76 39.3649C171.836 39.3649 170.41 40.6702 170.422 43.0644C170.44 45.3649 171.807 46.6292 173.766 46.6761C174.79 46.6995 175.778 46.12 176.317 45.6458C176.482 45.4995 176.66 45.5756 176.849 45.7219C177.222 46.1024 177.761 46.6878 178.063 47.0917C178.258 47.3141 178.11 47.5366 178.039 47.6244C177.228 48.6371 175.666 49.4917 173.594 49.5034C169.25 49.5327 167.102 46.518 167.078 43.0117ZM187.781 49.3453C187.982 49.3278 190.154 49.0351 190.823 48.8829C190.988 48.8478 191.048 48.7073 190.953 48.5727C190.58 48.0224 189.604 46.4536 188.574 45.0488C187.633 43.7551 186.638 42.6253 186.313 42.1863C186.236 42.081 186.236 41.9756 186.325 41.8936C186.934 41.3024 189.497 38.8205 190.456 37.7961C190.829 37.398 190.604 37.2283 190.29 37.1346C189.68 36.9531 188.692 36.7307 188.13 36.6136C187.893 36.5668 187.609 36.5844 187.402 36.7892C186.443 37.679 183.508 40.5883 182.632 41.4605C182.472 41.6185 182.383 41.5834 182.383 41.361C182.377 39.681 182.342 32.4927 182.282 31.3102C182.276 31.1522 182.087 31.0351 181.981 31.0292C181.43 31 180.039 30.9941 179.489 31.0234C179.335 31.041 179.187 31.1931 179.175 31.3278C179.051 33.2185 179.228 47.0975 179.305 49.041C179.311 49.1814 179.418 49.2927 179.554 49.2985C180.098 49.3278 181.454 49.3278 182.087 49.3161C182.401 49.3161 182.436 49.0995 182.436 49.0995L182.484 45.3766C182.484 45.3766 182.513 45.2127 182.566 45.1541C182.791 44.9141 183.407 44.2644 183.667 44.0127C183.732 43.9541 183.827 43.9541 183.892 44.0419C184.206 44.4575 185.094 45.8097 185.922 47.0214C186.68 48.1336 187.39 49.1171 187.437 49.1873C187.55 49.3395 187.68 49.3512 187.781 49.3453ZM150.832 49.3336C151.021 49.3395 152.471 49.3395 153.116 49.3395C153.335 49.3453 153.448 49.1814 153.454 49.041C153.59 46.319 153.531 33.359 153.448 31.3102C153.442 31.1346 153.365 31.0644 153.241 31.0527C152.69 30.9824 151.122 30.9941 150.619 31.1288C150.518 31.1522 150.465 31.2283 150.459 31.3219C150.335 36.5961 150.417 48.76 150.447 48.9883C150.471 49.2107 150.595 49.3219 150.832 49.3336Z" fill="#BDBDBD"/>
<path d="M112.036 43.9191C111.143 43.925 110.385 43.3981 110.107 42.5786C110.095 42.5493 110.089 42.5142 110.077 42.485C109.775 41.4313 110.361 40.3308 111.421 39.9796L128.371 34.3659C128.572 34.3074 128.78 34.2781 128.993 34.2781C129.91 34.2723 130.685 34.8108 130.975 35.6479L130.999 35.7298C131.319 36.8245 130.525 37.802 129.584 38.1181C129.584 38.1181 129.413 38.1767 112.729 43.8079C112.504 43.8781 112.273 43.9191 112.036 43.9191Z" fill="#BDBDBD"/>
<path d="M114.865 52.1668C113.965 52.1727 113.208 51.6517 112.93 50.8439C112.918 50.8146 112.912 50.7795 112.9 50.7502C112.592 49.6849 113.178 48.5727 114.244 48.2215L131.194 42.5551C131.413 42.4849 131.638 42.4439 131.869 42.4439C132.774 42.438 133.567 42.9824 133.846 43.8019L133.869 43.8897C134.035 44.4576 133.934 45.0897 133.609 45.5932C133.366 45.9678 132.603 46.2956 132.603 46.2956L115.581 52.0439C115.35 52.12 115.108 52.161 114.865 52.1668Z" fill="#BDBDBD"/>
<path d="M128.974 52.2019C128.075 52.2078 127.27 51.6458 126.98 50.797L121.322 34.1785L121.292 34.0848C120.984 33.0253 121.576 31.919 122.63 31.5678C122.843 31.4975 123.062 31.4624 123.281 31.4565C123.606 31.4565 123.926 31.5268 124.222 31.6731C124.719 31.9131 125.098 32.3463 125.269 32.8614L130.927 49.48L130.945 49.5326C131.265 50.6331 130.673 51.7395 129.62 52.0907C129.412 52.1609 129.193 52.1961 128.974 52.2019Z" fill="#BDBDBD"/>
<path d="M120.565 54.9999C119.665 55.0058 118.86 54.4438 118.57 53.5951L112.918 36.9765C112.545 35.8995 113.131 34.7346 114.22 34.3658C114.22 34.3658 114.22 34.3658 114.226 34.3658C114.433 34.2956 114.652 34.2604 114.871 34.2604C115.771 34.2487 116.576 34.8165 116.866 35.6653L122.524 52.2838C122.891 53.3609 122.305 54.5258 121.222 54.8946H121.216C121.003 54.959 120.784 54.9999 120.565 54.9999Z" fill="#BDBDBD"/>
<path d="M126.187 48.4557L130.128 47.1211L128.838 43.3337L124.891 44.6508L126.187 48.4557Z" fill="#BDBDBD"/>
<path d="M117.789 51.2945L121.731 49.9599L120.429 46.1433L116.481 47.4662L117.789 51.2945Z" fill="#BDBDBD"/>
<path d="M123.376 40.2077L127.324 38.8731L126.051 35.1326L122.098 36.4438L123.376 40.2077Z" fill="#BDBDBD"/>
<path d="M114.978 43.0409L118.925 41.7063L117.635 37.9131L113.682 39.2243L114.978 43.0409Z" fill="#BDBDBD"/>
</g>
<g clip-path="url(#clip1)">
<path d="M273.381 48.8614C272.27 49.5698 270.513 49.8846 268.669 49.8846C262.824 49.8846 259.522 46.4792 259.522 41.0589C259.522 35.8169 262.824 32.1492 268.621 32.1492C270.35 32.1492 272.085 32.464 273.359 33.3403V35.6228C272.085 34.8357 270.681 34.4317 268.621 34.4317C264.451 34.4317 261.962 37.113 261.962 41.0589C261.962 45.0047 264.532 47.6336 268.756 47.6336C270.361 47.6493 271.944 47.2873 273.37 46.5841L273.381 48.8614Z" fill="#BDBDBD"/>
<path d="M275.084 43.0527C275.084 39.1225 277.464 36.2681 281.525 36.2681C285.586 36.2681 287.912 39.1225 287.912 43.0527C287.912 46.9828 285.554 49.9002 281.525 49.9002C277.491 49.9002 275.084 46.9828 275.084 43.0527ZM277.356 43.0527C277.356 45.5398 278.63 47.7961 281.525 47.7961C284.421 47.7961 285.641 45.5451 285.641 43.0527C285.641 40.5603 284.41 38.3617 281.525 38.3617C278.641 38.3617 277.361 40.5603 277.361 43.0527H277.356Z" fill="#BDBDBD"/>
<path d="M302.134 49.6274H299.808V41.7199C299.808 39.364 298.832 38.3145 296.614 38.3145C294.462 38.3145 292.96 39.6998 292.96 42.3496V49.6274H290.634V36.5305H292.96V38.6818C293.806 37.1654 295.454 36.2314 297.238 36.2681C300.35 36.2681 302.139 38.3513 302.139 41.9561L302.134 49.6274Z" fill="#BDBDBD"/>
<path d="M308.613 36.5305H312.105V38.6137H308.613V49.6275H306.341V38.6137H304.146V36.5305H306.341V35.0876C306.341 32.6529 307.751 31 310.647 31C311.178 30.9948 311.704 31.0682 312.213 31.2099V33.293C311.731 33.2038 311.243 33.1619 310.755 33.1619C309.324 33.1619 308.602 33.9752 308.602 35.1558L308.613 36.5305Z" fill="#BDBDBD"/>
<path d="M318.238 49.7061C316.015 49.7061 314.61 48.6829 314.61 46.2744V31.0576H316.936V46.0121C316.936 47.2032 317.75 47.6124 318.753 47.6124C318.98 47.6177 319.203 47.6072 319.431 47.5862V49.6064C319.04 49.6798 318.639 49.7166 318.238 49.7061Z" fill="#BDBDBD"/>
<path d="M321.404 36.5305H323.73V44.438C323.73 46.794 324.706 47.8434 326.924 47.8434C329.076 47.8434 330.578 46.4582 330.578 43.8083V36.5305H332.915V49.6275H330.589V47.4761C329.743 48.9925 328.095 49.9265 326.311 49.8898C323.199 49.8898 321.41 47.8067 321.41 44.2071L321.404 36.5305Z" fill="#BDBDBD"/>
<path d="M342.897 49.89C337.833 49.89 335.615 47.0617 335.615 43.0424C335.615 39.086 337.887 36.2578 342.002 36.2578C346.172 36.2578 347.847 39.0598 347.847 43.0424V44.0656H337.968C338.294 46.2904 339.785 47.7334 342.978 47.7334C344.383 47.7334 345.776 47.492 347.094 47.025V49.1081C345.988 49.6801 344.28 49.89 342.897 49.89ZM337.947 42.1504H345.5C345.364 39.7157 344.225 38.3252 341.899 38.3252C339.438 38.3095 338.191 39.8574 337.947 42.1346V42.1504V42.1504Z" fill="#BDBDBD"/>
<path d="M362.118 49.6274H359.792V41.7199C359.792 39.364 358.816 38.3145 356.599 38.3145C354.446 38.3145 352.944 39.6998 352.944 42.3496V49.6274H350.618V36.5305H352.944V38.6818C353.79 37.1654 355.438 36.2314 357.222 36.2681C360.334 36.2681 362.124 38.3513 362.124 41.9561L362.118 49.6274Z" fill="#BDBDBD"/>
<path d="M374.925 49.2864C374.111 49.7062 372.864 49.8793 371.623 49.8793C366.808 49.8793 364.547 47.0511 364.547 43.0318C364.547 39.0754 366.792 36.2472 371.623 36.2472C372.734 36.2105 373.835 36.4256 374.843 36.8768V38.96C373.889 38.5245 372.843 38.3093 371.785 38.3303C368.266 38.3303 366.835 40.4817 366.835 43.0213C366.835 45.5609 368.294 47.7385 371.84 47.7385C372.886 47.7647 373.927 47.6073 374.914 47.2662L374.925 49.2864Z" fill="#BDBDBD"/>
<path d="M384.05 49.89C378.986 49.89 376.769 47.0617 376.769 43.0424C376.769 39.086 379.04 36.2578 383.156 36.2578C387.325 36.2578 389.001 39.0598 389.001 43.0424V44.0656H379.122C379.447 46.2904 380.938 47.7334 384.132 47.7334C385.536 47.7334 386.929 47.492 388.247 47.025V49.1081C387.135 49.6801 385.428 49.89 384.05 49.89ZM379.095 42.1504H386.647C386.512 39.7157 385.373 38.3252 383.047 38.3252C380.586 38.3095 379.339 39.8574 379.095 42.1346V42.1504Z" fill="#BDBDBD"/>
<path d="M232.7 45.7446C232.499 46.0595 232.277 46.4268 232.087 46.7206C231.919 46.9987 232.006 47.3608 232.293 47.5287L236.295 49.9109C236.582 50.084 236.962 49.9948 237.14 49.7167C237.14 49.7115 237.146 49.7115 237.146 49.7062C237.309 49.4491 237.515 49.1133 237.737 48.7513C239.32 46.2221 240.914 46.5317 243.788 47.8592L247.751 49.6853C248.06 49.8269 248.424 49.701 248.57 49.4019C248.57 49.3967 248.576 49.3914 248.576 49.3862L250.479 45.2199C250.614 44.9208 250.479 44.5745 250.17 44.4381C249.335 44.055 247.67 43.2995 246.168 42.5963C240.784 40.0672 236.208 40.2299 232.7 45.7446Z" fill="#BDBDBD"/>
<path d="M250.63 36.2892C250.831 35.9743 251.053 35.607 251.243 35.3132C251.411 35.0351 251.324 34.673 251.037 34.5051L247.035 32.1229C246.753 31.9393 246.374 32.0127 246.179 32.2856C246.173 32.2961 246.162 32.3066 246.157 32.3223C245.994 32.5794 245.788 32.9152 245.566 33.2773C243.983 35.8064 242.389 35.4968 239.515 34.1693L235.573 32.3538C235.264 32.2121 234.896 32.338 234.749 32.6319C234.749 32.6371 234.744 32.6424 234.744 32.6476L232.841 36.8139C232.705 37.113 232.841 37.4593 233.15 37.5957C233.985 37.9788 235.649 38.7343 237.151 39.4375C242.546 41.9666 247.128 41.7987 250.63 36.2892Z" fill="#BDBDBD"/>
</g>
<g clip-path="url(#clip2)">
<path d="M453.208 31.3777H455.323V41.9919C455.323 44.8025 454.079 46.743 451.158 46.743C450.296 46.7569 449.434 46.622 448.619 46.3474V44.3139C449.316 44.5792 450.056 44.7141 450.805 44.7095C452.595 44.7095 453.212 43.6532 453.212 42.1315L453.208 31.3777Z" fill="#BDBDBD"/>
<path d="M459.181 30.5588C459.906 30.5076 460.542 31.0474 460.594 31.7686C460.598 31.8291 460.598 31.8943 460.594 31.9548C460.594 32.7226 459.963 33.3508 459.185 33.3508C458.408 33.3508 457.772 32.7272 457.772 31.9594C457.72 31.2428 458.267 30.6146 458.997 30.5634C459.053 30.5541 459.119 30.5541 459.181 30.5588ZM458.149 35.0213H460.17V46.636H458.149V35.0213Z" fill="#BDBDBD"/>
<path d="M463.228 35.0214H465.201V37.0642C465.884 35.6961 467.072 34.7189 469.366 34.8585V36.8082C466.78 36.543 465.201 37.3201 465.201 39.7817V46.6454H463.228V35.0214Z" fill="#BDBDBD"/>
<path d="M478.844 44.5468C478.09 46.0824 476.677 46.8689 474.868 46.8689C471.74 46.8689 470.162 44.2444 470.162 40.8288C470.162 37.5529 471.806 34.7888 475.099 34.7888C476.814 34.7888 478.133 35.5566 478.84 37.0643V35.0215H480.86V46.6362H478.84L478.844 44.5468ZM475.41 45.0122C477.224 45.0122 478.844 43.8721 478.844 41.2942V40.3542C478.844 37.7763 477.365 36.6362 475.636 36.6362C473.351 36.6362 472.178 38.1206 472.178 40.8195C472.188 43.6162 473.314 45.0122 475.41 45.0122Z" fill="#BDBDBD"/>
<path d="M492.835 46.8686C489.849 46.8686 488.459 46.287 487.258 45.682V43.5462C488.695 44.2907 490.904 44.8258 492.949 44.8258C495.276 44.8258 496.157 43.9184 496.157 42.569C496.157 41.2195 495.309 40.5029 492.369 39.8049C488.892 38.9673 487.338 37.7807 487.338 35.2725C487.338 32.8947 489.17 31.1404 492.77 31.1404C495.002 31.1404 496.439 31.6662 497.499 32.2525V34.3419C496.029 33.5415 494.366 33.1413 492.689 33.1785C490.668 33.1785 489.467 33.8765 489.467 35.2679C489.467 36.5196 490.456 37.1525 493.184 37.8226C496.453 38.6369 498.291 39.6699 498.291 42.42C498.272 45.0771 496.675 46.8686 492.835 46.8686Z" fill="#BDBDBD"/>
<path d="M500.057 40.8056C500.057 37.3202 502.125 34.7888 505.653 34.7888C509.182 34.7888 511.203 37.3202 511.203 40.8056C511.203 44.2909 509.153 46.8782 505.653 46.8782C502.153 46.8782 500.057 44.2909 500.057 40.8056ZM502.035 40.8056C502.035 43.0112 503.142 45.0122 505.658 45.0122C508.173 45.0122 509.233 43.0159 509.233 40.8056C509.233 38.5952 508.15 36.6595 505.658 36.6595C503.166 36.6595 502.045 38.5999 502.045 40.8056H502.035V40.8056Z" fill="#BDBDBD"/>
<path d="M516.356 35.0215H519.39V36.8689H516.356V46.6362H514.382V36.8689H512.47V35.0215H514.378V33.7558C514.378 31.5966 515.602 30.1308 518.118 30.1308C518.58 30.1262 519.037 30.1913 519.479 30.317V32.1644C519.06 32.0852 518.636 32.048 518.212 32.048C516.969 32.048 516.342 32.7693 516.342 33.8163L516.356 35.0215Z" fill="#BDBDBD"/>
<path d="M526.235 44.6864C526.663 44.6724 527.087 44.6213 527.502 44.5235V46.45C527.059 46.5757 526.597 46.6361 526.14 46.6361C523.625 46.6361 522.4 45.175 522.4 43.0112V36.8781H520.487V35.0307H522.395V32.5552H524.369V35.0168H527.497V36.8642H524.369V42.9647C524.378 43.9884 524.991 44.6864 526.235 44.6864Z" fill="#BDBDBD"/>
<path d="M528.072 35.0215H530.305L533.692 44.8726L537.122 35.0215H539.053L542.487 44.8726L545.875 35.0215H548.108L543.778 46.6362H541.192L539.171 41.015L538.102 37.4366L537.032 41.015L534.988 46.6362H532.402L528.072 35.0215Z" fill="#BDBDBD"/>
<path d="M557.35 44.5468C556.596 46.0824 555.183 46.8689 553.374 46.8689C550.246 46.8689 548.668 44.2444 548.668 40.8288C548.668 37.5529 550.312 34.7888 553.605 34.7888C555.32 34.7888 556.639 35.5566 557.345 37.0643V35.0215H559.366V46.6362H557.345L557.35 44.5468ZM553.916 45.0122C555.73 45.0122 557.35 43.8721 557.35 41.2942V40.3542C557.35 37.7763 555.871 36.6362 554.142 36.6362C551.871 36.6595 550.684 38.1346 550.684 40.8288C550.689 43.6162 551.824 45.0122 553.916 45.0122Z" fill="#BDBDBD"/>
<path d="M562.434 35.0214H564.407V37.0642C565.091 35.6961 566.278 34.7189 568.572 34.8585V36.8082C565.986 36.543 564.407 37.3201 564.407 39.7817V46.6454H562.434V35.0214Z" fill="#BDBDBD"/>
<path d="M575.699 46.8689C571.299 46.8689 569.372 44.3607 569.372 40.7963C569.372 37.2877 571.346 34.7795 574.921 34.7795C578.544 34.7795 580 37.2644 580 40.7963V41.7037H571.417C571.699 43.6767 572.995 44.9564 575.769 44.9564C576.99 44.9564 578.2 44.7423 579.345 44.3282V46.1755C578.379 46.6874 576.9 46.8689 575.699 46.8689ZM571.393 40.0052H577.951C577.833 37.8461 576.843 36.613 574.823 36.613C572.689 36.6036 571.605 37.9764 571.393 39.9913V40.0052Z" fill="#BDBDBD"/>
<path d="M443.353 38.4416L434.638 29.8329L433.794 29L427.232 35.4774L424.236 38.4416C423.925 38.7487 423.925 39.2513 424.236 39.5631L430.228 45.4821L433.794 49.0047L440.352 42.5272L440.456 42.4248L443.353 39.5631C443.664 39.2513 443.664 38.7487 443.353 38.4416ZM433.794 41.9595L430.803 39.0047L433.794 36.0498L436.786 39.0047L433.794 41.9595Z" fill="#BDBDBD"/>
<path d="M433.794 36.0451C431.835 34.1093 431.825 30.9729 433.771 29.0232L427.223 35.4913L430.789 39.0139L433.794 36.0451Z" fill="#BDBDBD"/>
<path d="M436.795 38.9907L433.794 41.9549C435.763 43.9 435.763 47.0503 433.794 48.9954L440.361 42.5086L436.795 38.9907Z" fill="#BDBDBD"/>
</g>
<g clip-path="url(#clip3)">
<path d="M636.596 31.7585C635.806 32.5328 635.027 33.2953 634.233 34.0697C634.112 33.9591 633.99 33.8485 633.873 33.7418C633.396 33.3111 632.875 32.9556 632.288 32.6988C631.842 32.5052 631.373 32.3867 630.891 32.3511C630.496 32.3234 630.097 32.2997 629.698 32.3155C628.473 32.3669 627.378 32.7817 626.427 33.568C625.499 34.3384 624.913 35.3261 624.631 36.4955C624.463 37.1948 624.427 37.902 624.494 38.6171C624.56 39.3559 624.748 40.0513 625.081 40.7111C625.574 41.683 626.306 42.4257 627.245 42.9591C627.894 43.3265 628.587 43.5557 629.33 43.6347C630.277 43.7413 631.208 43.686 632.116 43.37C632.816 43.129 633.443 42.7536 633.963 42.2163C634.542 41.6158 634.898 40.8928 635.121 40.0947C635.125 40.0829 635.121 40.071 635.117 40.0315C634.882 40.0197 634.644 40.0276 634.405 40.0276C634.159 40.0276 633.908 40.0276 633.662 40.0276C633.419 40.0276 633.18 40.0276 632.938 40.0276C632.691 40.0276 632.441 40.0276 632.194 40.0276C631.952 40.0276 631.713 40.0276 631.47 40.0276C631.224 40.0276 630.974 40.0276 630.727 40.0276C630.488 40.0276 630.246 40.0276 629.999 40.0276C629.999 39.0517 629.999 38.0996 629.999 37.1435C630.003 37.1395 630.007 37.1356 630.011 37.1316C630.015 37.1277 630.019 37.1198 630.027 37.1198C632.754 37.1158 635.485 37.1119 638.212 37.1119C638.259 37.1119 638.306 37.1158 638.381 37.1198C638.42 37.3647 638.474 37.6097 638.49 37.8546C638.517 38.2813 638.541 38.708 638.525 39.1307C638.463 40.6913 638.091 42.161 637.222 43.4766C636.581 44.4446 635.755 45.219 634.761 45.8076C633.932 46.2975 633.043 46.6373 632.1 46.819C631.604 46.9139 631.099 46.981 630.594 46.981C630.167 46.985 629.737 46.9968 629.311 46.9692C628.477 46.9139 627.663 46.744 626.881 46.4477C625.813 46.0447 624.838 45.4797 623.981 44.7212C623.281 44.1009 622.702 43.3818 622.228 42.5719C621.716 41.6948 621.344 40.7585 621.172 39.755C621.109 39.3915 621.078 39.0201 621.047 38.6487C621.008 38.3801 620.996 38.1035 621 37.8309C621.047 35.7449 621.696 33.8761 623.007 32.2602C623.778 31.3081 624.721 30.5693 625.813 30.0201C626.611 29.6171 627.44 29.3169 628.321 29.1628C628.677 29.0996 629.037 29.068 629.397 29.0363C629.686 29.0126 629.976 28.9968 630.265 29.0047C631.443 29.0363 632.593 29.2141 633.685 29.6922C634.789 30.1742 635.759 30.8498 636.596 31.7585Z" fill="#BDBDBD"/>
<path d="M655.261 32.4885C654.6 32.765 653.942 33.0416 653.269 33.3221C653.242 33.255 653.222 33.2036 653.199 33.1562C652.761 32.0855 651.99 31.4139 650.867 31.1768C650.151 31.0267 649.439 31.0543 648.746 31.323C648.183 31.5403 647.693 31.8761 647.353 32.3858C646.743 33.2984 646.915 34.5982 647.905 35.2738C648.433 35.6334 649.012 35.8941 649.603 36.1272C650.26 36.384 650.925 36.6171 651.587 36.87C652.401 37.1821 653.179 37.5653 653.891 38.0789C654.885 38.8019 655.496 39.7699 655.719 40.9788C655.82 41.5201 655.828 42.0653 655.773 42.6145C655.66 43.7286 655.214 44.6729 654.408 45.4393C653.758 46.0557 652.991 46.4665 652.138 46.7233C651.622 46.8774 651.094 46.9643 650.554 46.988C650.198 47.0039 649.842 47.0078 649.489 46.9762C648.856 46.9169 648.241 46.7708 647.658 46.51C645.843 45.6922 644.72 44.2778 644.148 42.3537C644.837 42.0653 645.518 41.7809 646.214 41.4924C646.25 41.5991 646.281 41.69 646.312 41.7808C646.574 42.5671 646.977 43.2664 647.584 43.8353C648.206 44.42 648.93 44.8151 649.783 44.8902C650.761 44.981 651.696 44.819 652.514 44.2146C653.109 43.776 653.469 43.1834 653.559 42.4485C653.684 41.4371 653.348 40.6035 652.553 39.9674C652.025 39.5407 651.415 39.2563 650.789 39.0113C649.986 38.6992 649.173 38.4029 648.366 38.0987C647.76 37.8695 647.177 37.6009 646.645 37.2176C646.011 36.7633 645.487 36.2102 645.15 35.4911C644.904 34.9657 644.778 34.4125 644.763 33.8357C644.747 33.3458 644.782 32.8638 644.923 32.3897C645.142 31.6549 645.549 31.0346 646.097 30.5091C646.899 29.7387 647.854 29.2804 648.942 29.1026C649.493 29.0118 650.049 28.9999 650.601 29.0473C652.041 29.1619 653.269 29.7506 654.271 30.8094C654.705 31.2677 655.026 31.801 655.237 32.4055C655.245 32.4213 655.249 32.445 655.261 32.4885Z" fill="#BDBDBD"/>
<path d="M690.875 42.8873C691.521 43.2033 692.155 43.5115 692.796 43.8276C692.773 43.8829 692.757 43.9303 692.734 43.9698C691.85 45.5185 690.543 46.4865 688.809 46.8579C688.14 47.0001 687.459 47.0159 686.775 46.9487C685.839 46.8579 684.971 46.5694 684.192 46.0282C683.038 45.2262 682.259 44.1397 681.856 42.7806C681.704 42.267 681.625 41.7376 681.59 41.2003C681.527 40.2046 681.637 39.2327 681.962 38.2885C682.216 37.5497 682.611 36.8899 683.128 36.3052C683.558 35.8192 684.047 35.4123 684.615 35.1002C685.182 34.7881 685.789 34.5984 686.426 34.5115C686.802 34.4601 687.182 34.4325 687.561 34.4483C688.758 34.4957 689.87 34.796 690.832 35.5545C691.658 36.2025 692.213 37.044 692.558 38.0317C692.753 38.5967 692.879 39.1774 692.929 39.774C692.957 40.1059 692.976 40.4417 692.992 40.7775C692.996 40.8842 692.976 40.9948 692.965 41.1252C691.427 41.1252 689.901 41.1252 688.375 41.1252C686.857 41.1252 685.335 41.1252 683.816 41.1252C683.746 42.3302 684.356 43.8355 685.851 44.598C686.771 45.0642 687.737 45.1313 688.715 44.8153C689.713 44.4992 690.363 43.7762 690.875 42.8873ZM690.683 39.296C690.691 39.2564 690.699 39.2367 690.695 39.2209C690.687 39.1616 690.68 39.1024 690.668 39.0392C690.476 37.8737 689.819 37.0874 688.739 36.6608C688.214 36.4553 687.663 36.4079 687.103 36.4316C686.677 36.4514 686.266 36.5383 685.882 36.7279C684.857 37.2336 684.27 38.0831 683.989 39.1774C683.981 39.209 683.989 39.2446 683.989 39.292C686.227 39.296 688.449 39.296 690.683 39.296Z" fill="#BDBDBD"/>
<path d="M665.809 34.8473C666.537 34.8473 667.241 34.8473 667.946 34.8473C667.981 34.9895 667.997 46.194 667.965 46.5852C667.836 46.6207 666.298 46.6365 665.927 46.601C665.923 46.5417 665.915 46.4785 665.915 46.4113C665.915 46.0084 665.915 45.6054 665.915 45.2063C665.915 45.1629 665.923 45.1194 665.911 45.0799C665.903 45.0444 665.88 44.989 665.856 44.9851C665.825 44.9811 665.79 45.0167 665.755 45.0404C665.747 45.0483 665.739 45.0602 665.735 45.0681C665.254 45.8227 664.569 46.3244 663.763 46.6642C663.282 46.8696 662.777 46.9803 662.253 46.9921C661.533 47.0119 660.832 46.9368 660.159 46.6681C659.087 46.2415 658.383 45.4592 657.995 44.3767C657.823 43.8986 657.725 43.4048 657.698 42.8991C657.682 42.5593 657.667 42.2195 657.667 41.8758C657.663 39.6159 657.667 37.3521 657.667 35.0922C657.667 35.0211 657.667 34.946 657.667 34.8789C657.796 34.8315 659.478 34.8156 659.823 34.8552C659.827 34.9263 659.831 35.0053 659.831 35.0804C659.831 37.3916 659.831 39.6989 659.831 42.0101C659.831 42.5079 659.897 42.9939 660.077 43.4601C660.324 44.1001 660.758 44.5466 661.396 44.7797C662.08 45.0286 662.785 45.0839 663.493 44.8982C664.158 44.7243 664.659 44.3056 665.062 43.7564C665.485 43.1796 665.727 42.5316 665.786 41.8165C665.802 41.6229 665.817 41.4293 665.817 41.2318C665.821 39.1853 665.817 37.1348 665.817 35.0883C665.809 35.0171 665.809 34.946 665.809 34.8473Z" fill="#BDBDBD"/>
<path d="M673.897 36.8383C673.897 36.1667 673.897 35.5148 673.897 34.8471C673.964 34.8431 674.03 34.8352 674.093 34.8352C674.617 34.8352 675.142 34.8352 675.67 34.8352C675.693 34.8352 675.717 34.8352 675.744 34.8352C675.944 34.8313 675.948 34.8313 675.948 34.6298C675.948 33.5749 675.948 32.5201 675.948 31.4652C675.948 31.3941 675.948 31.319 675.948 31.2518C676.089 31.2123 677.853 31.2005 678.112 31.236C678.112 32.4252 678.112 33.6144 678.112 34.8313C679.074 34.8352 680.013 34.8313 680.964 34.8352C680.964 35.5029 680.964 36.1509 680.964 36.8265C680.898 36.8304 680.827 36.8383 680.757 36.8383C679.955 36.8383 679.152 36.8383 678.346 36.8383C678.276 36.8383 678.205 36.8383 678.123 36.8383C678.119 36.9134 678.112 36.9647 678.112 37.0201C678.112 38.9994 678.112 40.9827 678.115 42.9621C678.115 43.2505 678.162 43.531 678.249 43.8036C678.417 44.3251 678.8 44.5978 679.309 44.7202C679.669 44.8071 680.013 44.7242 680.358 44.6136C680.42 44.5938 680.479 44.5661 680.561 44.5385C680.788 45.1864 681.011 45.8225 681.246 46.4823C681.16 46.5139 681.085 46.5455 681.007 46.5692C680.322 46.7747 679.618 46.8379 678.914 46.7865C678.127 46.7273 677.431 46.4309 676.859 45.866C676.406 45.4195 676.151 44.8704 676.034 44.254C675.975 43.9538 675.956 43.6496 675.96 43.3453C675.963 41.2672 675.96 39.1891 675.96 37.1109C675.96 37.0319 675.96 36.9529 675.96 36.866C675.78 36.8186 675.611 36.8462 675.447 36.8423C675.279 36.8383 675.11 36.8423 674.938 36.8423C674.77 36.8423 674.602 36.8423 674.43 36.8423C674.257 36.8383 674.089 36.8383 673.897 36.8383Z" fill="#BDBDBD"/>
<path d="M672.524 46.6049C671.808 46.6049 671.104 46.6049 670.403 46.6049C670.396 46.6009 670.392 46.597 670.388 46.593C670.384 46.5891 670.38 46.5851 670.38 46.5772C670.376 46.4982 670.372 46.4192 670.372 46.3402C670.372 42.5197 670.372 38.6993 670.372 34.8828C670.505 34.8353 672.184 34.8156 672.508 34.8551C672.544 34.9973 672.563 45.9688 672.524 46.6049Z" fill="#BDBDBD"/>
<path d="M671.436 32.2871C670.65 32.3226 669.906 31.647 669.906 30.7502C669.906 29.8375 670.661 29.1975 671.448 29.1975C672.27 29.1975 672.986 29.9126 672.978 30.762C672.974 31.572 672.285 32.3305 671.436 32.2871Z" fill="#BDBDBD"/>
</g>
<g clip-path="url(#clip4)">
<path d="M747.068 23C747.649 23 748.23 23 748.812 23C749.152 23.0518 749.492 23.0992 749.837 23.151C752.339 23.5305 754.618 24.4535 756.603 26.0364C759.442 28.2964 761.173 31.2249 761.763 34.8176C761.845 35.3222 761.922 35.8269 762.004 36.3315C762.004 36.8318 762.004 37.3278 762.004 37.8281C761.966 37.9834 761.914 38.1386 761.888 38.2982C761.776 38.9926 761.716 39.6956 761.548 40.3771C759.773 47.6186 752.516 52.3586 744.858 50.6463C739.405 49.4301 735.103 44.8583 734.241 39.3506C734.164 38.8417 734.082 38.337 734 37.8324C734 37.2113 734 36.586 734 35.9649C734.095 35.3999 734.168 34.8262 734.284 34.2656C735.581 28.0376 740.568 23.9834 745.745 23.2329C746.189 23.1682 746.628 23.0776 747.068 23ZM750.057 34.464C750.367 34.464 750.612 34.464 750.858 34.464C752.507 34.464 754.161 34.4769 755.811 34.4596C756.892 34.4467 757.68 33.7351 757.766 32.7388C757.87 31.5786 757.245 30.716 756.142 30.5132C755.94 30.4744 755.725 30.4831 755.518 30.4831C750.444 30.4831 745.371 30.4831 740.297 30.4831C740.206 30.4831 740.112 30.4874 740.021 30.5003C739.246 30.6168 738.682 31.0136 738.406 31.777C737.98 32.963 738.686 34.4726 740.357 34.464C742.028 34.4553 743.699 34.4596 745.375 34.464C745.595 34.464 745.818 34.4812 746.073 34.4898C746.073 34.8694 746.073 35.1756 746.073 35.4861C746.073 38.1429 746.064 40.8041 746.077 43.4609C746.081 45.2335 747.688 45.7813 748.859 45.3025C749.738 44.9445 750.061 44.2157 750.057 43.3056C750.048 40.6272 750.052 37.9489 750.052 35.2705C750.057 35.0246 750.057 34.7831 750.057 34.464Z" fill="#BDBDBD"/>
</g>
<defs>
<clipPath id="clip0">
<rect width="81" height="24" fill="white" transform="translate(110 31)"/>
</clipPath>
<clipPath id="clip1">
<rect width="157" height="19" fill="white" transform="translate(232 31)"/>
</clipPath>
<clipPath id="clip2">
<rect width="156" height="20" fill="white" transform="translate(424 29)"/>
</clipPath>
<clipPath id="clip3">
<rect width="72" height="18" fill="white" transform="translate(621 29)"/>
</clipPath>
<clipPath id="clip4">
<rect width="28" height="28" fill="white" transform="translate(734 23)"/>
</clipPath>
</defs>
</svg>
