<svg width="157" height="19" viewBox="0 0 157 19" fill="none" xmlns="http://www.w3.org/2000/svg">
<g clip-path="url(#clip0)">
<path d="M41.3811 17.8614C40.2696 18.5698 38.5129 18.8846 36.6694 18.8846C30.8245 18.8846 27.5225 15.4792 27.5225 10.0589C27.5225 4.81694 30.8245 1.14917 36.6206 1.14917C38.3502 1.14917 40.0853 1.464 41.3595 2.34028V4.6228C40.0853 3.83572 38.681 3.43169 36.6206 3.43169C32.4511 3.43169 29.9624 6.11299 29.9624 10.0589C29.9624 14.0047 32.5324 16.6336 36.7562 16.6336C38.3611 16.6493 39.9443 16.2873 41.3703 15.5841L41.3811 17.8614Z" fill="#BDBDBD"/>
<path d="M43.084 12.0527C43.084 8.12253 45.4643 5.26807 49.5253 5.26807C53.5864 5.26807 55.9125 8.12253 55.9125 12.0527C55.9125 15.9828 53.5539 18.9002 49.5253 18.9002C45.4914 18.9002 43.084 15.9828 43.084 12.0527ZM45.3558 12.0527C45.3558 14.5398 46.63 16.7961 49.5253 16.7961C52.4207 16.7961 53.6407 14.5451 53.6407 12.0527C53.6407 9.56025 52.4099 7.36169 49.5253 7.36169C46.6408 7.36169 45.3612 9.56025 45.3612 12.0527H45.3558Z" fill="#BDBDBD"/>
<path d="M70.1339 18.6274H67.8078V10.7199C67.8078 8.36396 66.8319 7.31453 64.6143 7.31453C62.4617 7.31453 60.9598 8.69978 60.9598 11.3496V18.6274H58.6338V5.53049H60.9598V7.68183C61.8057 6.1654 63.454 5.2314 65.2378 5.26813C68.3501 5.26813 70.1393 7.35126 70.1393 10.9561L70.1339 18.6274Z" fill="#BDBDBD"/>
<path d="M76.6133 5.53054H80.105V7.61366H76.6133V18.6275H74.3414V7.61366H72.1455V5.53054H74.3414V4.08756C74.3414 1.65288 75.7512 1.86079e-05 78.6465 1.86079e-05C79.1779 -0.00522856 79.7038 0.0682318 80.2135 0.209905V2.29303C79.7309 2.20383 79.2429 2.16185 78.755 2.16185C77.3235 2.16185 76.6024 2.97516 76.6024 4.15578L76.6133 5.53054Z" fill="#BDBDBD"/>
<path d="M86.2377 18.7061C84.0147 18.7061 82.6104 17.6829 82.6104 15.2744V0.0576172H84.9364V15.0121C84.9364 16.2032 85.7497 16.6124 86.7528 16.6124C86.9805 16.6177 87.2028 16.6072 87.4305 16.5862V18.6064C87.0401 18.6798 86.6389 18.7166 86.2377 18.7061Z" fill="#BDBDBD"/>
<path d="M89.4043 5.53052H91.7303V13.438C91.7303 15.794 92.7063 16.8434 94.9239 16.8434C97.0764 16.8434 98.5783 15.4582 98.5783 12.8083V5.53052H100.915V18.6275H98.5892V16.4761C97.7434 17.9925 96.0951 18.9265 94.3112 18.8898C91.199 18.8898 89.4097 16.8067 89.4097 13.2071L89.4043 5.53052Z" fill="#BDBDBD"/>
<path d="M110.897 18.89C105.833 18.89 103.615 16.0617 103.615 12.0424C103.615 8.08604 105.887 5.25781 110.002 5.25781C114.172 5.25781 115.847 8.0598 115.847 12.0424V13.0656H105.968C106.294 15.2904 107.785 16.7334 110.978 16.7334C112.383 16.7334 113.776 16.492 115.094 16.025V18.1081C113.988 18.6801 112.28 18.89 110.897 18.89ZM105.947 11.1504H113.5C113.364 8.7157 112.225 7.3252 109.899 7.3252C107.438 7.30946 106.191 8.85737 105.947 11.1346V11.1504Z" fill="#BDBDBD"/>
<path d="M130.118 18.6274H127.792V10.7199C127.792 8.36396 126.816 7.31453 124.599 7.31453C122.446 7.31453 120.944 8.69978 120.944 11.3496V18.6274H118.618V5.53049H120.944V7.68183C121.79 6.1654 123.438 5.2314 125.222 5.26813C128.334 5.26813 130.124 7.35126 130.124 10.9561L130.118 18.6274Z" fill="#BDBDBD"/>
<path d="M142.925 18.2864C142.111 18.7062 140.864 18.8793 139.623 18.8793C134.808 18.8793 132.547 16.0511 132.547 12.0318C132.547 8.07541 134.792 5.24719 139.623 5.24719C140.734 5.21046 141.835 5.42559 142.843 5.87685V7.95997C141.889 7.52446 140.843 7.30932 139.785 7.33031C136.266 7.33031 134.835 9.48165 134.835 12.0213C134.835 14.5609 136.294 16.7385 139.84 16.7385C140.886 16.7647 141.927 16.6073 142.914 16.2662L142.925 18.2864Z" fill="#BDBDBD"/>
<path d="M152.05 18.89C146.986 18.89 144.769 16.0617 144.769 12.0424C144.769 8.08604 147.04 5.25781 151.156 5.25781C155.325 5.25781 157.001 8.0598 157.001 12.0424V13.0656H147.122C147.447 15.2904 148.938 16.7334 152.132 16.7334C153.536 16.7334 154.929 16.492 156.247 16.025V18.1081C155.135 18.6801 153.428 18.89 152.05 18.89ZM147.095 11.1504H154.647C154.512 8.7157 153.373 7.3252 151.047 7.3252C148.586 7.30946 147.339 8.85737 147.095 11.1346V11.1504Z" fill="#BDBDBD"/>
<path d="M0.699844 14.7446C0.499229 15.0595 0.276926 15.4268 0.0871553 15.7206C-0.0809273 15.9987 0.00582502 16.3608 0.293192 16.5287L4.29464 18.9109C4.58201 19.084 4.96155 18.9948 5.14048 18.7167C5.14048 18.7115 5.1459 18.7115 5.1459 18.7062C5.30856 18.4491 5.5146 18.1133 5.7369 17.7513C7.32013 15.2221 8.9142 15.5317 11.7879 16.8592L15.7514 18.6853C16.0604 18.8269 16.4237 18.701 16.5701 18.4019C16.5701 18.3967 16.5755 18.3914 16.5755 18.3862L18.4786 14.2199C18.6142 13.9208 18.4786 13.5745 18.1696 13.4381C17.3346 13.055 15.67 12.2995 14.1681 11.5963C8.78407 9.0672 4.20789 9.22986 0.699844 14.7446Z" fill="#BDBDBD"/>
<path d="M18.6302 5.28917C18.8308 4.97434 19.0531 4.60703 19.2429 4.31319C19.411 4.03509 19.3242 3.67304 19.0369 3.50513L15.0354 1.12291C14.7535 0.939263 14.3739 1.01272 14.1787 1.28558C14.1733 1.29607 14.1625 1.30657 14.157 1.32231C13.9944 1.57942 13.7883 1.91524 13.566 2.27729C11.9828 4.80643 10.3887 4.49684 7.51506 3.16931L3.57325 1.35379C3.2642 1.21212 2.8955 1.33805 2.74911 1.63189C2.74911 1.63714 2.74368 1.64238 2.74368 1.64763L0.840556 5.81388C0.705005 6.11297 0.840556 6.45929 1.14961 6.59571C1.9846 6.97875 3.64916 7.73435 5.15106 8.43747C10.546 10.9666 15.1276 10.7987 18.6302 5.28917Z" fill="#BDBDBD"/>
</g>
<defs>
<clipPath id="clip0">
<rect width="157" height="19" fill="white"/>
</clipPath>
</defs>
</svg>
