<svg width="72" height="18" viewBox="0 0 72 18" fill="none" xmlns="http://www.w3.org/2000/svg">
<g clip-path="url(#clip0)">
<path d="M15.5963 2.75847C14.8059 3.53284 14.0272 4.29535 13.2329 5.06971C13.1116 4.95909 12.9903 4.84846 12.873 4.74179C12.3956 4.31115 11.8752 3.95557 11.2883 3.69877C10.8422 3.50518 10.3727 3.38665 9.89137 3.3511C9.49618 3.32344 9.09707 3.29974 8.69796 3.31554C7.47324 3.3669 6.37765 3.78174 5.42683 4.56795C4.49949 5.33837 3.91257 6.32607 3.63084 7.49552C3.46259 8.19482 3.42738 8.90202 3.49389 9.61712C3.56041 10.3559 3.74823 11.0513 4.08082 11.7111C4.57384 12.683 5.30553 13.4257 6.24461 13.9591C6.89414 14.3265 7.58672 14.5557 8.33015 14.6347C9.27706 14.7413 10.2083 14.686 11.1161 14.37C11.8165 14.129 12.4425 13.7536 12.9629 13.2163C13.542 12.6158 13.8981 11.8928 14.1211 11.0947C14.1251 11.0829 14.1211 11.071 14.1172 11.0315C13.8825 11.0197 13.6438 11.0276 13.4051 11.0276C13.1586 11.0276 12.9082 11.0276 12.6617 11.0276C12.4191 11.0276 12.1804 11.0276 11.9378 11.0276C11.6913 11.0276 11.4409 11.0276 11.1943 11.0276C10.9518 11.0276 10.7131 11.0276 10.4705 11.0276C10.224 11.0276 9.97354 11.0276 9.72703 11.0276C9.48835 11.0276 9.24576 11.0276 8.99925 11.0276C8.99925 10.0517 8.99925 9.09956 8.99925 8.14346C9.00316 8.13951 9.00707 8.13556 9.01099 8.13161C9.0149 8.12766 9.01881 8.11975 9.02664 8.11975C11.7539 8.1158 14.485 8.11185 17.2123 8.11185C17.2592 8.11185 17.3062 8.1158 17.3805 8.11975C17.4197 8.3647 17.4744 8.60966 17.4901 8.85461C17.5175 9.2813 17.541 9.70799 17.5253 10.1307C17.4627 11.6913 17.091 13.161 16.2223 14.4766C15.5806 15.4446 14.755 16.219 13.7612 16.8076C12.9316 17.2975 12.0434 17.6373 11.1004 17.819C10.6035 17.9139 10.0988 17.981 9.594 17.981C9.1675 17.985 8.73709 17.9968 8.31059 17.9692C7.47716 17.9139 6.66329 17.744 5.88072 17.4477C4.81252 17.0447 3.83822 16.4797 2.98131 15.7212C2.28092 15.1009 1.70182 14.3818 1.22836 13.5719C0.715784 12.6948 0.344065 11.7585 0.1719 10.755C0.109295 10.3915 0.0779923 10.0201 0.0466896 9.64873C0.0075613 9.38007 -0.00417719 9.10351 -0.000264358 8.8309C0.0466896 6.74486 0.69622 4.87612 2.00702 3.26023C2.77785 2.30808 3.72084 1.56927 4.81252 1.02011C5.61074 0.61712 6.44026 0.316857 7.32064 0.162774C7.67671 0.099561 8.03669 0.0679543 8.39667 0.0363477C8.68622 0.0126427 8.97577 -0.00316066 9.26532 0.004741C10.4431 0.0363477 11.5935 0.214135 12.6851 0.692186C13.7886 1.17419 14.7589 1.84978 15.5963 2.75847Z" fill="#BDBDBD"/>
<path d="M34.2609 3.48849C33.5996 3.76505 32.9423 4.04161 32.2693 4.32211C32.2419 4.25495 32.2223 4.20359 32.1988 4.15618C31.7606 3.0855 30.9898 2.41386 29.8668 2.17681C29.1507 2.02668 28.4386 2.05434 27.746 2.32299C27.1826 2.54029 26.6935 2.87611 26.353 3.38577C25.7426 4.29841 25.9148 5.59823 26.9048 6.27383C27.433 6.63335 28.0121 6.89411 28.6029 7.12721C29.2603 7.38401 29.9255 7.61711 30.5867 7.86996C31.4006 8.18208 32.1793 8.56531 32.8914 9.07892C33.8852 9.80192 34.4957 10.7699 34.7187 11.9788C34.8204 12.5201 34.8282 13.0653 34.7735 13.6145C34.66 14.7286 34.2139 15.6729 33.4079 16.4393C32.7584 17.0557 31.9914 17.4665 31.1384 17.7233C30.6219 17.8774 30.0937 17.9643 29.5537 17.988C29.1977 18.0039 28.8416 18.0078 28.4895 17.9762C27.8556 17.9169 27.2413 17.7708 26.6582 17.51C24.8427 16.6922 23.7197 15.2778 23.1484 13.3537C23.8371 13.0653 24.5179 12.7809 25.2144 12.4924C25.2496 12.5991 25.2809 12.69 25.3122 12.7808C25.5744 13.5671 25.9774 14.2664 26.5839 14.8353C27.206 15.42 27.9299 15.8151 28.7829 15.8902C29.7611 15.981 30.6963 15.819 31.5141 15.2146C32.1088 14.776 32.4688 14.1834 32.5588 13.4485C32.684 12.4371 32.3475 11.6035 31.5532 10.9674C31.025 10.5407 30.4146 10.2563 29.7885 10.0113C28.9864 9.6992 28.1725 9.40289 27.3665 9.09867C26.76 8.86952 26.177 8.60087 25.6448 8.21764C25.0109 7.76329 24.4866 7.21018 24.1501 6.49112C23.9036 5.96566 23.7784 5.41255 23.7628 4.83572C23.7471 4.34582 23.7823 3.86382 23.9232 3.38972C24.1423 2.65486 24.5492 2.03458 25.097 1.50912C25.8992 0.738709 26.8539 0.280412 27.9417 0.102625C28.4934 0.0117556 29.049 -9.69227e-05 29.6007 0.0473131C31.0406 0.161887 32.2692 0.750561 33.2709 1.80938C33.7053 2.26768 34.0261 2.80104 34.2374 3.40552C34.2452 3.42133 34.2491 3.44503 34.2609 3.48849Z" fill="#BDBDBD"/>
<path d="M69.8752 13.8873C70.5208 14.2033 71.1547 14.5115 71.7964 14.8276C71.7729 14.8829 71.7573 14.9303 71.7338 14.9698C70.8495 16.5185 69.5426 17.4865 67.8092 17.8579C67.1401 18.0001 66.4593 18.0159 65.7746 17.9487C64.8394 17.8579 63.9708 17.5694 63.1921 17.0282C62.0378 16.2262 61.2592 15.1397 60.8561 13.7806C60.7035 13.267 60.6253 12.7376 60.5901 12.2003C60.5275 11.2046 60.637 10.2327 60.9618 9.2885C61.2161 8.54969 61.6113 7.8899 62.1278 7.30518C62.5582 6.81922 63.0473 6.41229 63.6147 6.10017C64.182 5.78806 64.7885 5.59842 65.4263 5.5115C65.802 5.46014 66.1815 5.43248 66.561 5.44828C67.7584 5.49569 68.8696 5.79596 69.8322 6.55452C70.6578 7.20245 71.2134 8.04398 71.5577 9.03169C71.7534 9.59666 71.8786 10.1774 71.9295 10.774C71.9568 11.1059 71.9764 11.4417 71.9921 11.7775C71.996 11.8842 71.9764 11.9948 71.9647 12.1252C70.4269 12.1252 68.9009 12.1252 67.3749 12.1252C65.8567 12.1252 64.3346 12.1252 62.8165 12.1252C62.746 13.3302 63.3564 14.8355 64.8511 15.598C65.7707 16.0642 66.7371 16.1313 67.7153 15.8153C68.7131 15.4992 69.3626 14.7762 69.8752 13.8873ZM69.6835 10.296C69.6913 10.2564 69.6991 10.2367 69.6952 10.2209C69.6874 10.1616 69.6796 10.1024 69.6678 10.0392C69.4761 8.87366 68.8188 8.08744 67.7388 7.66075C67.2145 7.45531 66.6628 7.4079 66.1032 7.4316C65.6767 7.45136 65.2659 7.53828 64.8824 7.72792C63.8573 8.23362 63.2704 9.08305 62.9886 10.1774C62.9808 10.209 62.9886 10.2446 62.9886 10.292C65.2268 10.296 67.4493 10.296 69.6835 10.296Z" fill="#BDBDBD"/>
<path d="M44.8094 5.84725C45.5372 5.84725 46.2415 5.84725 46.9458 5.84725C46.981 5.98948 46.9967 17.194 46.9653 17.5852C46.8362 17.6207 45.2985 17.6365 44.9268 17.601C44.9229 17.5417 44.915 17.4785 44.915 17.4113C44.915 17.0084 44.915 16.6054 44.915 16.2063C44.915 16.1629 44.9229 16.1194 44.9111 16.0799C44.9033 16.0444 44.8798 15.989 44.8563 15.9851C44.825 15.9811 44.7898 16.0167 44.7546 16.0404C44.7468 16.0483 44.7389 16.0602 44.735 16.0681C44.2538 16.8227 43.569 17.3244 42.763 17.6642C42.2817 17.8696 41.7769 17.9803 41.2526 17.9921C40.5327 18.0119 39.8323 17.9368 39.1593 17.6681C38.0871 17.2415 37.3828 16.4592 36.9955 15.3767C36.8233 14.8986 36.7255 14.4048 36.6981 13.8991C36.6824 13.5593 36.6668 13.2195 36.6668 12.8758C36.6629 10.6159 36.6668 8.35208 36.6668 6.09221C36.6668 6.02109 36.6668 5.94603 36.6668 5.87886C36.7959 5.83145 38.4784 5.81565 38.8227 5.85516C38.8267 5.92627 38.8306 6.00529 38.8306 6.08035C38.8306 8.39159 38.8306 10.6989 38.8306 13.0101C38.8306 13.5079 38.8971 13.9939 39.0771 14.4601C39.3236 15.1001 39.7579 15.5466 40.3957 15.7797C41.0805 16.0286 41.7848 16.0839 42.493 15.8982C43.1582 15.7243 43.659 15.3056 44.062 14.7564C44.4846 14.1796 44.7272 13.5316 44.7859 12.8165C44.8016 12.6229 44.8172 12.4293 44.8172 12.2318C44.8211 10.1853 44.8172 8.13479 44.8172 6.08826C44.8094 6.01714 44.8094 5.94603 44.8094 5.84725Z" fill="#BDBDBD"/>
<path d="M52.8975 7.83831C52.8975 7.16667 52.8975 6.51479 52.8975 5.84709C52.964 5.84314 53.0305 5.83524 53.0931 5.83524C53.6174 5.83524 54.1417 5.83524 54.67 5.83524C54.6935 5.83524 54.7169 5.83524 54.7443 5.83524C54.9439 5.83129 54.9478 5.83129 54.9478 5.6298C54.9478 4.57493 54.9478 3.52005 54.9478 2.46518C54.9478 2.39407 54.9478 2.319 54.9478 2.25184C55.0886 2.21233 56.8533 2.20047 57.1116 2.23603C57.1116 3.42523 57.1116 4.61443 57.1116 5.83129C58.0741 5.83524 59.0132 5.83129 59.964 5.83524C59.964 6.50293 59.964 7.15087 59.964 7.82646C59.8975 7.83041 59.8271 7.83831 59.7567 7.83831C58.9545 7.83831 58.1524 7.83831 57.3463 7.83831C57.2759 7.83831 57.2055 7.83831 57.1233 7.83831C57.1194 7.91338 57.1116 7.96474 57.1116 8.02005C57.1116 9.99942 57.1116 11.9827 57.1155 13.9621C57.1155 14.2505 57.1624 14.531 57.2485 14.8036C57.4168 15.3251 57.8002 15.5978 58.3089 15.7202C58.6689 15.8071 59.0132 15.7242 59.3575 15.6136C59.4201 15.5938 59.4788 15.5661 59.561 15.5385C59.788 16.1864 60.011 16.8225 60.2458 17.4823C60.1597 17.5139 60.0853 17.5455 60.0071 17.5692C59.3223 17.7747 58.618 17.8379 57.9137 17.7865C57.1272 17.7273 56.4307 17.4309 55.8595 16.866C55.4056 16.4195 55.1512 15.8704 55.0339 15.254C54.9752 14.9538 54.9556 14.6496 54.9595 14.3453C54.9634 12.2672 54.9595 10.1891 54.9595 8.11092C54.9595 8.03191 54.9595 7.95289 54.9595 7.86597C54.7795 7.81856 54.6113 7.84622 54.4469 7.84227C54.2787 7.83832 54.1104 7.84227 53.9383 7.84227C53.77 7.84227 53.6018 7.84227 53.4296 7.84227C53.2574 7.83832 53.0892 7.83831 52.8975 7.83831Z" fill="#BDBDBD"/>
<path d="M51.5241 17.6049C50.8081 17.6049 50.1038 17.6049 49.4034 17.6049C49.3955 17.6009 49.3916 17.597 49.3877 17.593C49.3838 17.5891 49.3799 17.5851 49.3799 17.5772C49.376 17.4982 49.3721 17.4192 49.3721 17.3402C49.3721 13.5197 49.3721 9.69926 49.3721 5.88276C49.5051 5.83535 51.1837 5.81559 51.5085 5.8551C51.5437 5.99733 51.5632 16.9688 51.5241 17.6049Z" fill="#BDBDBD"/>
<path d="M50.4362 3.28706C49.6497 3.32262 48.9062 2.64703 48.9062 1.75019C48.9062 0.837545 49.6614 0.19751 50.4479 0.19751C51.2696 0.19751 51.9856 0.912611 51.9778 1.76204C51.9739 2.57196 51.2852 3.33052 50.4362 3.28706Z" fill="#BDBDBD"/>
</g>
<defs>
<clipPath id="clip0">
<rect width="72" height="18" fill="white"/>
</clipPath>
</defs>
</svg>
