<svg width="156" height="20" viewBox="0 0 156 20" fill="none" xmlns="http://www.w3.org/2000/svg">
<g clip-path="url(#clip0)">
<path d="M29.2075 2.37769H31.3227V12.9919C31.3227 15.8025 30.079 17.743 27.1583 17.743C26.2962 17.7569 25.4341 17.622 24.6191 17.3474V15.3139C25.3163 15.5792 26.056 15.7141 26.805 15.7095C28.5951 15.7095 29.2122 14.6532 29.2122 13.1315L29.2075 2.37769Z" fill="#BDBDBD"/>
<path d="M35.1805 1.55878C35.906 1.50759 36.5419 2.04738 36.5938 2.76864C36.5985 2.82914 36.5985 2.89428 36.5938 2.95478C36.5938 3.72258 35.9625 4.35078 35.1852 4.35078C34.4079 4.35078 33.772 3.72723 33.772 2.95943C33.7201 2.24282 34.2666 1.61462 34.9968 1.56343C35.0533 1.55413 35.1193 1.55413 35.1805 1.55878ZM34.1488 6.02132H36.1698V17.636H34.1488V6.02132Z" fill="#BDBDBD"/>
<path d="M39.2275 6.02135H41.2014V8.06416C41.8845 6.69608 43.0716 5.71889 45.3658 5.85849V7.80823C42.7795 7.54299 41.2014 8.32009 41.2014 10.7817V17.6454H39.2275V6.02135Z" fill="#BDBDBD"/>
<path d="M54.8442 15.5468C54.0905 17.0824 52.6772 17.8689 50.8683 17.8689C47.7402 17.8689 46.1621 15.2444 46.1621 11.8288C46.1621 8.55289 47.8062 5.78882 51.0991 5.78882C52.8138 5.78882 54.1329 6.55662 54.8395 8.0643V6.02148H56.8605V17.6362H54.8395L54.8442 15.5468ZM51.41 16.0122C53.2237 16.0122 54.8442 14.8721 54.8442 12.2942V11.3542C54.8442 8.77625 53.365 7.63619 51.6361 7.63619C49.3514 7.63619 48.1784 9.1206 48.1784 11.8195C48.1878 14.6162 49.3137 16.0122 51.41 16.0122Z" fill="#BDBDBD"/>
<path d="M68.8355 17.8686C65.8488 17.8686 64.4591 17.287 63.2578 16.682V14.5462C64.6946 15.2907 66.904 15.8258 68.9485 15.8258C71.2757 15.8258 72.1566 14.9184 72.1566 13.569C72.1566 12.2195 71.3087 11.5029 68.3691 10.8049C64.8925 9.96728 63.3379 8.78068 63.3379 6.27253C63.3379 3.89468 65.1704 2.14038 68.7695 2.14038C71.0025 2.14038 72.4393 2.66621 73.4992 3.25253V5.34187C72.0294 4.5415 70.3665 4.14131 68.6894 4.17854C66.6685 4.17854 65.4672 4.87654 65.4672 6.26788C65.4672 7.51963 66.4565 8.15248 69.1841 8.82256C72.4534 9.63689 74.2906 10.6699 74.2906 13.42C74.2718 16.0771 72.6748 17.8686 68.8355 17.8686Z" fill="#BDBDBD"/>
<path d="M76.0566 11.8056C76.0566 8.32023 78.1247 5.78882 81.6531 5.78882C85.1816 5.78882 87.2025 8.32023 87.2025 11.8056C87.2025 15.2909 85.1533 17.8782 81.6531 17.8782C78.153 17.8782 76.0566 15.2909 76.0566 11.8056ZM78.0352 11.8056C78.0352 14.0112 79.1423 16.0122 81.6578 16.0122C84.1734 16.0122 85.2334 14.0159 85.2334 11.8056C85.2334 9.59524 84.1499 7.65946 81.6578 7.65946C79.1658 7.65946 78.0446 9.59989 78.0446 11.8056H78.0352Z" fill="#BDBDBD"/>
<path d="M92.3562 6.02149H95.39V7.86887H92.3562V17.6362H90.3823V7.86887H88.4697V6.02149H90.3776V4.75579C90.3776 2.59665 91.6024 1.13085 94.118 1.13085C94.5797 1.12619 95.0366 1.19134 95.4795 1.31698V3.16435C95.0602 3.08525 94.6362 3.04802 94.2123 3.04802C92.9686 3.04802 92.342 3.76928 92.342 4.81628L92.3562 6.02149Z" fill="#BDBDBD"/>
<path d="M102.235 15.6864C102.663 15.6724 103.087 15.6213 103.502 15.5235V17.45C103.059 17.5757 102.597 17.6361 102.14 17.6361C99.6247 17.6361 98.3999 16.175 98.3999 14.0112V7.87812H96.4873V6.03075H98.3952V3.55518H100.369V6.01679H103.497V7.86416H100.369V13.9647C100.378 14.9884 100.991 15.6864 102.235 15.6864Z" fill="#BDBDBD"/>
<path d="M104.072 6.02148H106.305L109.692 15.8726L113.122 6.02148H115.053L118.487 15.8726L121.875 6.02148H124.108L119.778 17.6362H117.192L115.171 12.015L114.102 8.43656L113.032 12.015L110.988 17.6362H108.402L104.072 6.02148Z" fill="#BDBDBD"/>
<path d="M133.35 15.5468C132.596 17.0824 131.183 17.8689 129.374 17.8689C126.246 17.8689 124.668 15.2444 124.668 11.8288C124.668 8.55289 126.312 5.78882 129.605 5.78882C131.32 5.78882 132.639 6.55662 133.345 8.0643V6.02148H135.366V17.6362H133.345L133.35 15.5468ZM129.916 16.0122C131.73 16.0122 133.35 14.8721 133.35 12.2942V11.3542C133.35 8.77625 131.871 7.63619 130.142 7.63619C127.871 7.65946 126.684 9.13456 126.684 11.8288C126.689 14.6162 127.824 16.0122 129.916 16.0122Z" fill="#BDBDBD"/>
<path d="M138.434 6.02135H140.407V8.06416C141.091 6.69608 142.278 5.71889 144.572 5.85849V7.80823C141.986 7.54299 140.407 8.32009 140.407 10.7817V17.6454H138.434V6.02135Z" fill="#BDBDBD"/>
<path d="M151.699 17.8689C147.299 17.8689 145.372 15.3607 145.372 11.7963C145.372 8.28768 147.346 5.77954 150.921 5.77954C154.544 5.77954 156 8.26442 156 11.7963V12.7037H147.417C147.699 14.6767 148.995 15.9564 151.769 15.9564C152.99 15.9564 154.2 15.7423 155.345 15.3282V17.1755C154.379 17.6874 152.9 17.8689 151.699 17.8689ZM147.393 11.0052H153.951C153.833 8.84608 152.843 7.61295 150.823 7.61295C148.689 7.60365 147.605 8.97638 147.393 10.9913V11.0052Z" fill="#BDBDBD"/>
<path d="M19.3528 9.4416L10.6377 0.832946L9.79444 0L3.23222 6.47743L0.236117 9.4416C-0.0747994 9.74872 -0.0747994 10.2513 0.236117 10.5631L6.22833 16.4821L9.79444 20.0047L16.352 13.5272L16.4556 13.4248L19.3528 10.5631C19.6637 10.2513 19.6637 9.74872 19.3528 9.4416ZM9.79444 12.9595L6.80305 10.0047L9.79444 7.04979L12.7858 10.0047L9.79444 12.9595Z" fill="#BDBDBD"/>
<path d="M9.7943 7.04506C7.83458 5.10928 7.82516 1.97294 9.77075 0.0231934L3.22266 6.49132L6.78877 10.0139L9.7943 7.04506Z" fill="#BDBDBD"/>
<path d="M12.7948 9.99072L9.79395 12.9549C11.7631 14.9 11.7631 18.0503 9.79395 19.9954L16.3609 13.5086L12.7948 9.99072Z" fill="#BDBDBD"/>
</g>
<defs>
<clipPath id="clip0">
<rect width="156" height="20" fill="white"/>
</clipPath>
</defs>
</svg>
