<svg width="81" height="24" viewBox="0 0 81 24" fill="none" xmlns="http://www.w3.org/2000/svg">
<g clip-path="url(#clip0)">
<path d="M28.7817 9.41266C28.7817 7.03022 30.5395 5.36778 33.7296 5.36778C35.6767 5.36778 37.2688 5.98242 38.1329 6.58534C38.2572 6.67315 38.4762 6.87803 38.346 7.27022C38.1743 7.68583 37.8666 8.31803 37.6417 8.72778C37.5114 8.96778 37.18 8.93266 37.0084 8.85071C36.3929 8.54047 35.3867 8.01949 34.4575 7.92583C34.2208 7.90242 33.984 7.89071 33.7532 7.89656C32.9365 7.91412 32.2559 8.1951 32.0132 8.80973C31.9659 8.92681 31.9422 9.04973 31.9363 9.17266C31.9126 9.98632 33.0549 10.279 34.4398 10.5131C37.0143 10.9463 38.9556 11.6956 38.9556 14.3122C38.9556 16.5366 37.1682 18.5444 33.6704 18.4858C31.3622 18.439 29.7228 17.6663 28.8468 16.917C28.8172 16.8936 28.4858 16.5541 28.6634 16.1502C28.8705 15.6292 29.2138 15.0322 29.486 14.7161C29.634 14.5112 30.0364 14.4819 30.2436 14.6049C30.9656 15.0497 32.1552 15.7639 33.5283 15.8107C33.6349 15.8166 33.7414 15.8166 33.8479 15.8107C35.0849 15.7814 35.8306 15.319 35.8129 14.5405C35.801 13.8556 34.8186 13.4517 33.262 13.159C30.7822 12.6966 28.7817 11.8888 28.7817 9.41266ZM51.3606 12.8078C49.6088 12.8312 47.999 13.3053 47.9575 14.6575C47.9575 15.7346 48.8394 16.2614 50.0763 16.1912C51.2659 16.08 52.1715 15.5707 52.568 14.8917C52.716 14.64 52.7396 13.7034 52.7278 13.3053C52.7278 13.2175 52.5562 13.0595 52.4792 13.0302C52.1064 12.8722 51.8282 12.8253 51.3606 12.8078ZM45.525 7.35217C46.3418 6.62632 47.9694 5.49656 50.5616 5.5551C53.9766 5.62534 55.7817 7.21169 55.9534 10.999C56.0244 12.5619 55.906 16.9229 55.8823 18.0117C55.8764 18.1697 55.8232 18.2751 55.6101 18.281C55.0478 18.3044 53.7458 18.2927 53.148 18.2868C52.8462 18.2751 52.8107 18.1229 52.8047 17.9707C52.8047 17.8712 52.7929 17.5668 52.787 17.3268C52.7811 17.198 52.6627 17.198 52.6272 17.2331C51.8282 18.0819 50.5143 18.4858 49.1175 18.4858C46.9928 18.4858 44.8799 17.2507 44.8858 14.8039C44.8918 12.2985 46.6851 11.0634 48.6618 10.7707C49.9225 10.5834 51.3488 10.7473 52.426 11.1746C52.497 11.2039 52.6331 11.1629 52.639 11.0634C52.6449 10.7414 52.6272 10.1385 52.568 9.84583C52.4082 9.11412 51.7927 8.5229 50.4906 8.359C50.2243 8.32388 49.952 8.31803 49.6857 8.33559C48.65 8.41754 47.4071 9.21364 46.8922 9.51217C46.7738 9.58242 46.5785 9.52973 46.5193 9.45364C46.2175 9.06729 45.4599 7.94339 45.4008 7.76778C45.3356 7.59217 45.4185 7.44583 45.525 7.35217ZM57.0779 12.0117C57.0601 8.51705 59.5163 5.57266 63.5112 5.54925C66.0029 5.53168 67.8139 6.64973 68.1335 7.17656C68.1987 7.29949 68.1631 7.40486 68.1217 7.52778C67.9086 7.96681 67.376 8.82144 66.9972 9.30144C66.8374 9.50632 66.6598 9.33071 66.4586 9.19608C65.8904 8.82144 64.8133 8.36486 63.7598 8.36486C61.8363 8.36486 60.41 9.67022 60.4218 12.0644C60.4395 14.3649 61.8067 15.6292 63.7657 15.6761C64.7896 15.6995 65.778 15.12 66.3166 14.6458C66.4823 14.4995 66.6598 14.5756 66.8492 14.7219C67.2221 15.1024 67.7607 15.6878 68.0625 16.0917C68.2578 16.3141 68.1099 16.5366 68.0388 16.6244C67.228 17.6371 65.6655 18.4917 63.5941 18.5034C59.2499 18.5327 57.1015 15.518 57.0779 12.0117ZM77.7806 18.3453C77.9819 18.3278 80.1539 18.0351 80.8227 17.8829C80.9884 17.8478 81.0476 17.7073 80.9529 17.5727C80.5801 17.0224 79.6035 15.4536 78.5737 14.0488C77.6327 12.7551 76.6384 11.6253 76.3129 11.1863C76.2359 11.081 76.2359 10.9756 76.3247 10.8936C76.9343 10.3024 79.497 7.82047 80.4558 6.79608C80.8286 6.39803 80.6037 6.22827 80.2901 6.13461C79.6805 5.95315 78.6921 5.73071 78.1298 5.61364C77.8931 5.56681 77.609 5.58437 77.4018 5.78925C76.4431 6.679 73.5075 9.58827 72.6316 10.4605C72.4718 10.6185 72.383 10.5834 72.383 10.361C72.3771 8.68095 72.3416 1.49266 72.2824 0.310222C72.2765 0.152173 72.0871 0.0351002 71.9805 0.0292465C71.4301 -2.17832e-05 70.0393 -0.00587544 69.4889 0.0233928C69.335 0.0409538 69.187 0.193149 69.1752 0.327783C69.0509 2.21851 69.2285 16.0975 69.3054 18.041C69.3113 18.1814 69.4178 18.2927 69.554 18.2985C70.0985 18.3278 71.4538 18.3278 72.0871 18.3161C72.4008 18.3161 72.4363 18.0995 72.4363 18.0995L72.4836 14.3766C72.4836 14.3766 72.5132 14.2127 72.5665 14.1541C72.7914 13.9141 73.4069 13.2644 73.6673 13.0127C73.7324 12.9541 73.8271 12.9541 73.8922 13.0419C74.2059 13.4575 75.0936 14.8097 75.9222 16.0214C76.6798 17.1336 77.39 18.1171 77.4374 18.1873C77.5498 18.3395 77.68 18.3512 77.7806 18.3453ZM40.8317 18.3336C41.0211 18.3395 42.4711 18.3395 43.1162 18.3395C43.3352 18.3453 43.4477 18.1814 43.4536 18.041C43.5897 15.319 43.5305 2.359 43.4477 0.310222C43.4417 0.134612 43.3648 0.0643685 43.2405 0.0526611C42.6901 -0.0175828 41.1217 -0.00587544 40.6186 0.128759C40.518 0.152173 40.4648 0.228271 40.4588 0.321929C40.3346 5.59608 40.4174 17.76 40.447 17.9883C40.4707 18.2107 40.595 18.3219 40.8317 18.3336Z" fill="#BDBDBD"/>
<path d="M2.03619 12.9191C1.14251 12.925 0.384943 12.3981 0.106776 11.5786C0.0949389 11.5493 0.0890204 11.5142 0.0771835 11.485C-0.224658 10.4313 0.36127 9.33081 1.42067 8.97959L18.3711 3.36593C18.5724 3.30739 18.7795 3.27812 18.9926 3.27812C19.9099 3.27227 20.6852 3.81081 20.9753 4.64788L20.9989 4.72983C21.3185 5.82446 20.5254 6.80203 19.5844 7.11812C19.5844 7.11812 19.4128 7.17666 2.72865 12.8079C2.50375 12.8781 2.27293 12.9191 2.03619 12.9191Z" fill="#BDBDBD"/>
<path d="M4.86503 21.1668C3.96542 21.1727 3.20786 20.6517 2.92969 19.8439C2.91785 19.8146 2.91194 19.7795 2.9001 19.7502C2.59234 18.6849 3.17827 17.5727 4.24359 17.2215L21.1941 11.5551C21.413 11.4849 21.6379 11.4439 21.8688 11.4439C22.7743 11.438 23.5674 11.9824 23.8455 12.8019L23.8692 12.8897C24.0349 13.4576 23.9343 14.0897 23.6088 14.5932C23.3661 14.9678 22.6026 15.2956 22.6026 15.2956L5.58116 21.0439C5.35034 21.12 5.10768 21.161 4.86503 21.1668Z" fill="#BDBDBD"/>
<path d="M18.9744 21.2019C18.0748 21.2078 17.2699 20.6458 16.9799 19.797L11.3218 3.17849L11.2922 3.08484C10.9845 2.02532 11.5763 0.918982 12.6298 0.567763C12.8429 0.497519 13.0619 0.462397 13.2808 0.456543C13.6064 0.456543 13.926 0.526787 14.2219 0.673128C14.719 0.913128 15.0978 1.3463 15.2694 1.86142L20.9275 18.48L20.9452 18.5326C21.2648 19.6331 20.673 20.7395 19.6195 21.0907C19.4124 21.1609 19.1934 21.1961 18.9744 21.2019Z" fill="#BDBDBD"/>
<path d="M10.5647 23.9999C9.66506 24.0058 8.86015 23.4438 8.57015 22.5951L2.91802 5.97653C2.54516 4.89946 3.13109 3.73458 4.22008 3.3658C4.22008 3.3658 4.22008 3.3658 4.226 3.3658C4.43315 3.29555 4.65213 3.26043 4.87111 3.26043C5.77072 3.24872 6.57563 3.81653 6.86563 4.66531L12.5237 21.2838C12.8906 22.3609 12.3047 23.5258 11.2216 23.8946H11.2157C11.0026 23.959 10.7837 23.9999 10.5647 23.9999Z" fill="#BDBDBD"/>
<path d="M16.1868 17.4557L20.1285 16.1211L18.8382 12.3337L14.8906 13.6508L16.1868 17.4557Z" fill="#BDBDBD"/>
<path d="M7.78942 20.2945L11.7311 18.9599L10.4291 15.1433L6.48145 16.4662L7.78942 20.2945Z" fill="#BDBDBD"/>
<path d="M13.376 9.20769L17.3237 7.87306L16.0512 4.13257L12.0977 5.44379L13.376 9.20769Z" fill="#BDBDBD"/>
<path d="M4.97778 12.0409L8.92539 10.7063L7.63517 6.91309L3.68164 8.22431L4.97778 12.0409Z" fill="#BDBDBD"/>
</g>
<defs>
<clipPath id="clip0">
<rect width="81" height="24" fill="white"/>
</clipPath>
</defs>
</svg>
