<svg width="28" height="28" viewBox="0 0 28 28" fill="none" xmlns="http://www.w3.org/2000/svg">
<g clip-path="url(#clip0)">
<path d="M13.0675 0C13.649 0 14.2304 0 14.8119 0C15.1521 0.051756 15.4924 0.099199 15.8369 0.150955C18.3393 0.530499 20.6178 1.45348 22.6033 3.03635C25.4416 5.29637 27.1731 8.22489 27.7631 11.8176C27.8449 12.3222 27.9225 12.8269 28.0043 13.3315C28.0043 13.8318 28.0043 14.3278 28.0043 14.8281C27.9655 14.9834 27.9139 15.1386 27.888 15.2982C27.776 15.9926 27.7157 16.6956 27.5478 17.3771C25.7733 24.6186 18.5159 29.3586 10.858 27.6463C5.40532 26.4301 1.1026 21.8583 0.241194 16.3506C0.163667 15.8417 0.0818336 15.337 0 14.8324C0 14.2113 0 13.586 0 12.9649C0.0947547 12.3999 0.167974 11.8262 0.284264 11.2656C1.58068 5.03759 6.56822 0.983364 11.7453 0.232902C12.1889 0.168207 12.6282 0.077634 13.0675 0ZM16.0566 11.464C16.3667 11.464 16.6122 11.464 16.8577 11.464C18.5073 11.464 20.1612 11.4769 21.8108 11.4596C22.8919 11.4467 23.68 10.7351 23.7662 9.73876C23.8696 8.57856 23.245 7.71596 22.1424 7.51325C21.94 7.47443 21.7247 7.48306 21.5179 7.48306C16.4442 7.48306 11.3706 7.48306 6.29688 7.48306C6.20643 7.48306 6.11168 7.48737 6.02123 7.50031C5.24596 7.61676 4.68174 8.01356 4.40609 8.77696C3.9797 9.96303 4.68605 11.4726 6.35718 11.464C8.0283 11.4553 9.69943 11.4596 11.3749 11.464C11.5945 11.464 11.8185 11.4812 12.0726 11.4898C12.0726 11.8694 12.0726 12.1756 12.0726 12.4861C12.0726 15.1429 12.064 17.8041 12.0769 20.4609C12.0812 22.2335 13.6877 22.7813 14.8593 22.3025C15.7379 21.9445 16.0609 21.2157 16.0566 20.3056C16.048 17.6272 16.0523 14.9489 16.0523 12.2705C16.0566 12.0246 16.0566 11.7831 16.0566 11.464Z" fill="#BDBDBD"/>
</g>
<defs>
<clipPath id="clip0">
<rect width="28" height="28" fill="white"/>
</clipPath>
</defs>
</svg>
