<svg width="119" height="28" viewBox="0 0 119 28" fill="none" xmlns="http://www.w3.org/2000/svg">
<path d="M56.2609 17.1034L54.7268 21.2931C54.7268 21.4571 54.56 21.4571 54.56 21.4571H52.1755C52.0088 21.4571 52.0088 21.4571 52.0088 21.2931C53.3595 17.7675 55.4105 11.733 56.9445 7.7154C56.9445 7.55141 57.1113 7.21525 57.1113 6.37074C57.1113 6.20676 57.1113 6.20676 57.278 6.20676H60.5213C60.688 6.04278 60.688 6.20676 60.688 6.20676C62.3889 11.0688 64.4399 16.2671 66.1407 21.1292C66.1407 21.2931 66.1407 21.2931 65.974 21.2931H63.2476C63.0809 21.2931 63.0809 21.2931 63.0809 21.1292L61.5468 16.9394H56.2609V17.1034ZM61.0299 14.7502C60.5213 13.2416 59.329 10.0521 58.9872 8.37953C58.6454 9.88816 57.6199 12.5693 56.9445 14.7502H61.0299ZM67.6831 15.7587C67.6831 12.4053 70.2427 9.72418 74.3281 9.72418C74.8366 9.72418 75.3536 9.72418 75.6954 9.88816V4.8621C75.6954 4.69812 75.6954 4.69812 75.8621 4.69812H78.4217C78.5885 4.69812 78.5885 4.69812 78.5885 4.8621V18.612C78.5885 19.1122 78.5885 19.7845 78.5885 20.1207C78.5885 20.2846 78.5885 20.2846 78.4217 20.2846C76.8876 20.957 75.1785 21.4571 73.6444 21.4571C70.0676 21.6293 67.6831 19.7845 67.6831 15.7587ZM75.5203 12.2413C75.1785 12.0773 74.6699 12.0773 74.153 12.0773C71.9352 12.0773 70.5762 13.422 70.5762 15.7669C70.5762 18.448 72.1103 19.4565 73.9862 19.4565C74.4948 19.4565 75.1785 19.2926 75.6871 19.2926V12.2495H75.5203V12.2413ZM92.9122 15.5948C92.9122 19.2844 90.5277 21.6293 87.1177 21.6293C83.024 21.6293 81.3232 18.612 81.3232 15.7587C81.3232 12.2413 83.7077 9.88816 87.2927 9.88816C90.8695 9.72418 92.9122 12.4053 92.9122 15.5948ZM84.2162 15.5948C84.2162 17.9397 85.2417 19.4483 87.1177 19.4483C88.6517 19.4483 89.844 18.4398 89.844 15.5948C89.844 13.4138 88.9936 11.7412 86.9426 11.7412C85.4085 11.9051 84.2162 13.2416 84.2162 15.5948ZM98.023 4.8621C98.1898 4.8621 98.1898 4.8621 98.1898 5.02609V10.3883C99.0402 10.0521 99.8906 9.88816 100.749 9.88816C103.993 9.88816 106.035 12.2331 106.035 15.2504C106.035 19.2762 102.792 21.7851 99.0485 21.7851C97.8563 21.7851 96.664 21.6211 95.4718 21.2849C95.305 21.2849 95.305 21.121 95.305 21.121V5.02609C95.305 4.8621 95.305 4.8621 95.4718 4.8621H98.023ZM100.241 12.0691C99.5571 12.0691 98.8734 12.2331 98.3648 12.4053V19.2762C98.7067 19.4401 99.2153 19.4401 99.7322 19.4401C101.433 19.4401 103.484 18.0955 103.484 15.4144C103.309 13.2416 101.95 12.0691 100.241 12.0691ZM111.496 16.2589C111.496 18.1037 112.689 19.2762 115.073 19.2762C115.923 19.2762 116.949 19.1122 117.974 18.776C117.974 18.776 118.141 18.776 118.141 18.94V20.7848C118.141 20.9488 118.141 20.9488 117.974 21.121C117.124 21.6211 115.932 21.7933 114.398 21.7933C110.137 21.7933 108.428 18.94 108.428 15.9227C108.428 12.5693 110.471 9.88816 114.056 9.88816C117.641 9.88816 119 12.5693 119 14.7502C119 15.7587 118.833 16.2589 118.833 16.2589C118.491 16.2589 117.641 16.2589 116.274 16.2589H111.496ZM115.248 14.4223C116.099 14.4223 116.274 14.2583 116.274 14.2583C116.274 14.2583 116.274 14.0943 116.274 13.9221C116.274 13.2498 115.765 11.7412 113.889 11.7412C112.355 11.7412 111.505 12.9136 111.33 14.4223H115.248Z" fill="#C5CBCF"/>
<path d="M20.2849 0L32.2158 28V0H20.2849ZM0 0V28L11.9308 0H0ZM10.9137 22.3016H16.3664L18.7509 28H23.695L16.0245 10.2325L10.9137 22.3016Z" fill="#C5CBCF"/>
</svg>
