<svg width="22" height="33" viewBox="0 0 22 33" fill="none" xmlns="http://www.w3.org/2000/svg">
<g clip-path="url(#clip0)">
<path d="M5.50247 33C8.54019 33 11.0049 30.5352 11.0049 27.4975V22H5.50247C2.46475 22 0 24.4648 0 27.5025C0 30.5402 2.46475 33 5.50247 33Z" fill="#C5CBCF"/>
<path d="M0 16.5025C0 13.4648 2.46475 11 5.50247 11H11.0049V22H5.50247C2.46475 22 0 19.5352 0 16.5025Z" fill="#C5CBCF"/>
<path d="M0 5.50247C0 2.46475 2.46475 0 5.50247 0H11.0049V11H5.50247C2.46475 11 0 8.53525 0 5.50247Z" fill="#C5CBCF"/>
<path d="M11 0H16.5025C19.5402 0 22.0049 2.46475 22.0049 5.50247C22.0049 8.54019 19.5402 11.0049 16.5025 11.0049H11V0Z" fill="#C5CBCF"/>
<path d="M22.0001 16.5025C22.0001 19.5402 19.5353 22.0049 16.4976 22.0049C13.4599 22.0049 10.9951 19.5402 10.9951 16.5025C10.9951 13.4648 13.4599 11 16.4976 11C19.5353 11 22.0001 13.4648 22.0001 16.5025Z" fill="#C5CBCF"/>
</g>
<defs>
<clipPath id="clip0">
<rect width="22" height="33" fill="white"/>
</clipPath>
</defs>
</svg>
