<?xml version="1.0" standalone="no"?>
<!DOCTYPE svg PUBLIC "-//W3C//DTD SVG 20010904//EN"
 "http://www.w3.org/TR/2001/REC-SVG-20010904/DTD/svg10.dtd">
<svg version="1.0" xmlns="http://www.w3.org/2000/svg"
 width="1376.000000pt" height="1376.000000pt" viewBox="0 0 1376.000000 1376.000000"
 preserveAspectRatio="xMidYMid meet">
<metadata>
Created by potrace 1.11, written by Peter Selinger 2001-2013
</metadata>
<g transform="translate(0.000000,1376.000000) scale(0.100000,-0.100000)"
fill="#000000" stroke="none">
<path d="M2183 13744 c-109 -24 -180 -71 -214 -141 -48 -100 -48 -98 -49
-1115 l0 -958 2172 -1 c1195 0 2207 -2 2248 -4 87 -4 199 -12 285 -21 33 -3
78 -7 100 -9 22 -2 54 -6 70 -9 17 -2 53 -7 80 -11 28 -3 57 -8 65 -10 8 -3
33 -7 55 -10 22 -4 48 -8 57 -11 10 -3 30 -7 45 -10 41 -7 143 -28 161 -34 4
-1 12 -3 17 -5 6 -1 12 -3 15 -4 5 -3 22 -7 57 -15 40 -9 137 -38 203 -62 36
-13 84 -29 108 -36 23 -7 42 -16 42 -20 0 -5 8 -8 17 -8 26 0 358 -166 389
-195 6 -5 27 -19 47 -30 20 -11 37 -23 37 -27 0 -5 7 -8 15 -8 8 0 15 -4 15
-9 0 -5 9 -12 19 -16 10 -3 30 -16 42 -28 13 -13 49 -43 79 -67 99 -80 226
-213 319 -335 17 -22 35 -45 41 -52 5 -7 10 -16 10 -22 0 -5 3 -11 8 -13 8 -3
78 -115 102 -163 8 -16 17 -32 20 -35 27 -26 165 -378 185 -470 1 -8 9 -35 16
-60 6 -25 13 -52 14 -60 2 -8 8 -36 14 -63 6 -26 14 -64 17 -83 3 -20 8 -46
10 -58 2 -11 7 -41 10 -66 3 -25 8 -56 10 -70 6 -44 23 -341 25 -455 0 -5 -2
-75 -5 -155 -6 -148 -8 -179 -21 -285 -5 -33 -9 -69 -10 -80 -11 -118 -93
-458 -131 -543 -8 -18 -14 -36 -14 -41 0 -5 -8 -26 -17 -47 -9 -22 -18 -45
-19 -52 -4 -19 -147 -303 -159 -316 -6 -6 -22 -29 -35 -51 -24 -40 -118 -169
-155 -215 -76 -92 -298 -299 -375 -350 -12 -8 -28 -21 -36 -27 -7 -7 -16 -13
-20 -13 -4 0 -15 -6 -23 -14 -22 -20 -170 -109 -209 -127 -17 -7 -32 -17 -32
-21 0 -5 -3 -7 -7 -6 -5 1 -48 -18 -98 -42 -49 -24 -95 -43 -102 -43 -7 0 -13
-4 -13 -8 0 -3 -10 -9 -22 -12 -40 -8 -123 -42 -130 -52 -4 -5 -8 -7 -8 -3 0
4 -12 3 -27 -3 -16 -6 -35 -12 -43 -14 -8 -2 -62 -18 -120 -35 -58 -17 -116
-34 -130 -36 -14 -3 -53 -11 -86 -19 -129 -30 -302 -57 -509 -80 -27 -3 -84
-7 -125 -10 -41 -3 -90 -7 -108 -8 -18 -2 -35 0 -38 5 -3 5 -11 5 -17 1 -17
-11 -2 -11 -1679 -12 -871 -1 -1538 -5 -1538 -10 0 -5 -8 -11 -17 -15 -10 -3
-23 -8 -29 -11 -6 -3 -14 3 -17 14 -5 20 -12 21 -561 21 l-556 0 0 -2908 c0
-2641 2 -2914 16 -2963 38 -128 144 -219 304 -260 58 -15 155 -17 960 -18 557
0 911 3 938 9 156 36 251 144 259 294 2 39 5 849 6 1801 2 1678 3 1731 21
1765 38 71 85 103 168 115 26 4 384 9 795 10 411 2 800 6 863 9 253 12 344 17
374 21 17 2 71 7 120 10 83 6 142 11 211 20 17 2 55 6 85 9 175 19 172 19 345
46 39 7 86 14 105 16 19 2 73 11 120 20 47 9 96 17 110 19 14 2 25 4 25 5 0 2
29 8 70 15 31 5 145 29 180 38 26 7 115 28 138 32 126 26 649 186 673 206 7 6
16 9 20 7 5 -1 25 5 44 13 19 9 60 24 90 35 30 10 58 23 62 29 4 5 8 6 8 2 0
-4 10 -2 23 5 12 6 27 13 32 14 14 2 128 54 265 120 174 84 232 114 242 129 4
6 8 6 8 2 0 -5 12 1 26 12 15 12 30 21 35 21 20 0 377 229 422 271 11 10 27
19 34 19 7 0 13 3 13 8 0 4 16 18 35 31 32 22 61 44 95 73 8 7 39 33 70 58 31
25 72 60 90 77 19 18 39 33 43 33 5 0 5 5 2 10 -3 6 -1 10 6 10 19 0 285 272
332 340 9 13 17 21 17 16 0 -5 14 11 32 35 17 24 36 49 42 55 6 6 22 26 36 44
42 56 79 105 88 115 4 6 35 50 68 99 32 49 62 94 66 100 42 61 227 400 233
426 1 3 13 30 27 60 83 179 211 529 211 578 0 6 4 12 8 12 4 0 11 19 15 43 10
53 9 48 17 72 3 11 9 34 12 50 7 32 9 42 17 65 6 15 23 95 43 200 3 14 7 36
10 50 4 14 8 39 10 55 2 17 6 48 10 70 12 66 13 69 20 130 4 33 9 69 11 80 2
10 6 49 10 85 3 36 7 79 9 95 26 217 26 859 0 1110 -17 160 -24 218 -36 300
-19 127 -20 130 -36 220 -3 17 -6 40 -7 53 0 12 -4 22 -8 22 -3 0 -5 8 -3 18
1 9 -1 22 -5 27 -4 6 -8 17 -8 25 -1 17 -10 67 -18 92 -3 9 -7 26 -9 37 -3 12
-7 29 -10 39 -2 9 -11 44 -19 77 -8 33 -21 81 -29 105 -8 25 -29 90 -46 145
-18 55 -36 109 -41 120 -5 11 -17 45 -28 75 -11 30 -37 93 -57 140 -20 47 -37
90 -39 95 -5 22 -131 272 -177 353 -27 47 -49 89 -49 93 0 5 -5 9 -11 9 -5 0
-8 4 -5 9 3 5 -1 14 -9 21 -8 7 -15 19 -15 26 0 8 -4 14 -8 14 -5 0 -19 19
-32 43 -30 53 -63 101 -72 105 -5 2 -8 8 -8 12 0 12 -130 186 -227 301 -141
171 -302 334 -482 489 -35 30 -69 60 -75 65 -6 6 -38 30 -71 55 -33 25 -62 47
-65 50 -20 20 -91 70 -99 70 -6 0 -11 5 -11 10 0 6 -6 10 -14 10 -8 0 -16 4
-18 8 -3 9 -153 112 -163 112 -3 0 -11 5 -18 11 -17 15 -132 84 -187 111 -25
13 -47 26 -50 29 -17 19 -497 247 -535 253 -5 1 -15 5 -21 9 -34 21 -421 153
-579 197 -105 29 -304 80 -335 85 -19 3 -51 10 -70 15 -19 5 -47 12 -62 15
-16 3 -40 8 -55 11 -16 3 -36 6 -45 7 -10 1 -18 4 -18 7 0 3 -17 6 -38 7 -34
1 -87 9 -87 13 0 1 -9 3 -20 4 -11 2 -40 6 -65 10 -25 4 -56 9 -70 11 -59 9
-108 15 -153 20 -26 3 -60 7 -75 10 -15 2 -47 6 -72 9 -183 18 -196 20 -350
32 -47 3 -112 9 -145 11 -33 3 -1061 7 -2285 8 -1864 3 -2235 1 -2287 -11z
m756 -501 c25 -146 25 -144 -4 -133 -14 5 -25 7 -25 4 0 -20 -37 30 -61 81
-27 55 -27 60 -11 69 9 5 19 12 22 16 7 9 53 40 60 40 3 0 12 -35 19 -77z
m2827 23 c-1 -54 -6 -60 -40 -45 -17 8 -26 20 -26 36 0 13 4 22 9 18 6 -3 18
5 28 19 24 32 30 26 29 -28z m593 30 c21 -4 23 -19 10 -52 -7 -16 -14 -37 -16
-47 -3 -16 -44 -59 -50 -53 -1 1 -5 39 -9 85 l-6 84 28 -7 c16 -3 36 -8 43
-10z m-3784 -101 c4 -59 -2 -95 -16 -95 -5 0 -9 5 -9 10 0 8 -25 68 -46 111
-2 3 9 18 23 33 23 25 27 26 35 12 5 -10 11 -42 13 -71z m1711 33 c31 -10 31
-11 13 -29 -25 -25 -39 -24 -69 6 -61 59 -64 71 -12 49 20 -9 51 -21 68 -26z
m2706 3 c0 -14 2 -33 3 -41 2 -19 -14 -40 -29 -40 -16 0 -76 59 -76 75 0 14
69 44 88 37 6 -2 13 -16 14 -31z m-3589 -22 c-1 -52 -13 -64 -40 -40 -11 10
-38 28 -59 39 l-39 20 40 1 c48 0 72 5 81 14 15 14 19 6 17 -34z m2605 27 c12
-7 -10 -87 -34 -124 -21 -32 -36 -24 -40 23 -2 22 -6 57 -9 77 l-5 38 39 -4
c21 -2 44 -6 49 -10z m-1209 -15 c12 -12 16 -23 10 -32 -7 -11 -13 -9 -28 11
-11 13 -17 28 -15 32 7 12 12 10 33 -11z m-1223 -20 c-12 -19 -24 -12 -19 10
4 13 9 17 15 11 6 -6 7 -15 4 -21z m1036 4 c4 -5 2 -15 -4 -22 -9 -11 -13 -10
-24 4 -7 10 -14 21 -14 24 0 10 34 5 42 -6z m2833 3 c3 -3 -20 -21 -50 -42
-72 -48 -95 -68 -95 -83 0 -7 -4 -13 -8 -13 -5 0 -9 -6 -9 -12 -1 -19 -10 -60
-18 -79 -7 -18 -45 -15 -45 3 0 6 -7 8 -15 4 -8 -3 -15 -1 -15 4 0 5 -11 12
-25 16 -24 6 -25 9 -19 48 3 22 8 48 9 56 2 8 4 18 4 23 1 4 11 12 24 17 12 5
44 22 71 37 41 24 60 28 117 28 38 -1 71 -4 74 -7z m-2078 -41 l-25 -33 18
-52 c10 -29 15 -52 12 -52 -10 0 -126 119 -121 124 11 11 113 45 121 40 4 -3
8 0 8 7 0 7 3 9 6 6 4 -4 -5 -21 -19 -40z m-368 -11 c20 -22 21 -24 4 -23 -20
2 -33 15 -33 35 0 17 3 15 29 -12z m3094 -52 c19 -32 40 -51 67 -62 22 -10 42
-24 46 -32 13 -33 14 -60 2 -61 -13 -2 -98 2 -133 5 -11 1 -26 -2 -32 -7 -7
-5 -13 -7 -13 -3 0 4 -37 -30 -82 -74 -57 -55 -95 -83 -120 -90 -21 -6 -38
-15 -38 -20 0 -16 -40 -11 -47 6 -3 8 4 34 15 57 11 23 28 61 37 85 10 23 20
42 24 42 4 0 18 10 31 23 14 12 27 22 30 22 17 0 72 57 100 103 25 42 37 52
58 52 21 0 33 -10 55 -46z m-313 19 c0 -19 -28 -53 -44 -53 -7 0 -19 -8 -27
-17 -9 -10 -28 -28 -42 -40 -15 -13 -24 -30 -22 -40 3 -19 22 -93 31 -128 11
-42 11 -50 2 -62 -11 -13 -34 -7 -58 16 -31 30 -82 66 -106 74 -20 7 -30 4
-49 -18 -14 -14 -25 -30 -25 -34 0 -17 -48 -63 -59 -57 -11 7 -13 62 -2 81 3
6 6 15 7 20 10 46 13 61 14 65 2 3 2 8 2 11 -1 4 7 13 16 22 68 62 81 77 77
90 -5 10 25 22 121 48 151 41 164 43 164 22z m-1555 -15 c4 -21 9 -45 20 -108
16 -85 16 -90 1 -90 -8 0 -18 5 -21 10 -4 6 -10 8 -14 5 -14 -8 -39 18 -65 69
-29 55 -32 76 -13 76 7 0 26 14 42 30 34 36 43 37 50 8z m-2198 -22 c4 -4 7
-48 4 -75 0 -7 -19 9 -40 35 -22 27 -37 52 -35 56 4 6 62 -6 71 -16z m2444 -6
c4 -33 0 -59 -14 -91 l-14 -34 -27 43 c-14 23 -36 52 -47 63 -11 11 -18 23
-15 27 2 4 30 7 60 7 42 0 56 -4 57 -15z m-638 -115 c-6 -63 -6 -65 -12 -65
-3 0 -18 30 -33 68 l-26 67 27 28 26 28 11 -43 c6 -24 9 -61 7 -83z m2406 77
c1 -21 -32 -9 -35 13 -4 26 19 40 28 17 4 -9 7 -23 7 -30z m-1351 0 c4 -42
-10 -41 -31 3 -16 34 -16 35 6 31 16 -2 23 -11 25 -34z m-4127 6 c24 -11 50
-21 57 -21 17 0 15 -13 -5 -36 -14 -17 -18 -17 -30 -5 -8 8 -20 11 -26 7 -7
-3 -9 -3 -5 2 4 4 -4 16 -17 27 -14 11 -25 26 -25 34 0 18 -2 18 51 -8z m374
-8 c6 -20 -3 -67 -19 -98 l-13 -26 -26 40 c-14 21 -35 50 -46 64 -11 13 -18
27 -16 30 2 3 29 6 59 6 42 0 57 -4 61 -16z m1195 -3 c0 -13 -5 -17 -16 -13
-9 3 -20 6 -25 6 -5 0 -9 6 -9 13 0 7 11 13 25 13 18 0 25 -5 25 -19z m2251
-6 c13 -10 33 -21 45 -25 11 -3 21 -12 21 -19 0 -6 3 -38 7 -69 4 -32 5 -58 3
-58 -5 0 -77 118 -77 127 0 3 -9 18 -21 34 -23 33 -13 38 22 10z m-3029 -14
c2 -12 3 -28 0 -35 -5 -16 -22 -15 -22 2 0 7 -7 19 -15 26 -18 15 -11 30 14
30 11 0 20 -9 23 -23z m4860 9 c74 -13 90 -17 123 -36 30 -17 81 -60 71 -60
-2 0 5 -28 15 -61 14 -45 16 -65 9 -74 -16 -19 -134 -95 -148 -95 -7 0 -12 -4
-12 -10 0 -5 -7 -7 -16 -3 -12 4 -14 15 -10 47 3 22 8 77 11 122 l6 81 -53 2
c-47 1 -57 6 -95 43 -24 23 -43 45 -43 48 0 7 94 4 142 -4z m-5162 -35 c0 -3
14 -12 30 -19 17 -8 28 -18 24 -23 -3 -5 -2 -14 2 -21 4 -7 8 -28 9 -48 0 -19
4 -41 8 -47 5 -7 5 -13 2 -13 -12 0 -35 29 -35 44 0 9 -3 16 -8 16 -4 0 -18
21 -31 48 -44 84 -43 81 -21 75 11 -3 20 -8 20 -12z m3828 -13 c13 -1 32 -56
25 -75 -6 -16 -24 -7 -50 27 -36 44 -39 60 -11 54 12 -3 29 -6 36 -6z m-2533
-34 c29 -39 29 -63 -1 -70 -27 -7 -94 22 -94 40 0 12 51 55 65 56 6 0 19 -12
30 -26z m442 -3 c16 -8 74 -121 63 -121 -15 0 -160 122 -160 134 0 5 83 -5 97
-13z m-2422 -12 c12 -9 20 -79 10 -79 -11 0 -75 73 -75 85 0 13 47 9 65 -6z
m451 -26 c-2 -3 -10 -5 -18 -7 -7 -1 -18 -5 -25 -9 -6 -4 -14 -3 -18 3 -3 5
-2 10 4 10 6 0 13 11 17 25 l6 25 19 -21 c11 -12 17 -24 15 -26z m732 20 c6
-9 12 -32 12 -51 0 -37 -1 -36 -53 26 -15 19 -25 38 -22 42 8 13 48 2 63 -17z
m2305 -35 c-10 -18 -20 -6 -15 19 5 24 6 25 12 8 4 -11 6 -23 3 -27z m-2070
-11 c32 -14 33 -19 9 -40 -17 -15 -20 -15 -43 0 -33 23 -44 35 -58 60 -12 24
-12 24 92 -20z m4284 13 c1 -11 -2 -20 -8 -20 -5 0 -9 9 -9 20 0 11 4 20 8 20
4 0 8 -9 9 -20z m-4069 -1 c-12 -7 -24 -7 -35 0 -15 9 -12 10 17 10 29 0 32
-1 18 -10z m3917 -60 c20 -19 41 -33 46 -31 5 1 9 -2 9 -8 0 -5 -5 -10 -11
-10 -6 0 -24 -11 -41 -25 -40 -34 -49 -32 -42 9 3 19 -1 49 -9 68 -7 18 -11
42 -9 53 4 20 5 20 12 -1 5 -11 25 -36 45 -55z m-1262 12 c3 -12 -1 -22 -11
-26 -20 -7 -21 -5 -15 27 6 30 18 30 26 -1z m2016 -84 c52 -98 61 -134 39
-142 -7 -2 -24 -9 -38 -14 -53 -19 -112 -31 -122 -25 -9 6 23 70 59 120 13 17
20 34 17 37 -4 3 -8 30 -11 59 -2 29 -6 60 -9 68 -12 36 17 -11 65 -103z
m-4059 89 c0 -8 -7 -16 -15 -20 -10 -4 -15 1 -15 14 0 11 7 20 15 20 8 0 15
-6 15 -14z m331 2 c0 -7 3 -24 5 -38 l5 -24 -22 22 c-11 13 -18 30 -15 38 7
17 26 19 27 2z m3149 -3 c-7 -8 -16 -15 -20 -15 -4 0 -10 7 -14 15 -4 11 2 15
21 15 21 0 24 -2 13 -15z m-2894 -74 l7 -34 -51 28 c-29 16 -52 31 -52 34 1
14 16 29 35 33 27 6 53 -20 61 -61z m1109 23 c42 -45 51 -81 17 -66 -48 21
-92 47 -92 54 0 4 -7 8 -15 8 -8 0 -15 5 -15 10 0 6 -6 10 -14 10 -7 0 -19 7
-26 15 -11 13 -5 15 44 15 55 0 59 -2 101 -46z m629 0 c3 -8 1 -14 -5 -14 -19
0 -50 21 -44 30 7 12 43 1 49 -16z m580 -19 c-3 -7 -11 -16 -18 -18 -11 -4
-11 0 -2 18 11 24 29 25 20 0z m666 -20 c13 -8 15 -15 7 -33 -6 -12 -13 -22
-16 -22 -4 0 -17 -20 -31 -45 -14 -25 -28 -45 -32 -45 -5 0 -8 -7 -8 -15 0 -8
-4 -15 -9 -15 -5 0 -7 19 -5 43 3 23 6 71 9 107 2 36 4 66 4 68 1 2 33 -15 81
-43z m-4599 15 c5 0 9 -7 9 -15 0 -18 -5 -18 -31 -5 -23 13 -26 35 -3 26 9 -3
20 -6 25 -6z m1994 0 c-3 -5 -14 -10 -23 -9 -14 0 -13 2 3 9 27 11 27 11 20 0z
m-2798 -26 c7 -7 16 -14 20 -16 16 -7 54 -69 48 -78 -7 -11 -57 11 -87 38 -10
8 -18 11 -18 7 0 -5 -10 1 -22 12 -13 11 -34 27 -48 34 l-25 13 30 6 c39 7 86
0 102 -16z m1193 -11 c0 -8 -4 -12 -9 -9 -5 4 -11 1 -13 -5 -2 -6 -12 -10 -23
-8 -17 4 -18 5 -2 21 9 9 17 22 17 29 0 9 4 8 15 -1 8 -7 15 -19 15 -27z m580
-7 c14 -37 22 -104 12 -110 -8 -5 -132 74 -132 85 0 4 24 16 53 27 28 11 53
20 55 21 1 0 7 -10 12 -23z m1206 10 c19 -15 19 -15 -1 -29 -22 -17 -41 -12
-26 7 7 9 7 16 -1 24 -17 17 4 15 28 -2z m806 -83 c-5 -14 -40 0 -57 24 -5 7
-21 15 -34 18 -34 6 -46 21 -19 22 63 1 78 4 90 17 11 12 14 7 18 -28 3 -22 4
-47 2 -53z m172 48 c-6 -7 -64 -8 -64 -2 0 3 7 13 17 23 15 17 17 17 35 1 10
-9 15 -19 12 -22z m1294 -55 c22 -43 38 -85 35 -92 -6 -15 -58 -34 -113 -40
-35 -4 -40 -2 -40 15 0 11 16 32 36 47 l36 28 -7 70 c-7 84 -2 81 53 -28z
m-338 51 c8 -7 20 -22 27 -34 20 -36 -31 -86 -101 -100 -11 -2 -34 -11 -50
-20 -20 -10 -60 -17 -111 -18 -44 -1 -89 -6 -100 -11 -21 -10 -107 -65 -115
-75 -3 -3 -24 -16 -47 -29 -35 -19 -45 -21 -58 -10 -8 7 -13 22 -10 34 10 44
30 96 38 96 5 0 6 4 2 9 -9 16 17 26 70 27 28 1 59 2 70 3 12 0 50 22 85 47
38 28 78 48 99 51 20 3 47 12 61 21 68 43 96 45 140 9z m-2792 2 c-7 -5 -19
-9 -27 -9 -11 0 -11 3 -1 14 6 8 18 12 27 9 12 -5 12 -7 1 -14z m-1679 -39
c-1 -28 -5 -53 -9 -55 -4 -3 -18 6 -31 19 -13 12 -36 26 -51 30 -34 8 -37 22
-5 23 49 3 81 11 85 22 8 24 12 9 11 -39z m181 -2 c0 -4 -7 -8 -15 -8 -8 0
-15 5 -15 11 0 8 -5 7 -15 -1 -23 -19 -27 -7 -7 18 15 19 18 20 34 5 10 -9 18
-20 18 -25z m1858 12 c3 -9 -2 -11 -17 -7 -12 3 -21 0 -21 -6 0 -7 -4 -6 -10
3 -6 9 -5 17 2 21 16 10 41 4 46 -11z m2972 -37 c0 -21 11 -45 35 -73 39 -47
38 -56 -16 -111 l-30 -31 -49 48 -49 49 27 61 c39 88 62 120 73 103 5 -8 9
-28 9 -46z m-2010 13 c-17 -22 -32 -9 -19 16 8 14 14 17 22 9 7 -7 6 -15 -3
-25z m-3215 13 c4 -5 4 -21 1 -33 -7 -27 -52 -44 -69 -27 -6 6 -19 11 -30 11
-32 0 -13 24 34 42 53 20 56 21 64 7z m5969 -14 c-2 -35 -15 -89 -22 -95 -4
-3 -20 -24 -35 -47 -28 -44 -47 -55 -47 -28 0 8 -4 15 -9 15 -21 0 -22 44 -2
108 l20 68 48 -1 c41 0 48 -3 47 -20z m-1634 5 c13 -8 11 -13 -11 -35 l-26
-26 0 35 c0 37 10 43 37 26z m-3027 -20 c-3 -11 -7 -20 -9 -20 -2 0 -8 9 -14
20 -9 17 -8 20 9 20 14 0 18 -5 14 -20z m-1973 -17 c0 -20 -2 -21 -25 -11 -14
6 -25 16 -25 22 0 6 11 11 25 11 19 0 25 -5 25 -22z m1180 0 c0 -28 -4 -29
-30 -3 -26 26 -25 28 5 26 19 -1 25 -7 25 -23z m1919 -98 c10 -27 22 -57 25
-66 5 -12 -1 -15 -29 -16 -27 -1 -42 6 -65 30 -68 74 -70 77 -57 105 6 15 17
33 24 40 7 7 13 19 13 25 1 23 69 -68 89 -118z m149 97 c3 -19 1 -20 -27 -9
-43 16 -47 35 -8 32 24 -2 33 -8 35 -23z m1441 -12 c7 -12 2 -15 -29 -15 -39
0 -40 5 -12 38 16 18 18 17 41 -23z m1429 -3 c3 -22 -1 -27 -17 -27 -13 0 -21
6 -21 16 0 9 -8 22 -17 29 -14 11 -12 12 18 11 29 -1 34 -5 37 -29z m-4779
-45 c-10 -2 -28 -2 -40 0 l-20 3 21 23 21 23 19 -23 c18 -22 18 -23 -1 -26z
m4116 -7 c-1 -14 2 -25 7 -25 5 0 6 -4 3 -10 -3 -5 23 -24 60 -42 43 -22 65
-38 65 -50 0 -15 -4 -16 -26 -8 -15 6 -44 14 -66 19 -38 9 -39 8 -61 -30 -22
-40 -36 -47 -96 -52 -45 -3 -49 15 -12 49 17 15 31 37 31 50 0 12 11 35 24 51
13 16 26 40 27 53 7 49 50 43 44 -5z m-4945 25 c0 -5 -2 -10 -4 -10 -3 0 -8 5
-11 10 -3 6 -1 10 4 10 6 0 11 -4 11 -10z m544 -14 c9 3 16 2 16 -4 0 -6 3
-18 6 -27 6 -15 1 -14 -35 4 -23 12 -39 26 -35 32 4 7 10 6 19 -1 7 -6 20 -8
29 -4z m2366 -12 c0 -27 -14 -25 -29 4 -7 14 -5 18 10 19 14 1 19 -5 19 -23z
m3065 16 c8 -12 -26 -59 -42 -60 -7 0 -13 -3 -13 -7 0 -5 -16 -19 -36 -32 -19
-14 -44 -42 -55 -63 -11 -22 -34 -52 -52 -68 l-32 -29 19 -35 c10 -19 25 -37
32 -40 23 -9 17 -39 -6 -33 -11 3 -20 1 -20 -3 0 -5 -41 -7 -92 -5 -103 4 -84
14 -203 -102 -64 -64 -101 -79 -111 -45 -3 9 -10 27 -16 38 -6 12 -7 32 -2 45
4 13 9 31 10 39 3 16 28 37 101 86 29 19 57 43 63 53 14 26 13 68 -2 73 -6 2
-12 11 -14 19 -1 7 -3 21 -5 29 -3 12 6 15 41 15 25 0 70 10 100 22 31 11 73
24 94 27 22 4 78 24 125 46 92 42 106 46 116 30z m-5995 -9 c0 -10 -24 -21
-43 -21 -7 0 -3 7 7 15 22 17 36 19 36 6z m1598 -8 c-2 -10 -11 -19 -21 -21
-16 -3 -17 -1 -7 17 13 25 33 28 28 4z m2106 11 c25 -10 19 -21 -14 -26 -32
-5 -37 1 -18 20 14 14 12 14 32 6z m2553 -27 c-16 -24 -37 -34 -37 -18 0 17
32 51 42 45 5 -3 3 -15 -5 -27z m-4428 4 c11 -19 9 -86 -1 -97 -9 -8 -47 19
-54 38 -6 19 21 78 36 78 5 0 14 -8 19 -19z m1718 -14 c-34 -30 -37 -36 -37
-87 l-1 -55 -34 60 c-18 33 -38 65 -44 72 -28 31 -13 40 71 41 l82 1 -37 -32z
m-1126 -20 c-5 -5 -17 -5 -29 2 -10 6 -22 7 -26 3 -4 -3 -4 1 -1 10 4 9 14 19
23 21 21 4 46 -23 33 -36z m3943 24 c-10 -10 -21 -16 -24 -14 -3 3 4 11 14 19
28 20 33 17 10 -5z m-5191 -10 c4 -1 13 -1 20 -2 13 0 -21 -17 -39 -18 -7 -1
-14 8 -17 19 -4 16 -2 18 11 11 10 -5 20 -9 25 -10z m202 9 c3 -6 -4 -10 -17
-10 -18 0 -20 2 -8 10 19 12 18 12 25 0z m-1011 -6 c28 -11 17 -24 -19 -24
-31 0 -34 2 -23 15 15 16 20 17 42 9z m4340 -9 c4 -11 -2 -15 -22 -14 -17 1
-20 3 -9 6 9 2 17 9 17 14 0 14 7 11 14 -6z m-4884 -47 c0 -5 -16 -8 -35 -8
l-36 0 23 30 22 30 13 -22 c7 -13 12 -26 13 -30z m420 47 c0 -3 -17 -16 -39
-30 -35 -24 -38 -29 -32 -58 4 -18 5 -43 2 -56 l-6 -23 -15 28 c-8 16 -29 55
-47 87 l-32 57 85 0 c46 0 84 -2 84 -5z m6176 -48 c-22 -44 -24 -46 -40 -29
-21 24 -20 32 4 32 11 0 27 11 36 25 26 40 26 23 0 -28z m-4299 3 c11 -44 4
-56 -24 -42 -10 5 -38 13 -63 17 l-45 8 35 12 c19 7 38 11 42 8 4 -2 13 5 20
17 18 28 22 26 35 -20z m3179 -22 c-13 -79 -17 -86 -41 -67 -55 47 -56 51 -17
68 15 8 34 17 42 22 22 12 22 12 16 -23z m-4316 16 c0 -10 -44 -43 -57 -44 -7
0 -10 7 -7 15 4 8 10 13 14 10 5 -3 15 1 22 9 13 16 28 21 28 10z m2773 -24
c10 -17 15 -35 12 -40 -3 -6 0 -10 7 -11 9 0 10 -2 1 -5 -7 -3 -9 -12 -6 -20
9 -24 -11 -16 -53 21 -21 19 -42 35 -46 35 -5 0 -8 5 -8 11 0 7 10 9 24 7 18
-4 26 0 29 14 7 26 20 22 40 -12z m116 -9 c37 -36 40 -41 24 -49 -33 -17 -72
-22 -78 -11 -7 10 2 99 10 99 2 0 22 -18 44 -39z m2435 6 c32 -41 32 -51 4
-64 -57 -27 -59 -26 -52 25 4 26 7 53 7 60 1 21 15 13 41 -21z m-4394 -27 c0
-6 -18 -6 -64 -1 -5 1 2 10 15 22 22 19 24 19 36 3 7 -10 13 -21 13 -24z
m-1498 -8 c17 -28 20 -82 5 -82 -4 0 -30 18 -58 40 -50 40 -51 40 -21 40 17 0
32 6 36 15 8 22 20 18 38 -13z m118 -12 l40 -40 -28 -13 c-37 -18 -66 -16 -70
6 -4 21 6 87 13 87 3 0 23 -18 45 -40z m1814 20 c7 -7 -3 -10 -31 -10 -43 0
-67 15 -36 23 25 5 54 0 67 -13z m1690 -23 c4 -22 1 -28 -11 -25 -20 4 -36 55
-20 61 17 6 25 -4 31 -36z m-2323 2 c93 -50 79 -58 -66 -33 -22 3 -47 7 -55 9
-8 1 -24 6 -35 11 -17 7 -11 11 35 25 30 9 57 17 59 18 2 1 30 -13 62 -30z
m4407 5 c21 -14 21 -16 6 -39 -10 -15 -35 -30 -65 -39 -35 -11 -62 -29 -94
-63 -25 -26 -45 -51 -45 -55 0 -22 -20 -3 -34 32 -39 98 -8 158 91 176 15 3
29 7 30 8 8 8 91 -7 111 -20z m-1463 -11 c-1 -16 2 -41 6 -58 8 -28 7 -29 -6
-10 -8 11 -19 25 -25 32 -13 16 -13 36 2 51 19 19 25 14 23 -15z m-3285 2 c11
-13 10 -14 -4 -9 -9 3 -16 10 -16 15 0 13 6 11 20 -6z m1926 -7 c-3 -13 -6
-29 -6 -36 0 -7 -4 -11 -8 -8 -4 2 -14 1 -21 -3 -7 -5 -30 0 -53 11 l-41 20
39 18 c21 10 52 19 68 19 25 1 28 -2 22 -21z m2154 18 c0 -34 -93 -166 -117
-166 -7 0 2 46 25 126 11 38 14 40 52 42 22 2 40 1 40 -2z m-5940 -25 c0 -11
3 -26 6 -35 4 -10 1 -16 -9 -16 -19 0 -41 57 -24 64 22 8 27 6 27 -13z m1183
-13 c5 -39 5 -40 -16 -33 -15 6 -29 50 -19 60 14 14 30 2 35 -27z m467 12 c0
-5 -10 -10 -22 -10 -19 0 -20 2 -8 10 19 13 30 13 30 0z m3369 -52 c-25 -66
-28 -76 -30 -86 0 -4 -5 -13 -11 -19 -6 -7 -7 -13 -2 -13 5 0 5 -4 -1 -8 -5
-4 -25 -40 -44 -79 l-35 -73 -23 22 c-13 12 -23 27 -23 34 0 10 -18 23 -40 29
-30 8 -50 18 -50 25 0 8 24 20 37 19 3 -1 11 7 16 17 8 14 3 23 -24 45 -19 16
-37 29 -41 29 -5 0 -8 6 -8 14 0 13 56 46 79 46 13 0 52 -60 46 -71 -3 -4 1
-12 9 -18 13 -11 19 -6 125 107 17 17 32 32 35 32 2 0 -5 -24 -15 -52z m239
14 c42 -52 47 -80 22 -120 -16 -26 -25 -32 -48 -29 -27 4 -27 4 -28 83 -1 118
6 127 54 66z m-2164 13 c-4 -8 -11 -15 -16 -15 -6 0 -5 6 2 15 7 8 14 15 16
15 2 0 1 -7 -2 -15z m3901 -72 c-35 -68 -43 -93 -47 -145 -1 -16 -5 -28 -8
-28 -4 0 -21 33 -40 73 -18 39 -40 85 -47 100 l-14 28 47 -25 c26 -14 51 -23
55 -20 4 2 15 24 24 49 12 30 24 45 39 47 11 2 22 0 24 -3 2 -4 -13 -38 -33
-76z m-6865 37 c13 -25 13 -25 -8 -6 -12 10 -19 23 -16 28 7 11 7 11 24 -22z
m5513 -20 c5 -4 -12 -7 -36 -5 -44 2 -45 1 -34 -23 9 -20 8 -26 -8 -38 -44
-32 -51 -12 -30 86 2 8 4 18 4 22 1 7 90 -29 104 -42z m-2743 18 c0 -5 -9 -4
-20 2 -11 6 -20 12 -20 14 0 2 9 2 20 -1 11 -3 20 -9 20 -15z m2516 -3 c18
-13 18 -14 1 -15 -11 0 -24 -14 -33 -35 -17 -42 -23 -44 -17 -7 12 79 15 83
49 57z m292 -45 c0 -3 1 -7 2 -10 8 -22 7 -46 -5 -62 -17 -25 -21 -15 -23 50
-1 44 1 50 12 40 8 -7 14 -15 14 -18z m-5378 -8 c0 -5 -7 -9 -15 -9 -8 0 -15
4 -15 9 0 4 7 8 15 8 8 0 15 -4 15 -8z m199 -18 c-28 -15 -37 -10 -20 10 7 8
19 12 28 9 12 -5 11 -9 -8 -19z m4529 -9 c-3 -14 -1 -25 4 -25 5 0 5 -7 -1
-17 -5 -10 -6 -24 -1 -33 5 -9 5 -22 -1 -31 -7 -11 -9 -11 -9 4 0 10 -8 21
-17 24 -31 11 -32 25 -6 65 30 44 37 48 31 13z m-4168 -32 c0 -7 -6 -13 -12
-14 -7 0 -21 -2 -31 -4 -17 -3 -17 -2 -3 14 9 10 16 26 16 36 0 18 1 18 15 -1
8 -10 15 -25 15 -31z m4895 28 c-3 -6 5 -19 17 -31 l23 -21 -30 7 c-16 4 -31
8 -33 10 -5 3 17 44 24 44 3 0 3 -4 -1 -9z m779 -84 c-11 -6 -22 -1 -39 17
-13 14 -29 26 -35 26 -7 0 -7 6 1 21 11 21 12 20 50 -17 33 -32 36 -40 23 -47z
m578 -8 c-11 -4 -20 0 -24 10 -12 29 -8 32 16 14 21 -15 22 -19 8 -24z m-1652
4 c0 -8 5 -11 10 -8 11 7 14 -18 4 -28 -9 -8 -30 14 -38 41 -6 17 -4 21 8 16
9 -3 16 -13 16 -21z m666 13 c8 -8 14 -19 14 -24 0 -6 5 -12 12 -14 19 -7 1
-37 -29 -49 -15 -6 -30 -14 -33 -19 -6 -10 -66 -20 -74 -13 -3 3 0 11 7 19 7
7 28 36 47 64 19 27 36 50 38 50 2 0 10 -6 18 -14z m634 7 c0 -5 -7 -16 -15
-26 -10 -14 -18 -16 -31 -9 -15 9 -14 11 12 25 34 19 34 19 34 10z m-5787 -34
c17 -12 -1 -26 -33 -27 -28 -1 -30 1 -18 16 30 38 33 40 37 29 2 -7 8 -15 14
-18z m5627 12 c0 -11 -7 -27 -16 -35 -8 -9 -12 -16 -9 -16 4 0 -5 -20 -19 -44
-14 -24 -29 -62 -32 -83 -3 -21 -8 -45 -9 -53 -2 -8 -4 -17 -4 -20 -1 -3 -17
29 -36 70 -19 41 -41 87 -49 103 -18 33 -14 34 40 2 47 -27 50 -26 69 30 6 17
20 34 33 40 12 5 22 13 22 17 0 5 2 8 5 8 3 0 5 -9 5 -19z m-1459 -23 c13 -18
27 -34 31 -36 4 -2 8 -8 8 -14 0 -6 -11 -3 -25 6 -26 17 -50 21 -41 7 3 -4 0
-15 -7 -24 -9 -12 -20 -14 -45 -9 l-32 7 37 47 c21 26 41 47 45 48 4 0 17 -15
29 -32z m577 -37 c17 -27 28 -52 25 -55 -4 -3 -2 -6 3 -6 5 0 18 -13 27 -30
l18 -29 -38 15 c-21 8 -52 22 -70 30 -17 8 -33 14 -36 14 -3 0 -27 10 -54 22
-26 12 -51 21 -55 20 -3 -1 -12 5 -18 14 -11 12 -10 13 3 9 8 -4 18 -1 22 4 3
6 10 9 14 7 4 -3 30 3 57 13 27 11 54 20 61 20 6 1 25 -21 41 -48z m566 -13
c11 -13 34 -31 49 -41 35 -23 28 -32 -20 -28 -33 3 -41 -2 -80 -46 l-42 -48
15 50 c26 83 45 135 51 135 3 0 15 -10 27 -22z m-5810 -7 c3 -5 -1 -12 -10
-15 -22 -9 -24 -8 -24 9 0 16 25 21 34 6z m6238 -43 c0 -54 -3 -74 -9 -60 -2
6 -11 12 -20 12 -8 0 -13 3 -11 8 2 4 10 24 17 44 17 43 24 42 23 -4z m-6614
10 c3 -51 7 -73 15 -79 18 -13 -20 -15 -50 -2 -40 16 -42 38 -6 75 32 34 39
35 41 6z m309 6 c5 -15 -34 -11 -50 5 -10 10 -6 12 17 9 16 -2 31 -8 33 -14z
m7167 -39 c28 -18 38 -75 14 -75 -7 -1 10 -22 39 -48 71 -65 75 -87 23 -137
-23 -22 -44 -40 -48 -39 -4 0 -21 -5 -39 -13 -96 -40 -143 19 -128 161 17 157
60 203 139 151z m-2150 0 c3 -8 17 -20 32 -25 27 -10 28 -33 3 -38 -9 -1 -24
14 -36 38 -12 22 -18 40 -14 40 5 0 11 -7 15 -15z m531 5 c0 -1 11 -3 25 -5
40 -4 80 -23 80 -38 0 -7 8 -22 18 -33 32 -35 25 -48 -34 -65 l-56 -17 5 24
c2 13 1 24 -3 24 -3 0 -6 10 -6 22 1 16 -7 24 -29 31 -86 25 -101 31 -107 41
-10 16 20 25 67 21 22 -2 40 -4 40 -5z m1048 -38 l29 -37 -48 -3 c-60 -4 -69
6 -50 52 18 42 29 40 69 -12z m277 7 c0 -6 -4 -7 -10 -4 -5 3 -10 11 -10 16 0
6 5 7 10 4 6 -3 10 -11 10 -16z m43 -35 c21 -8 19 -37 -3 -42 -9 -1 -20 10
-27 28 -9 24 -9 30 0 26 7 -3 20 -9 30 -12z m-489 -36 c-1 -18 2 -45 7 -60 11
-39 5 -35 -24 16 -22 40 -23 46 -9 60 23 23 27 20 26 -16z m-5808 -14 c-11 -8
-29 -14 -40 -13 -16 0 -13 4 12 15 21 9 30 19 26 27 -5 8 -2 8 7 -1 12 -11 11
-15 -5 -28z m5408 -9 c59 -29 103 -61 95 -70 -4 -3 -15 -7 -25 -9 -11 -3 -30
-8 -44 -14 -14 -5 -35 -8 -47 -7 -28 2 -53 -19 -96 -83 -20 -29 -38 -48 -41
-43 -4 5 -2 12 3 15 9 6 37 105 33 119 -1 4 2 7 7 7 5 0 11 14 15 32 6 33 31
78 43 78 3 0 29 -11 57 -25z m-6495 -45 c26 0 32 -10 16 -26 -21 -22 -28 -17
-53 34 -22 45 -22 46 -2 20 12 -16 30 -28 39 -28z m5911 -8 c-17 -6 -42 7 -35
18 4 6 13 5 26 -3 10 -6 15 -13 9 -15z m-4750 -65 c0 -16 -35 -1 -38 16 -3 16
-1 17 17 5 12 -7 21 -17 21 -21z m6148 -4 c31 -3 63 -5 70 -6 16 -1 15 -1 -7
-45 -10 -20 -28 -66 -41 -102 -28 -80 -37 -91 -45 -54 -4 16 -10 38 -14 49
-31 79 -51 182 -33 171 7 -4 38 -10 70 -13z m-6538 -14 c0 -5 7 -9 15 -9 8 0
25 -10 36 -21 l21 -21 -43 -39 c-39 -34 -79 -53 -65 -31 2 4 1 14 -4 22 -5 8
-5 22 1 32 7 13 6 18 -3 19 -8 0 -9 2 -2 5 6 2 9 18 6 34 -4 25 -1 28 17 23
12 -3 21 -9 21 -14z m6215 1 c-3 -4 1 -10 7 -13 7 -2 10 -7 6 -11 -3 -4 -16
-2 -28 4 -17 9 -19 14 -10 26 13 14 34 9 25 -6z m-365 -33 c0 -5 8 -21 18 -35
10 -15 25 -43 32 -62 7 -19 18 -41 24 -48 26 -35 12 -68 -32 -77 -12 -2 -30
-9 -41 -15 -12 -6 -21 -8 -21 -6 0 3 -11 1 -25 -4 -17 -6 -25 -6 -25 1 0 6 -5
7 -11 4 -14 -9 12 51 44 102 17 26 24 50 22 69 -16 118 -16 119 0 98 8 -10 15
-23 15 -27z m-6430 -54 c0 -14 -1 -24 -3 -22 -1 2 -11 14 -21 27 -19 22 -19
22 2 22 17 0 22 -6 22 -27z m6555 1 c27 -25 27 -26 5 -22 -13 1 -27 13 -31 26
-11 28 -8 28 26 -4z m-6179 -18 c16 -16 19 -46 5 -46 -5 0 -13 9 -16 20 -3 11
-11 20 -16 20 -5 0 -9 5 -9 10 0 15 19 12 36 -4z m388 -8 c-16 -28 -27 -37
-36 -31 -6 3 -1 14 13 24 29 22 33 23 23 7z m5999 -52 c-4 -17 0 -25 12 -28
14 -3 14 -5 2 -23 -14 -18 -15 -17 -26 19 -10 38 -8 56 8 56 5 0 6 -11 4 -24z
m640 -45 c-3 -12 -11 -17 -19 -14 -17 6 -18 15 -2 31 15 15 27 6 21 -17z
m-457 -59 c-18 -16 -19 -16 -12 1 3 10 6 24 6 30 0 8 4 7 12 -1 10 -9 8 -16
-6 -30z m291 -32 c7 0 13 -7 13 -15 0 -8 -5 -15 -12 -15 -6 0 -9 -3 -5 -6 6
-7 -35 -44 -69 -62 -20 -10 -20 -9 -18 66 1 42 2 78 3 80 1 1 18 -9 38 -23 21
-14 43 -25 50 -25z m166 -78 c4 -2 7 -9 7 -16 0 -15 -80 -19 -97 -4 -10 8 -8
18 8 49 l20 40 27 -33 c15 -18 30 -34 35 -36z m-328 -29 c-9 -37 -11 -38 -30
-20 -16 17 -21 32 -6 23 5 -3 14 1 21 9 18 22 23 18 15 -12z m548 -53 c42 -23
41 -28 -13 -77 l-25 -23 -22 25 c-12 14 -27 24 -33 23 -5 -2 -20 13 -32 32
l-23 35 25 -18 c37 -26 41 -21 21 27 l-19 43 41 -23 c23 -13 59 -33 80 -44z
m-893 35 c6 -17 20 -27 39 -31 27 -6 28 -7 13 -25 -19 -22 -28 -24 -35 -6 -3
6 -12 29 -21 50 -9 20 -14 37 -11 37 3 0 10 -11 15 -25z m696 -47 c-1 -21 -4
-38 -8 -38 -3 0 -5 -11 -4 -24 3 -22 1 -23 -33 -14 -20 4 -48 11 -63 14 -16 4
-28 9 -28 13 0 3 25 22 55 41 30 19 54 38 55 41 0 3 6 6 13 6 9 0 13 -13 13
-39z m-501 -38 c3 -4 -1 -12 -8 -18 -9 -8 -15 -4 -23 12 -9 20 -8 23 8 18 10
-2 20 -8 23 -12z m-357 -8 c16 -14 18 -22 10 -30 -8 -8 -16 -5 -29 13 -31 39
-19 49 19 17z m474 -24 c53 -31 55 -38 12 -74 -21 -19 -42 -34 -46 -34 -5 0
-8 27 -8 60 0 63 5 69 42 48z m-223 -44 c-6 -7 -9 -20 -6 -28 5 -13 -26 -30
-37 -19 -8 8 36 73 45 67 6 -3 5 -11 -2 -20z m517 -29 l1 -53 -24 50 c-13 27
-23 51 -23 52 0 1 10 2 23 3 20 2 22 -2 23 -52z m184 -36 c0 -11 0 -22 -1 -25
0 -4 5 -11 13 -15 9 -6 3 -9 -18 -9 -28 0 -33 4 -41 38 -5 20 -8 43 -6 49 7
19 53 -15 53 -38z m165 -43 c0 -18 -5 -23 -19 -20 -34 6 -41 23 -15 33 34 14
34 14 34 -13z m-515 -32 c80 -26 83 -28 55 -36 -16 -4 -40 -9 -52 -10 -27 -3
-28 -9 -7 -64 12 -31 14 -50 7 -71 -10 -28 -10 -28 -36 30 -15 32 -27 65 -27
75 0 9 -9 28 -21 42 -11 14 -29 37 -40 52 l-19 27 27 -9 c16 -4 66 -21 113
-36z m210 -116 c27 -20 33 -12 -57 -78 l-41 -30 0 85 1 84 36 -22 c20 -12 48
-30 61 -39z m113 40 c-3 -13 -9 -27 -13 -33 -3 -5 -5 -20 -4 -32 1 -25 -18
-21 -53 10 -32 28 -29 35 20 57 55 24 56 24 50 -2z m119 -55 c4 -2 5 -14 2
-27 -2 -13 -6 -45 -8 -72 -3 -27 -5 -49 -6 -49 -1 0 -3 -9 -5 -19 -2 -11 -14
-33 -26 -49 -12 -16 -54 -77 -95 -136 -40 -58 -78 -112 -84 -119 -7 -7 -18
-25 -26 -40 -12 -23 -14 -24 -14 -6 0 11 4 24 8 30 8 8 45 100 47 114 0 3 6
15 13 27 6 12 14 30 16 40 2 10 9 34 17 53 7 19 12 38 11 43 -1 4 3 7 8 7 6 0
10 6 10 14 0 7 8 31 17 52 9 22 18 44 19 51 1 7 9 27 18 44 9 18 16 38 16 46
0 10 8 12 28 7 15 -4 30 -8 34 -11z m-602 -48 c0 -23 -66 -78 -97 -81 -31 -4
-31 -3 -31 41 0 49 2 50 80 50 28 0 48 -4 48 -10z m914 -45 c14 0 14 -3 -4
-22 -11 -12 -21 -20 -23 -17 -1 2 -13 26 -25 53 l-24 50 30 -32 c17 -18 37
-32 46 -32z m-234 27 c0 -2 -9 -12 -20 -22 -24 -21 -27 -14 -4 9 15 15 24 20
24 13z m-490 -155 c0 -9 -7 -11 -22 -7 -37 12 -41 22 -9 21 18 -1 31 -6 31
-14z m200 -13 c0 -11 -4 -18 -10 -14 -5 3 -7 12 -3 20 7 21 13 19 13 -6z
m-350 -8 c0 -6 -5 -13 -10 -16 -6 -4 -7 -12 -3 -18 4 -7 0 -6 -10 2 -23 18
-21 41 3 41 11 0 20 -4 20 -9z m600 -38 c49 -34 51 -38 32 -82 -20 -47 -29
-50 -59 -17 -32 33 -45 73 -33 97 13 23 28 24 60 2z m460 -51 c0 -6 -4 -13 -9
-16 -10 -7 -42 54 -34 66 5 10 43 -34 43 -50z m-167 -57 c-6 -18 -19 -19 -29
-4 -7 12 15 31 28 23 4 -3 5 -11 1 -19z m-818 -5 c22 -11 46 -20 55 -21 10 0
9 -3 -5 -8 -11 -5 -30 -7 -43 -6 -20 2 -22 -1 -16 -31 5 -27 3 -34 -9 -34 -8
0 -22 -3 -31 -6 -15 -6 -16 18 -1 94 2 9 4 20 4 25 1 10 2 10 46 -13z m395
-71 c0 -5 -7 -9 -15 -9 -8 0 -15 7 -15 15 0 9 6 12 15 9 8 -4 15 -10 15 -15z
m448 -12 c20 -13 14 -26 -20 -47 -35 -22 -118 -25 -118 -5 0 37 100 75 138 52z
m-226 -51 c14 -22 -5 -26 -23 -5 -10 12 -19 23 -19 25 0 7 35 -10 42 -20z
m-152 -77 c-22 -45 -40 -96 -40 -112 0 -15 -5 -37 -10 -48 -10 -18 -13 -18
-40 -4 -16 8 -37 15 -46 15 -11 0 -15 6 -11 20 3 11 2 20 -1 20 -5 0 -7 118
-3 138 1 2 16 -5 34 -15 64 -38 66 -37 89 17 14 34 27 50 42 52 11 2 22 3 24
2 1 -1 -16 -39 -38 -85z m-410 20 c0 -11 -4 -18 -10 -14 -5 3 -7 12 -3 20 7
21 13 19 13 -6z m900 -32 c0 -14 -6 -24 -15 -24 -18 0 -20 18 -3 35 16 16 18
15 18 -11z m-684 -107 c0 -8 -2 -19 -5 -25 -3 -5 -7 -19 -8 -29 -4 -24 -44
-96 -54 -96 -4 0 -9 -10 -12 -22 -6 -21 -7 -21 -34 8 -27 27 -30 46 -15 84 3
8 6 17 7 20 0 3 6 21 13 41 13 36 14 37 60 35 33 -1 47 -6 48 -16z m702 -48
c-3 -15 -82 -82 -97 -82 -4 0 -5 20 -3 44 4 42 5 44 45 53 48 11 59 8 55 -15z
m-299 -62 c-35 -42 -44 -47 -60 -37 -17 11 -17 13 3 49 16 28 28 38 52 40 17
2 34 2 39 0 4 -2 -11 -25 -34 -52z m-295 -7 c4 -5 11 -8 14 -8 4 0 22 -11 41
-24 l34 -25 -48 -42 c-26 -23 -52 -41 -59 -38 -13 5 -14 43 -2 62 4 7 4 12 -1
12 -6 0 -9 51 -4 68 2 5 18 2 25 -5z m-260 -181 c10 -13 20 -49 23 -90 5 -58
4 -65 -8 -55 -8 7 -25 38 -38 70 -12 32 -29 73 -37 91 -8 18 -14 37 -14 43 0
13 50 -27 74 -59z m376 6 c8 -13 13 -26 12 -30 -1 -3 5 -11 13 -18 12 -10 8
-21 -26 -71 -22 -32 -41 -59 -44 -59 -4 0 1 61 11 125 4 28 7 56 6 63 -4 20
12 14 28 -10z m447 -88 c31 -18 32 -21 21 -52 -29 -87 -69 -75 -73 22 -3 57 3
60 52 30z m-312 -100 c8 -13 -15 -13 -35 0 -12 8 -11 10 7 10 12 0 25 -4 28
-10z m-185 -162 c13 5 13 3 0 -14 -27 -34 -44 -43 -58 -32 -7 6 -10 13 -8 16
3 2 1 12 -3 21 -5 9 -11 31 -14 49 l-5 33 36 -39 c22 -23 43 -37 52 -34z
m-310 22 c3 -3 20 -16 38 -29 17 -12 32 -25 32 -29 0 -4 -20 -7 -44 -6 -40 1
-47 -2 -73 -37 -43 -59 -53 -53 -28 19 9 24 17 51 19 60 8 42 18 53 35 40 9
-7 18 -15 21 -18z m733 -31 c7 -11 5 -23 -8 -42 -22 -34 -55 -36 -55 -4 -1 12
-3 40 -6 61 l-6 39 32 -19 c18 -10 37 -26 43 -35z m-207 -169 c13 -36 28 -74
33 -85 5 -11 23 -58 41 -105 18 -47 41 -107 52 -135 11 -27 21 -54 23 -60 1
-5 9 -26 18 -45 8 -19 13 -37 11 -39 -2 -2 -5 -2 -7 0 -1 2 -11 18 -23 34 -73
105 -171 249 -179 265 -6 10 -17 25 -24 33 -7 9 -15 42 -17 74 -3 32 -6 70 -8
85 -4 29 16 50 43 45 7 -1 24 -31 37 -67z m327 40 c5 -21 -8 -26 -32 -11 -12
8 -12 12 -2 25 16 19 27 14 34 -14z m-209 -2 c19 -27 8 -48 -11 -22 -8 10 -19
18 -24 17 -10 -3 -12 10 -2 20 11 12 21 8 37 -15z m-273 -60 c6 1 5 -6 -1 -18
-11 -21 -11 -21 -31 4 -11 14 -17 31 -13 37 5 9 11 6 21 -7 8 -10 19 -18 24
-16z m496 0 c-3 -8 -6 -5 -6 6 -1 11 2 17 5 13 3 -3 4 -12 1 -19z m-756 -68
c21 0 22 -1 13 -24 -11 -28 -30 -17 -52 32 -22 46 -22 46 -1 20 11 -16 29 -28
40 -28z m625 3 c-7 -7 -26 7 -26 19 0 6 6 6 15 -2 9 -7 13 -15 11 -17z m-510
-25 c1 -13 4 -37 6 -55 6 -39 2 -44 -25 -33 -12 5 -30 11 -41 14 -15 5 -16 9
-6 21 7 8 9 15 6 15 -4 0 -1 7 6 15 7 8 19 21 26 30 18 21 27 19 28 -7z m694
-168 c0 -11 -2 -20 -4 -20 -2 0 -6 9 -9 20 -3 11 -1 20 4 20 5 0 9 -9 9 -20z
m-600 -5 c0 -9 -6 -12 -15 -9 -8 4 -15 10 -15 15 0 5 7 9 15 9 8 0 15 -7 15
-15z m500 -9 c0 -24 -2 -24 -31 -14 l-32 11 24 13 c34 19 39 17 39 -10z m-642
-61 c2 -2 -7 -28 -20 -57 -14 -29 -31 -69 -38 -88 -34 -86 -36 -86 -56 -18
-10 35 -18 65 -19 68 -1 3 -5 21 -9 40 -4 19 -10 43 -13 54 -5 17 0 18 73 11
44 -3 80 -8 82 -10z m390 -13 c9 9 12 8 12 -5 0 -20 -47 -20 -55 0 -3 10 0 11
14 4 12 -7 22 -6 29 1z m232 -108 c-18 -21 -24 -10 -8 15 7 12 14 17 16 11 2
-6 -2 -17 -8 -26z m-351 -28 c-3 -3 -14 -3 -26 0 -15 4 -19 11 -15 26 5 20 5
20 25 -1 12 -11 19 -23 16 -25z m503 -58 c-6 -6 -15 -8 -19 -4 -4 4 -1 11 7
16 19 12 27 3 12 -12z m-102 -67 c0 -12 -33 -9 -42 4 -4 5 -4 13 -2 17 6 10
44 -9 44 -21z m-570 -31 c0 -3 20 -5 45 -5 46 0 59 -10 28 -22 -30 -11 -107
-65 -125 -87 -21 -26 -30 -17 -34 31 -1 21 -5 50 -8 65 -5 27 -4 28 45 25 27
-1 49 -4 49 -7z m-160 -21 c0 -11 -4 -18 -10 -14 -5 3 -7 12 -3 20 7 21 13 19
13 -6z m378 -99 c23 -11 23 -12 5 -25 -16 -12 -20 -11 -35 8 -9 12 -16 24 -15
27 1 3 -5 16 -12 30 l-13 25 24 -27 c12 -14 33 -31 46 -38z m232 30 c6 -11 22
-23 35 -26 28 -7 31 -14 13 -32 -16 -16 -28 -15 -28 3 0 8 -4 15 -10 15 -5 0
-10 6 -10 14 0 8 -7 22 -16 30 -8 9 -11 16 -5 16 6 0 15 -9 21 -20z m-418
-119 c-4 -10 -11 -7 -28 14 -13 16 -20 33 -17 38 8 14 51 -36 45 -52z m336
-26 c26 -7 28 -18 7 -35 -18 -15 -17 -17 -44 40 -18 36 -19 41 -4 24 10 -12
28 -25 41 -29z m-689 -3 c-7 -11 -18 -18 -26 -15 -9 4 -6 10 10 23 27 22 33
19 16 -8z m141 -71 c0 -23 -16 -36 -25 -21 -4 6 -11 8 -16 5 -5 -4 -9 1 -9 9
0 13 13 20 43 25 4 0 7 -8 7 -18z m733 -39 c6 -29 3 -34 -21 -45 -15 -6 -33
-18 -41 -25 -7 -7 -16 -11 -18 -8 -5 5 27 67 39 76 4 3 10 17 12 30 2 14 5 27
6 30 2 11 18 -27 23 -58z m-416 27 c2 -16 -1 -19 -9 -11 -5 5 -7 15 -4 21 10
15 12 14 13 -10z m231 -88 c19 -23 15 -30 -20 -39 -29 -8 -35 -6 -51 17 -9 14
-16 40 -15 58 l2 31 35 -26 c20 -14 42 -33 49 -41z m-422 -81 c0 -21 -12 -25
-40 -14 -13 5 -14 9 -5 20 17 21 45 17 45 -6z m595 -124 c5 3 9 1 9 -5 0 -14
-18 -23 -30 -16 -5 3 -6 13 -3 22 4 11 8 13 11 5 2 -7 8 -10 13 -6z m-771 -56
c0 -5 -4 -10 -9 -10 -14 0 -41 42 -35 52 7 11 44 -25 44 -42z m559 37 c-2 -1
-12 -9 -22 -16 -15 -12 -17 -12 -11 3 3 9 13 16 22 16 8 0 13 -1 11 -3z m-195
-98 c-13 -15 -19 -17 -26 -7 -11 18 -10 30 1 23 6 -3 16 5 23 17 11 21 13 21
16 5 2 -10 -4 -27 -14 -38z m-32 -119 c101 -18 98 -16 92 -58 -3 -20 -9 -41
-14 -46 -8 -8 -72 21 -78 37 -7 14 -20 7 -25 -13 -8 -32 -22 -24 -45 28 -26
56 -28 76 -8 69 8 -3 43 -11 78 -17z m483 -240 c3 -5 -1 -10 -10 -10 -9 0 -13
5 -10 10 3 6 8 10 10 10 2 0 7 -4 10 -10z m-505 -42 c0 -18 -2 -20 -9 -8 -6 8
-7 18 -5 22 9 14 14 9 14 -14z m190 -32 c0 -2 -7 -3 -17 -2 -9 2 -18 13 -20
26 l-4 24 21 -21 c11 -12 20 -24 20 -27z m-530 4 c10 -10 15 -22 10 -25 -9 -6
-40 21 -40 36 0 14 8 11 30 -11z m394 -127 c27 -74 52 -135 68 -166 5 -10 6
-22 3 -27 -4 -6 -1 -10 4 -10 6 0 10 -3 9 -7 -1 -5 5 -21 12 -38 7 -16 14 -32
15 -35 7 -29 30 -88 38 -97 5 -7 7 -13 4 -13 -3 0 5 -26 19 -57 31 -70 23 -63
-46 42 -30 44 -57 82 -62 83 -4 2 -8 8 -8 14 0 6 -11 24 -25 42 -38 47 -39 48
-65 91 -14 22 -26 47 -26 55 -1 8 -5 45 -9 81 -6 59 -5 68 11 78 32 18 41 13
58 -36z m-219 5 c-2 -27 -18 -33 -35 -13 -10 12 -10 15 4 15 10 0 14 5 11 10
-3 6 0 10 8 10 8 0 13 -9 12 -22z m365 -17 c0 -5 -9 -19 -20 -32 -17 -21 -21
-22 -30 -9 -7 11 -5 16 5 18 8 2 15 10 15 18 0 8 7 14 15 14 8 0 15 -4 15 -9z
m-230 -43 c0 -5 -9 -4 -20 2 -11 6 -18 15 -14 21 6 11 34 -7 34 -23z m580 -66
c0 -5 -7 -9 -15 -9 -8 0 -15 4 -15 9 0 4 7 8 15 8 8 0 15 -4 15 -8z m-646 -30
c10 -16 -11 -34 -33 -27 -34 11 -25 26 21 34 4 0 9 -3 12 -7z m-244 -52 c0 -4
14 -11 31 -16 31 -9 31 -9 11 -27 -20 -19 -21 -18 -47 35 -14 29 -19 44 -10
34 8 -11 15 -23 15 -26z m658 -60 c-7 -11 -16 -20 -20 -20 -13 0 -9 28 5 33
23 10 27 7 15 -13z m-303 -70 c1 -24 -31 -60 -53 -60 -5 0 -17 12 -26 26 -17
24 -16 27 9 70 l26 45 22 -28 c12 -15 22 -39 22 -53z m-491 -181 c-5 -9 -44 1
-44 11 0 13 34 17 42 6 4 -6 5 -13 2 -17z m920 -50 c-8 -14 -42 3 -39 19 2 10
4 22 4 27 1 6 10 -1 20 -15 11 -13 18 -28 15 -31z m-380 -26 c12 -61 15 -93 9
-93 -4 0 -22 5 -40 12 -40 15 -42 36 -7 78 28 33 33 34 38 3z m-396 -43 c23
-18 42 -36 42 -40 0 -4 -19 -6 -42 -6 -39 2 -46 -2 -77 -41 -18 -24 -39 -43
-45 -43 -6 0 -5 4 2 9 8 4 12 10 11 12 -2 2 7 39 20 82 16 55 26 75 34 69 7
-5 31 -24 55 -42z m663 -55 c19 -7 20 -8 3 -26 -17 -19 -25 -19 -26 -2 0 4 -7
17 -14 28 -19 26 -18 40 1 21 8 -8 24 -18 36 -21z m-1024 -57 c16 -18 16 -22
2 -46 -15 -28 -55 -42 -56 -20 -1 7 -3 29 -6 48 -3 19 -3 38 -1 42 7 11 42 -3
61 -24z m593 -69 c0 -5 6 -7 13 -3 8 5 8 2 -2 -9 -18 -23 -31 -21 -31 3 0 11
5 20 10 20 6 0 10 -5 10 -11z m-136 -36 c19 -23 19 -23 -7 -23 -20 0 -27 5
-27 18 0 15 11 38 14 30 1 -2 10 -13 20 -25z m627 -15 c11 -21 11 -22 -4 -9
-10 7 -17 17 -17 22 0 15 9 10 21 -13z m-447 -90 c12 -9 11 -10 -21 -13 -25
-2 -26 -1 -16 34 6 22 7 22 16 5 6 -11 15 -22 21 -26z m-874 23 c0 -5 3 -17 7
-26 5 -15 3 -16 -15 -6 -12 7 -22 9 -22 6 0 -4 -5 -3 -11 0 -6 5 -4 12 8 21
21 16 33 18 33 5z m510 -67 c0 -8 13 -17 30 -20 25 -6 28 -9 19 -25 -10 -20
-39 -26 -39 -9 0 6 -9 29 -19 51 -14 28 -16 37 -5 29 7 -7 14 -19 14 -26z
m226 -11 c7 -7 20 -13 28 -13 19 0 21 -11 4 -28 -19 -19 -24 -15 -47 33 -22
48 -28 73 -9 40 7 -11 17 -26 24 -32z m-421 -67 c14 -4 25 -10 25 -15 0 -10
-29 -36 -33 -30 -16 26 -47 89 -47 95 1 5 7 -3 15 -17 8 -15 26 -30 40 -33z
m175 0 c9 -12 8 -15 -9 -13 -21 1 -26 8 -14 20 9 9 9 9 23 -7z m154 -25 c13
-14 14 -20 4 -24 -8 -2 -19 6 -25 19 -13 29 -3 31 21 5z m185 -111 c12 -18 13
-22 2 -19 -8 3 -21 16 -30 29 -12 18 -13 22 -2 19 8 -3 21 -16 30 -29z m291
15 c0 -9 -6 -12 -15 -9 -8 4 -15 10 -15 15 0 5 7 9 15 9 8 0 15 -7 15 -15z
m-7735 -81 c25 -25 46 -54 47 -63 0 -9 2 -29 4 -46 2 -16 1 -41 -2 -54 -4 -20
-7 -22 -15 -10 -8 13 -63 149 -64 159 0 3 -3 10 -6 15 -10 17 -19 45 -14 45 2
0 25 -21 50 -46z m7088 21 c4 -8 2 -17 -3 -20 -6 -4 -10 3 -10 14 0 25 6 27
13 6z m-6672 -59 l26 -43 -31 -51 c-42 -69 -55 -73 -50 -14 3 25 8 62 13 82 4
19 7 43 5 53 -4 28 10 19 37 -27z m5909 25 c0 -5 10 -13 21 -16 16 -6 18 -9 8
-15 -16 -10 -25 -5 -39 21 -7 13 -7 19 0 19 5 0 10 -4 10 -9z m690 -16 c0 -7
7 -15 15 -17 10 -2 12 -7 5 -18 -9 -13 -13 -11 -29 9 -10 14 -17 31 -14 38 6
16 23 7 23 -12z m-6164 -37 c-13 -22 -18 -17 -22 23 -4 32 -4 32 14 13 14 -14
16 -23 8 -36z m5320 0 c14 -60 12 -86 -5 -81 -66 20 -73 37 -39 83 28 38 35
38 44 -2z m611 2 c-11 -16 -17 -18 -22 -9 -5 7 -1 18 10 25 25 18 31 10 12
-16z m182 -54 c10 -12 8 -17 -7 -25 -17 -9 -18 -7 -14 14 5 29 6 29 21 11z
m-361 -156 c-12 -19 -27 -40 -35 -46 -7 -6 -13 -17 -13 -25 0 -8 -3 -9 -9 -3
-8 8 -2 78 18 194 1 3 14 -15 31 -40 l29 -44 -21 -36z m585 111 c4 -1 7 -5 7
-9 0 -4 -16 -6 -35 -4 -19 2 -35 7 -35 11 0 6 22 6 63 2z m-6515 -20 c11 -6
11 -10 0 -18 -28 -22 -36 -23 -33 -6 2 10 4 21 4 26 1 9 13 9 29 -2z m6150
-91 c9 -38 5 -47 -37 -69 -19 -11 -25 -10 -37 6 -14 19 -19 63 -6 63 4 0 13
14 19 31 10 27 14 29 32 18 11 -7 24 -29 29 -49z m-946 24 c18 -9 41 -26 51
-39 17 -24 17 -25 -10 -39 -23 -11 -32 -12 -46 -1 -9 7 -17 17 -17 24 0 6 -3
11 -7 11 -5 0 -9 14 -10 30 -3 35 -3 35 39 14z m-5811 -70 c24 -14 10 -21 -41
-19 -35 1 -47 -8 -94 -67 l-18 -23 5 25 c11 51 16 70 22 80 4 6 9 22 11 37 8
44 14 45 55 11 22 -18 49 -38 60 -44z m6320 -19 c18 12 8 -5 -18 -30 -26 -23
-29 -24 -40 -8 -7 9 -13 26 -13 38 0 12 -3 25 -7 29 -4 3 -8 16 -10 29 -3 18
4 14 37 -21 23 -23 45 -40 51 -37z m799 10 c15 9 12 -14 -5 -31 -13 -13 -18
-8 -41 38 l-27 53 31 -33 c17 -19 36 -31 42 -27z m-219 -30 c2 -67 1 -69 -31
-97 -19 -15 -37 -28 -41 -28 -4 0 4 26 17 58 13 31 29 76 36 99 7 23 13 41 14
40 2 -1 4 -34 5 -72z m-6661 20 c0 5 7 -1 16 -13 9 -13 22 -21 30 -18 23 9 16
-8 -15 -38 -33 -32 -37 -29 -57 47 -19 70 -17 77 6 42 11 -16 20 -26 20 -20z
m473 -61 c-4 -46 -59 -76 -59 -31 -1 12 -3 36 -7 54 -7 42 0 47 37 25 25 -15
31 -25 29 -48z m311 24 c-4 -7 -14 -21 -22 -30 -16 -19 -19 -72 -4 -91 5 -7
12 -20 15 -30 10 -26 -9 -13 -74 52 l-56 56 66 27 c77 31 85 32 75 16z m4669
-82 c7 -18 3 -21 -39 -30 -25 -6 -32 -3 -43 18 -14 25 -20 65 -13 79 5 10 88
-49 95 -67z m-4423 29 c8 -2 18 -4 22 -4 3 -1 -3 -30 -15 -65 -11 -36 -24 -63
-28 -60 -4 2 -10 -4 -14 -14 -11 -29 -22 4 -29 85 l-6 72 27 -6 c16 -3 35 -6
43 -8z m3878 -15 c18 0 8 -13 -13 -16 -10 -1 -15 6 -14 19 0 12 3 16 6 10 2
-7 12 -13 21 -13z m1515 -3 c10 -16 12 -29 6 -38 -7 -11 -10 -9 -15 9 -4 12
-12 22 -20 22 -8 0 -11 6 -8 15 8 21 19 19 37 -8z m-4901 -44 c6 -16 12 -36
13 -45 2 -16 -1 -16 -33 -2 -80 33 -85 68 -9 73 10 1 22 -10 29 -26z m197 5
c54 -24 62 -35 34 -45 -10 -4 -26 -15 -37 -24 -18 -17 -17 -19 22 -79 62 -96
31 -134 -40 -48 -18 22 -38 45 -44 52 -33 35 -36 57 -19 112 9 30 21 54 25 54
5 0 31 -10 59 -22z m3371 -9 c0 -6 -4 -7 -10 -4 -5 3 -10 11 -10 16 0 6 5 7
10 4 6 -3 10 -11 10 -16z m659 -8 c-15 -5 -22 6 -14 19 6 9 10 9 16 -1 5 -8 4
-15 -2 -18z m224 -15 c-19 -11 -36 6 -27 28 6 16 8 16 24 -1 15 -15 15 -19 3
-27z m-5721 -3 c15 -37 29 -73 33 -83 1 -3 7 -18 14 -35 6 -16 28 -73 48 -125
20 -52 52 -133 70 -179 18 -47 32 -86 30 -87 -1 -2 -27 33 -57 78 -30 44 -61
86 -67 93 -7 8 -13 18 -13 24 0 6 -4 11 -10 11 -5 0 -10 7 -10 15 0 8 -3 15
-7 15 -15 0 -86 122 -89 153 -2 18 -6 56 -9 85 -6 48 -4 53 17 62 33 13 33 13
50 -27z m140 -27 c-3 -5 -13 0 -22 12 -10 12 -20 19 -23 16 -3 -3 -4 2 -2 13
2 10 4 20 4 23 1 3 12 -8 25 -25 13 -16 22 -34 18 -39z m1612 1 c-3 -59 -2
-57 -26 -44 -47 25 -49 27 -38 48 6 10 17 19 25 19 7 0 17 10 21 23 6 20 8 20
13 4 4 -10 6 -33 5 -50z m4146 32 c0 -11 -4 -18 -10 -14 -5 3 -7 12 -3 20 7
21 13 19 13 -6z m-4809 -5 c4 -2 10 -16 14 -31 3 -14 15 -38 26 -51 10 -14 17
-27 15 -29 -7 -7 -46 16 -80 47 -17 16 -44 41 -61 55 l-30 27 54 -7 c30 -3 58
-8 62 -11z m3309 -9 c0 -8 -4 -15 -10 -15 -5 0 -10 7 -10 15 0 8 5 15 10 15 6
0 10 -7 10 -15z m494 -6 c6 -6 2 -14 -10 -23 -17 -13 -20 -12 -31 7 -7 12 -12
26 -13 30 0 10 40 -1 54 -14z m1271 -37 c-4 -9 -9 -26 -11 -37 -4 -19 -30 -45
-45 -45 -8 0 -24 63 -22 88 0 6 1 21 2 32 1 20 1 20 42 0 31 -16 39 -25 34
-38z m-6325 14 c0 -8 7 -16 15 -18 10 -2 12 -7 5 -18 -7 -12 -12 -11 -29 9
-20 23 -20 41 0 41 5 0 9 -6 9 -14z m5263 -56 c-1 -34 -3 -63 -5 -64 -2 0 -17
-11 -35 -24 -18 -12 -34 -22 -36 -22 -2 0 12 40 32 89 19 50 37 88 41 86 3 -2
4 -31 3 -65z m-5693 44 c8 -1 21 -3 28 -3 9 -1 6 -13 -9 -43 -12 -24 -32 -71
-43 -106 -12 -35 -26 -63 -31 -63 -6 1 -10 4 -11 9 0 4 -8 33 -18 66 -10 32
-19 64 -20 70 -2 6 -6 23 -10 38 -5 15 -5 31 -2 37 6 8 60 6 116 -5z m2890
-61 c20 -116 23 -153 12 -153 -6 0 -14 5 -17 10 -3 6 -16 10 -28 10 -17 0 -28
14 -50 58 -15 31 -27 62 -27 67 1 10 79 75 91 75 4 0 12 -30 19 -67z m1763 37
c-7 -27 -22 -35 -36 -20 -9 9 -7 15 7 26 27 19 35 18 29 -6z m709 -46 c-7 -13
-11 -10 -25 17 -20 42 -11 57 14 25 14 -18 17 -31 11 -42z m-2231 35 c1 -5 2
-15 3 -21 3 -20 -25 -98 -35 -98 -5 0 -9 3 -9 8 0 4 -18 31 -40 60 -22 29 -40
55 -40 58 0 4 16 4 35 2 19 -2 35 -1 35 3 0 10 50 -2 51 -12z m1779 17 c0 -3
-7 -12 -16 -20 -23 -23 -40 -19 -19 4 16 18 35 26 35 16z m-4715 -56 c19 0 19
-14 0 -30 -18 -15 -17 -17 -45 40 l-23 45 26 -27 c14 -16 33 -28 42 -28z
m4335 43 c0 -2 -18 -39 -39 -82 -23 -45 -43 -102 -47 -132 l-7 -54 -28 60
c-33 71 -50 113 -55 138 -3 15 2 13 37 -9 32 -20 44 -23 55 -13 7 6 12 15 9
19 -3 5 -1 11 5 15 5 3 10 13 10 22 0 18 26 40 46 40 8 0 14 -2 14 -4z m560
-13 c12 -11 26 -18 30 -15 4 2 17 -5 29 -16 l23 -21 -26 -27 c-14 -14 -39 -34
-56 -44 l-30 -18 0 80 c0 45 2 81 3 81 2 0 14 -9 27 -20z m-2606 -6 c13 -35
17 -111 6 -138 -12 -31 -16 -32 -22 -1 -1 11 -6 22 -9 25 -3 3 -12 22 -21 44
-14 36 -13 39 6 62 25 28 32 29 40 8z m1066 -31 c0 -35 -16 -36 -30 -2 -11 26
-11 32 1 39 16 11 29 -5 29 -37z m240 35 c-1 -21 -28 -51 -39 -43 -7 4 -5 14
5 31 17 26 34 32 34 12z m-2700 -50 c1 -21 -34 -1 -43 25 -6 17 -6 17 18 0 13
-10 25 -21 25 -25z m3049 33 c18 -12 -13 -60 -37 -56 -9 2 -20 4 -24 4 -4 1
-10 10 -13 21 -3 11 -13 20 -21 20 -8 0 -14 4 -14 8 0 12 92 14 109 3z m2211
-22 c0 -5 -7 -6 -15 -3 -8 4 -15 13 -15 21 0 13 3 13 15 3 8 -7 15 -16 15 -21z
m-3049 -47 c2 -21 10 -78 13 -99 3 -12 2 -23 0 -23 -11 0 -34 29 -34 44 0 8
-4 17 -9 20 -11 7 -61 102 -61 115 0 11 90 -46 91 -57z m2845 34 c2 -14 0 -15
-12 -5 -17 14 -19 32 -2 27 6 -2 12 -12 14 -22z m-1196 -19 c0 -7 -4 -18 -9
-26 -7 -11 -11 -12 -23 -1 -12 12 -12 16 1 30 17 18 31 16 31 -3z m314 15 c9
-16 -10 -31 -32 -25 -24 6 -29 19 -9 26 19 8 35 8 41 -1z m241 -25 l39 -33
-21 -21 c-28 -28 -59 -20 -72 19 -26 74 -6 87 54 35z m-5112 -2 c4 -8 2 -17
-3 -20 -6 -4 -10 3 -10 14 0 25 6 27 13 6z m1551 -15 c-16 -3 -32 -1 -36 4
-12 17 14 25 41 13 l25 -12 -30 -5z m1794 -6 c13 -14 27 -84 16 -84 -9 0 -74
77 -74 88 0 17 39 15 58 -4z m1021 -11 c0 -25 -1 -25 -8 -8 -5 11 -7 23 -4 28
8 14 13 7 12 -20z m1041 16 c0 -5 -9 -9 -20 -9 -11 0 -20 4 -20 8 0 4 9 8 20
9 11 1 20 -2 20 -8z m-4841 -91 c12 -26 11 -32 -2 -45 -14 -14 -20 -14 -49 -3
-18 7 -41 20 -50 28 -16 13 -15 17 20 42 42 31 60 26 81 -22z m1738 20 c14
-20 16 -77 2 -94 -10 -13 -15 -12 -38 3 -58 38 -65 67 -18 87 41 18 43 18 54
4z m1374 -20 c19 -6 56 -25 82 -41 44 -27 46 -31 30 -42 -17 -11 -38 -18 -101
-30 -41 -7 -62 -16 -62 -25 0 -5 -6 -15 -13 -22 -7 -7 -23 -30 -36 -50 -12
-21 -24 -38 -26 -38 -3 0 2 29 10 55 1 6 2 12 3 15 0 3 7 23 16 45 10 22 17
40 16 40 -1 0 3 13 9 28 6 15 14 39 17 52 7 29 9 29 55 13z m-2820 -27 c24
-15 63 -47 86 -70 23 -22 46 -41 52 -41 17 0 21 -11 36 -88 9 -51 -4 -53 -68
-7 -94 67 -103 75 -137 131 -31 52 -42 82 -33 97 7 12 17 8 64 -22z m349 19
c0 -5 0 -11 -1 -12 0 -2 4 -15 10 -30 12 -33 -2 -41 -39 -21 -14 7 -37 13 -52
13 -42 0 -42 17 1 24 21 3 44 13 51 21 14 17 30 20 30 5z m3928 -50 c7 -8 17
-25 22 -38 12 -28 21 -122 12 -122 -10 0 -34 17 -32 21 1 2 -5 21 -14 43 -9
21 -16 40 -16 42 0 1 -5 15 -12 31 -6 15 -12 33 -14 38 -1 6 -5 19 -10 30 -6
18 -4 17 22 -5 15 -14 34 -32 42 -40z m-2404 6 c21 -45 20 -56 -4 -56 -11 0
-20 -4 -20 -9 0 -6 -10 -8 -21 -6 -24 5 -39 15 -21 15 6 0 9 9 7 20 -2 11 0
22 5 25 5 3 7 14 5 25 -7 35 31 24 49 -14z m389 14 c3 -13 -1 -24 -14 -30 -20
-11 -22 -8 -13 28 8 27 20 29 27 2z m1589 4 c13 -2 34 -7 48 -10 14 -2 41 -7
60 -10 18 -2 36 -7 38 -9 2 -2 0 -25 -4 -50 l-9 -45 -47 25 c-42 22 -48 23
-56 9 -13 -23 -30 -10 -53 40 -21 45 -24 70 -9 61 5 -3 20 -8 32 -11z m1121
-1 c8 -10 18 -30 22 -44 7 -27 -3 -36 -52 -45 -18 -4 -21 -1 -17 18 3 13 7 37
9 53 4 37 3 35 13 35 5 0 16 -8 25 -17z m-5996 -15 c13 -12 23 -27 23 -35 0
-7 5 -13 12 -13 17 0 -10 -23 -44 -38 -33 -14 -38 -8 -31 38 3 19 6 43 6 53 2
22 6 22 34 -5z m4100 7 c14 -10 19 -22 16 -35 -8 -29 -18 -25 -42 15 -22 38
-12 46 26 20z m1005 -19 c10 -7 20 -29 23 -48 6 -34 4 -35 -20 -31 -14 3 -25
8 -26 12 -6 34 -6 81 -1 81 4 0 15 -7 24 -14z m-2338 -53 c76 -74 67 -103 -17
-53 -76 45 -89 53 -109 71 -17 14 -14 16 36 17 48 0 57 -3 90 -35z m-844 -34
c0 -14 -17 -10 -23 5 -4 10 -1 13 9 9 7 -3 14 -9 14 -14z m354 15 c20 -8 21
-21 1 -21 -8 0 -16 6 -19 14 -6 15 -4 15 18 7z m912 -64 c0 -28 0 -50 -2 -50
-2 0 -19 14 -38 31 -20 17 -39 29 -43 26 -4 -2 -16 3 -25 12 -16 16 -14 17 28
16 26 -1 49 4 56 12 16 20 22 8 24 -47z m1090 24 c-3 -9 -6 -23 -6 -31 0 -14
-3 -14 -20 2 -19 17 -19 19 -2 31 23 18 35 17 28 -2z m1539 -38 c-7 -45 -17
-54 -43 -37 -11 6 -8 14 12 34 14 14 26 34 26 43 0 10 3 15 6 12 3 -4 2 -27
-1 -52z m-3310 7 c2 -31 -9 -29 -24 3 -10 22 -9 25 6 22 9 -2 17 -13 18 -25z
m-2762 -45 c6 -44 4 -48 -16 -48 -29 1 -56 22 -53 43 3 22 48 69 57 60 4 -5 9
-29 12 -55z m4176 40 c0 -7 -4 -21 -8 -31 -6 -17 -8 -17 -25 2 -17 19 -17 21
-3 21 10 0 17 5 17 10 0 6 5 10 10 10 6 0 10 -6 9 -12z m205 -7 c-5 -3 -11
-19 -13 -36 -4 -40 -8 -44 -31 -38 -21 5 -28 23 -10 23 6 0 18 16 27 35 9 19
21 32 26 28 5 -3 5 -8 1 -12z m-3832 -16 c16 -20 16 -21 -2 -22 -23 -2 -34 12
-26 34 4 9 8 14 9 12 1 -2 10 -13 19 -24z m4901 -17 c26 -46 49 -116 42 -129
-3 -4 -29 18 -58 48 l-53 55 15 34 c9 18 19 33 23 34 3 0 17 -19 31 -42z
m-4363 5 c-1 -27 -1 -27 -15 -9 -19 25 -19 36 0 36 10 0 15 -10 15 -27z m733
-108 l56 -109 -31 -19 c-18 -10 -39 -21 -47 -23 -9 -2 -34 -8 -56 -13 -65 -16
-64 8 6 110 18 26 18 36 5 147 -5 46 4 34 67 -93z m54 73 c-19 -12 -39 -9 -30
5 4 6 6 21 5 32 -3 18 -1 17 17 -5 14 -18 16 -27 8 -32z m2943 41 c25 -6 50
-12 55 -13 30 -8 43 -20 55 -51 8 -19 17 -35 22 -35 4 0 8 -5 8 -10 0 -11 -35
-27 -75 -34 -14 -3 -29 -7 -34 -10 -5 -3 -8 16 -6 44 l3 50 -37 6 c-87 14
-128 37 -100 55 19 12 54 11 109 -2z m483 -5 c-3 -9 -12 -10 -34 -2 -38 13
-37 16 5 15 22 -1 32 -5 29 -13z m-3027 -36 c26 -37 84 -158 84 -175 0 -3 -6
-1 -12 5 -7 5 -22 6 -33 2 -16 -6 -30 3 -72 47 -29 30 -53 60 -53 65 0 5 8 22
18 36 10 15 22 35 25 45 4 9 8 17 10 17 2 0 17 -19 33 -42z m1317 18 c15 -11
15 -15 3 -25 -11 -9 -15 -9 -18 0 -3 9 -9 9 -26 0 -26 -14 -28 -8 -5 19 20 23
22 24 46 6z m313 -3 c20 -27 17 -33 -14 -33 -38 0 -44 8 -24 31 20 23 22 23
38 2z m-1837 -35 c12 -16 9 -17 -25 -15 -21 1 -39 8 -42 16 -3 9 1 11 16 7 11
-4 23 -2 27 4 4 6 8 10 9 8 1 -2 8 -11 15 -20z m1197 -64 c-33 -29 -36 -36
-36 -85 l0 -53 -24 34 c-13 19 -22 38 -20 41 2 4 -3 12 -11 19 -8 7 -15 18
-15 25 0 7 -7 19 -16 26 -14 12 -14 14 0 19 8 3 47 5 87 5 l71 0 -36 -31z
m2489 26 c3 -5 3 -15 -1 -21 -6 -11 -23 6 -24 24 0 10 18 9 25 -3z m-5607 -55
c1 -1 5 -20 7 -41 3 -22 8 -51 11 -66 11 -54 -10 -28 -86 107 l-34 59 50 -28
c27 -16 50 -30 52 -31z m474 30 c9 -42 -16 -49 -35 -10 -17 35 -17 35 7 35 17
0 25 -7 28 -25z m955 13 c0 -7 2 -20 4 -28 4 -13 -3 -15 -46 -11 -19 1 -20 21
-1 21 7 0 19 7 26 15 15 18 17 18 17 3z m-477 -18 c0 -5 -10 -10 -22 -10 -19
0 -20 2 -8 10 19 13 30 13 30 0z m2366 -24 c20 -20 18 -22 -16 -22 -32 0 -37
5 -18 24 15 15 16 15 34 -2z m-3017 -37 c1 -4 -8 -9 -19 -12 -23 -6 -23 -7 -9
30 10 26 12 27 19 8 5 -11 9 -23 9 -26z m2191 31 c0 -5 -4 -10 -9 -10 -6 0
-13 5 -16 10 -3 6 1 10 9 10 9 0 16 -4 16 -10z m1400 2 c0 -9 -44 -32 -60 -32
-21 0 -9 16 12 17 13 1 24 7 26 13 4 12 22 14 22 2z m495 -13 c-4 -5 -13 -9
-22 -9 -13 0 -13 3 -3 15 13 15 35 11 25 -6z m181 -24 c-20 -43 -47 -58 -62
-34 -7 12 15 31 27 23 4 -2 17 9 29 26 30 42 32 38 6 -15z m-2096 16 c0 -13
-28 -22 -35 -11 -3 4 1 11 7 13 20 8 28 8 28 -2z m2440 -52 c0 -11 -4 -18 -10
-14 -5 3 -7 12 -3 20 7 21 13 19 13 -6z m-3639 -26 c74 -35 89 -73 21 -59 -30
7 -76 16 -107 21 -11 2 -33 8 -50 13 l-30 9 30 8 c17 4 36 12 43 18 6 5 12 6
12 1 0 -4 5 -3 12 4 6 6 14 10 17 8 3 -1 27 -12 52 -23z m2327 2 c-3 -14 -1
-25 3 -25 5 0 9 -4 9 -9 0 -13 -35 -6 -36 7 -1 7 -2 13 -4 15 -1 1 -3 10 -5
20 -2 12 3 17 17 17 16 0 19 -5 16 -25z m-3057 -33 c-5 -15 -5 -36 -1 -47 4
-11 4 -24 0 -30 -8 -10 -10 -16 -10 -35 0 -5 -7 -10 -15 -10 -8 0 -15 -4 -15
-9 0 -5 -9 -11 -20 -14 -14 -3 -18 -1 -13 6 7 10 43 108 60 159 9 29 22 10 14
-20z m2203 32 c13 -5 14 -10 5 -20 -9 -11 -13 -11 -25 1 -24 23 -14 32 20 19z
m-1784 -28 c0 -2 -9 -2 -20 1 -11 3 -20 9 -20 15 0 5 9 4 20 -2 11 -6 20 -12
20 -14z m1215 -26 c-10 -11 -21 -18 -23 -15 -3 3 3 12 14 20 27 20 30 18 9 -5z
m1090 -20 c14 -27 18 -90 5 -90 -3 0 -27 21 -55 45 -49 44 -49 45 -22 45 15 0
30 7 33 15 9 23 22 18 39 -15z m241 -62 c-8 -4 -29 -9 -47 -10 -33 -3 -34 -2
-35 37 -2 64 12 69 56 22 28 -31 35 -44 26 -49z m593 41 c-7 -4 -17 -5 -22 -2
-5 3 -3 9 4 14 7 4 17 5 22 2 5 -3 3 -9 -4 -14z m-1109 -10 c0 -23 -21 -58
-37 -61 -18 -4 -83 21 -83 32 0 3 19 15 42 27 40 19 78 20 78 2z m-1270 7 c0
-2 -9 -6 -20 -9 -11 -3 -18 -1 -14 4 5 9 34 13 34 5z m664 -15 c7 -10 -22 -37
-30 -28 -9 8 3 37 15 37 5 0 12 -4 15 -9z m1444 -17 c14 -5 14 -7 -7 -15 -18
-7 -27 -6 -33 3 -17 28 -12 30 40 12z m-1189 -25 c-16 -10 -23 -4 -14 10 3 6
11 8 17 5 6 -4 5 -9 -3 -15z m-309 -2 c0 -2 -8 -12 -19 -21 -17 -16 -19 -16
-24 4 -4 16 0 20 19 20 13 0 24 -2 24 -3z m-2216 -22 c4 -10 -1 -15 -16 -15
-17 0 -18 2 -8 15 7 8 14 15 15 15 2 0 5 -7 9 -15z m-96 -22 c0 -16 1 -32 2
-38 9 -40 -12 -43 -48 -7 -12 13 -27 20 -32 17 -6 -3 -10 -1 -10 5 0 6 -3 9
-7 7 -5 -3 -13 1 -20 8 -9 10 -6 12 20 10 27 -3 43 2 94 24 1 1 1 -11 1 -26z
m295 -46 c15 -6 16 -10 5 -27 -15 -23 -17 -21 -52 45 l-27 50 28 -31 c15 -17
36 -34 46 -37z m218 -74 c-5 -29 -11 -39 -29 -41 -15 -2 -22 2 -22 12 0 9 6
16 14 16 8 0 17 14 21 30 9 43 23 28 16 -17z m153 -20 c8 3 18 -4 25 -19 6
-15 7 -24 1 -24 -13 0 -53 22 -62 35 -13 18 -8 28 7 15 8 -7 21 -10 29 -7z
m-546 -5 c19 -19 14 -24 -18 -24 -16 0 -30 2 -30 6 0 8 22 30 30 30 3 0 11 -5
18 -12z m604 -146 c25 -26 17 -39 -31 -48 -23 -5 -32 -4 -27 4 3 5 2 12 -3 14
-6 1 -13 23 -17 47 l-7 44 32 -19 c18 -10 42 -29 53 -42z m-700 11 c9 -16 16
-46 16 -68 0 -22 -3 -34 -5 -27 -3 6 -10 12 -16 12 -7 0 -25 14 -41 30 -16 17
-33 30 -38 30 -4 0 -8 5 -8 11 0 6 7 9 15 5 9 -3 23 3 33 13 23 26 25 25 44
-6z m186 -64 c-7 -5 -19 -9 -25 -10 -22 -3 -28 -4 -40 -12 -21 -13 -28 71 -9
102 3 5 24 -9 46 -32 30 -30 38 -42 28 -48z m286 39 c-3 -13 -8 -24 -9 -26 -4
-5 -35 10 -35 18 0 5 34 26 48 29 2 1 0 -9 -4 -21z m-640 -70 c6 -45 5 -48
-17 -48 -13 0 -31 6 -41 13 -16 12 -17 17 -6 38 19 36 43 60 51 52 4 -5 10
-29 13 -55z m1010 -90 c-9 -14 -23 2 -17 18 4 12 8 13 14 3 4 -7 5 -17 3 -21z
m-191 -1 c3 -8 -5 -13 -22 -15 -25 -1 -25 -1 -7 13 24 18 23 18 29 2z m-733
-42 c0 -9 -6 -12 -15 -9 -8 4 -12 10 -9 15 8 14 24 10 24 -6z m-187 -98 c3 -7
-3 -13 -14 -14 -12 -1 -16 3 -12 13 6 18 19 18 26 1z m821 -72 c3 -8 3 -22 0
-30 -9 -21 -41 -38 -49 -25 -3 5 -2 10 4 10 5 0 12 14 16 30 7 32 19 39 29 15z
m-481 -65 c-6 -23 -34 -23 -41 -1 -3 8 0 11 6 7 5 -3 13 1 16 10 8 22 25 8 19
-16z m707 -35 c0 -2 -5 -15 -11 -29 -10 -22 -13 -23 -27 -10 -13 13 -12 17 4
29 19 14 34 19 34 10z m-970 -13 c0 -19 -35 -41 -50 -32 -8 5 -12 10 -10 12
43 28 60 33 60 20z m608 -61 c11 -7 11 -9 0 -13 -7 -3 -19 1 -26 8 -10 11 -10
14 0 14 7 0 19 -4 26 -9z m148 -28 c21 -28 17 -47 -17 -79 l-31 -29 7 55 c10
76 17 85 41 53z m-201 -78 c6 0 10 -12 11 -27 1 -21 -4 -28 -17 -28 -18 0 -23
10 -20 38 1 6 -6 12 -16 12 -15 0 -15 2 -3 9 8 6 19 7 25 3 5 -4 15 -7 20 -7z
m-156 -84 c8 -5 6 -13 -8 -25 -18 -17 -19 -16 -19 20 0 22 3 32 8 24 4 -7 13
-16 19 -19z m551 -10 c-17 -32 -31 -35 -54 -11 l-21 22 27 -4 c15 -3 33 -1 40
3 19 12 20 11 8 -10z m-803 -68 c2 -10 22 -31 43 -47 l39 -29 -41 -33 c-22
-19 -42 -34 -45 -34 -3 0 -3 16 0 36 4 20 2 44 -3 54 -14 27 -20 70 -8 70 5 0
12 -8 15 -17z m-162 -53 c3 -5 -1 -10 -10 -10 -9 0 -13 5 -10 10 3 6 8 10 10
10 2 0 7 -4 10 -10z m475 -61 c-12 -21 -25 -25 -35 -8 -8 11 25 40 37 33 5 -3
3 -14 -2 -25z m-496 -36 c-30 -30 -34 -29 -32 5 2 39 5 41 31 29 l24 -11 -23
-23z m994 -43 c-9 -28 -11 -29 -23 -13 -15 20 -3 43 21 43 10 0 11 -6 2 -30z
m-657 -37 c-12 -20 -14 -14 -5 12 4 9 9 14 11 11 3 -2 0 -13 -6 -23z m322 -6
c-17 -18 -39 -43 -49 -56 -25 -30 -101 -104 -121 -114 -8 -5 -17 -6 -20 -3 -5
5 5 26 70 152 l26 51 62 1 62 1 -30 -32z m-588 -56 c-8 -7 -56 10 -50 18 3 5
16 4 29 -2 14 -7 23 -14 21 -16z m-117 -77 c-4 -3 -2 -19 3 -36 8 -30 8 -30
-11 -13 -15 13 -17 22 -9 36 5 11 13 19 16 19 3 0 4 -3 1 -6z m262 -20 c0 -14
-3 -14 -15 -4 -8 7 -15 14 -15 16 0 2 7 4 15 4 8 0 15 -7 15 -16z m717 -55
c62 -34 67 -42 43 -69 -21 -25 -69 -60 -82 -60 -3 0 -8 27 -10 60 -1 33 0 60
4 60 4 0 5 7 2 15 -8 20 -2 19 43 -6z m-542 -18 c5 -1 -25 -26 -68 -57 -69
-51 -78 -61 -92 -107 -8 -28 -15 -56 -15 -63 0 -23 -25 -21 -75 6 -53 28 -55
32 -42 105 6 36 12 44 62 70 30 17 55 34 55 38 0 5 4 6 9 2 5 -3 12 -2 14 2 4
6 105 9 152 4z m334 -133 c17 -32 29 -58 26 -58 -2 0 2 -12 10 -27 12 -24 12
-28 -3 -38 -39 -27 -133 -51 -158 -41 -11 4 -6 19 21 65 42 71 57 109 46 115
-4 3 -8 29 -9 58 l-2 53 19 -35 c10 -19 33 -61 50 -92z m-122 37 c-4 -8 -3
-16 1 -19 9 -6 8 -53 -1 -63 -4 -3 -7 1 -7 10 0 10 -5 14 -15 11 -8 -4 -15 -3
-15 2 0 18 25 74 33 74 5 0 7 -7 4 -15z m283 -115 c0 -5 -4 -12 -10 -15 -5 -3
-10 -4 -10 -1 0 2 -3 12 -6 20 -5 12 -2 15 10 10 9 -3 16 -10 16 -14z m-420
-38 c0 -15 -5 -18 -25 -14 -27 5 -30 13 -15 43 10 17 13 18 25 5 8 -8 15 -23
15 -34z m581 -91 c-3 -25 -6 -39 -8 -30 -2 9 -15 21 -28 27 -22 10 -24 14 -13
37 6 14 15 25 19 25 4 0 11 10 15 23 8 21 8 21 13 -7 4 -16 4 -50 2 -75z
m-811 4 c0 -8 -7 -15 -16 -15 -14 0 -14 3 -4 15 7 8 14 15 16 15 2 0 4 -7 4
-15z m-173 -37 l22 -32 -42 -25 c-23 -13 -43 -27 -45 -31 -1 -3 -18 -4 -37 -2
-29 3 -32 6 -21 18 8 7 24 29 36 49 12 19 26 35 31 35 5 0 9 7 9 15 0 21 22 9
47 -27z m455 -18 c29 -42 31 -40 -32 -73 -64 -34 -120 -24 -75 13 8 7 15 19
15 26 0 8 4 14 9 14 6 0 18 14 28 30 9 17 20 30 23 30 3 -1 17 -18 32 -40z
m-247 -57 c0 -35 6 -46 47 -86 69 -66 57 -101 -54 -156 -64 -33 -111 -34 -134
-4 -28 38 -30 152 -3 248 21 75 55 94 109 60 30 -20 35 -28 35 -62z m540 17
c37 -30 5 -68 -72 -85 -22 -4 -49 -25 -84 -63 -47 -54 -51 -56 -64 -38 -18 23
-29 97 -21 131 6 25 50 55 96 66 40 10 128 3 145 -11z m235 -23 c0 -5 6 -5 12
-1 18 11 48 12 54 2 3 -4 1 -8 -5 -8 -5 0 -25 -14 -43 -30 -18 -17 -45 -36
-60 -43 -26 -11 -54 -60 -64 -110 -9 -47 -15 -57 -32 -48 -9 5 -35 17 -57 28
-38 18 -40 22 -37 59 1 21 4 48 6 58 2 17 43 45 123 85 33 17 103 22 103 8z
m-1025 -162 c17 -2 38 -4 48 -4 16 -1 15 -6 -7 -50 -14 -27 -22 -51 -19 -55 4
-3 1 -6 -6 -6 -7 0 -10 -3 -7 -8 2 -4 -6 -32 -19 -62 -14 -33 -25 -49 -28 -40
-19 56 -57 222 -53 229 3 4 18 6 33 4 16 -2 42 -6 58 -8z m750 -58 c3 -40 19
-71 51 -104 28 -28 24 -45 -24 -95 l-34 -36 -48 46 c-47 46 -48 47 -35 83 15
41 53 118 68 137 13 17 20 9 22 -31z m-199 -40 c3 -3 -13 -4 -35 -4 -39 2 -40
2 -38 -32 2 -29 -2 -35 -25 -41 -29 -9 -29 -8 -13 92 l6 36 50 -23 c28 -12 52
-25 55 -28z m-137 -97 c1 -9 5 -20 11 -26 5 -5 11 -25 13 -44 3 -26 9 -36 25
-38 18 -3 20 -6 10 -26 -8 -18 -6 -32 6 -60 18 -40 34 -78 65 -151 12 -27 28
-62 36 -77 8 -16 10 -28 4 -28 -5 0 -13 8 -16 18 -4 9 -10 19 -13 22 -4 3 -47
64 -95 135 -49 72 -92 132 -95 135 -11 8 -24 51 -26 85 -1 17 -3 30 -4 30 0 0
-3 18 -5 41 -4 47 2 60 30 66 15 3 24 -5 37 -31 9 -20 17 -43 17 -51z m-270
35 c22 -13 42 -28 45 -33 6 -10 -48 -64 -81 -81 -21 -10 -21 -9 -22 54 0 36
-3 70 -6 75 -11 19 25 10 64 -15z m793 -51 c32 -17 32 -17 10 -27 -12 -6 -22
-16 -22 -24 0 -7 -7 -13 -15 -13 -14 0 -32 50 -42 115 l-4 30 20 -32 c11 -18
35 -40 53 -49z m-697 -94 c3 -11 12 -20 19 -20 8 0 19 -7 27 -16 10 -13 10
-17 -2 -25 -21 -13 -22 -12 -45 36 -12 25 -18 45 -14 45 5 0 12 -9 15 -20z
m-145 2 c0 -11 -78 -101 -133 -154 -56 -56 -83 -67 -70 -30 8 22 83 164 93
177 8 10 110 16 110 7z m661 -127 c4 -45 2 -47 -41 -39 -34 7 -39 27 -13 64
35 51 48 45 54 -25z m142 7 c-5 -12 -11 -10 -30 12 -29 35 -19 56 12 26 14
-13 21 -28 18 -38z m-268 -38 c29 -7 31 -16 10 -34 -18 -15 -17 -16 -44 37
-24 47 -28 73 -5 31 8 -15 26 -31 39 -34z m361 13 c1 -7 4 -29 8 -49 3 -20 1
-40 -4 -43 -11 -7 -70 21 -70 33 0 4 12 25 26 45 25 37 36 41 40 14z m-640
-25 c1 -9 5 -34 8 -54 7 -42 6 -43 -41 -26 -40 15 -42 36 -7 78 27 32 36 32
40 2z m-279 -50 c-8 -10 -14 -6 -28 14 -24 36 -13 51 15 22 16 -16 19 -27 13
-36z m366 13 c4 -8 2 -17 -3 -20 -6 -4 -10 3 -10 14 0 25 6 27 13 6z m-263
-35 c0 -11 0 -23 1 -27 0 -4 -4 -9 -10 -11 -14 -5 -25 23 -17 43 8 22 26 18
26 -5z m-333 -42 c39 -27 40 -31 9 -51 -13 -9 -30 -23 -39 -31 -11 -11 -18
-13 -23 -5 -10 17 -11 89 -1 89 4 0 5 5 2 10 -11 18 18 11 52 -12z m938 -2
c78 -16 155 -74 155 -115 0 -10 3 -21 7 -25 4 -3 8 -14 9 -24 1 -9 5 -27 7
-39 5 -17 -5 -28 -51 -59 -69 -46 -118 -74 -132 -74 -7 0 -9 18 -5 48 2 26 7
83 10 128 l5 80 -45 -2 c-37 -2 -51 3 -84 29 -21 18 -44 40 -50 50 -11 17 -7
17 71 13 46 -3 92 -8 103 -10z m-825 -36 c0 -5 -2 -10 -4 -10 -3 0 -8 5 -11
10 -3 6 -1 10 4 10 6 0 11 -4 11 -10z m490 -15 c0 -8 8 -15 18 -16 35 -1 50
-7 76 -30 30 -26 34 -59 9 -82 -18 -16 -113 -60 -113 -52 0 3 -12 0 -27 -6
-29 -11 -68 -17 -143 -23 -59 -5 -67 -9 -168 -78 -89 -60 -116 -69 -126 -42
-10 25 35 154 53 155 9 0 44 1 78 2 63 2 64 3 161 75 17 13 32 21 32 17 0 -4
7 -2 15 5 8 7 15 10 15 7 0 -9 64 15 78 30 8 7 15 21 17 31 2 9 4 18 4 20 3
10 21 -1 21 -13z m-470 -16 c0 -5 4 -8 8 -5 14 9 33 -10 26 -27 -8 -23 -20
-21 -38 5 -18 26 -20 38 -6 38 6 0 10 -5 10 -11z m133 -26 c3 -10 8 -35 12
-56 6 -38 6 -38 -24 -34 -57 9 -62 21 -30 73 23 38 35 43 42 17z m884 -20 c-9
-8 -45 11 -41 22 5 11 9 10 24 -3 11 -9 18 -17 17 -19z m-1109 -104 l39 -33
-39 -33 c-22 -18 -42 -33 -45 -33 -3 0 -3 19 1 41 4 23 2 46 -3 53 -9 11 -15
40 -12 66 2 10 5 8 11 -6 5 -12 26 -36 48 -55z m812 31 c12 -28 10 -33 -10
-55 -34 -36 -41 -31 -34 23 10 73 23 82 44 32z m516 -51 c-7 -19 -12 -42 -11
-51 2 -10 -2 -18 -8 -18 -18 0 -69 50 -64 63 3 10 87 47 95 42 1 -1 -4 -17
-12 -36z m-133 -99 c6 -24 -15 -27 -34 -4 -10 13 -10 17 1 24 18 11 26 6 33
-20z m-887 -59 c-3 -43 -8 -85 -10 -92 -10 -30 -16 -103 -7 -93 5 5 21 32 36
59 15 28 29 52 31 54 2 2 3 -42 2 -98 0 -56 2 -104 5 -108 4 -3 21 26 38 66
18 39 36 71 41 71 4 0 8 8 8 18 0 13 18 27 58 45 31 14 64 27 72 29 8 2 18 7
21 11 3 4 19 10 34 13 16 3 34 8 40 12 19 14 65 13 79 -1 12 -12 27 -64 29
-104 1 -16 9 -10 114 95 47 46 86 82 89 79 2 -2 0 -15 -5 -28 -7 -18 -4 -32
12 -59 12 -19 23 -37 27 -40 3 -3 6 -16 8 -30 3 -29 -9 -41 -108 -110 -36 -24
-66 -48 -68 -52 -2 -4 -8 -8 -13 -8 -6 0 -42 -24 -80 -52 -39 -29 -74 -53 -77
-54 -4 0 -19 -6 -34 -12 -15 -6 -47 -14 -71 -17 -37 -5 -47 -2 -70 19 l-27 25
-25 -25 c-14 -14 -25 -28 -25 -32 0 -7 -50 -65 -121 -139 -22 -24 -46 -43 -53
-43 -7 0 -30 -19 -52 -42 -87 -94 -154 -143 -234 -170 -28 -10 -60 10 -60 37
0 29 30 98 75 170 34 55 34 56 16 100 -24 58 -80 231 -87 270 -7 36 -8 56 -5
85 5 42 87 -48 112 -122 13 -41 19 -44 104 -52 88 -8 92 -5 90 75 -2 61 18
164 41 219 4 8 8 21 10 28 4 22 34 82 41 82 3 0 3 -35 -1 -79z m222 41 c-6 -7
-20 -17 -30 -23 -15 -8 -18 -6 -16 18 2 40 5 42 32 30 19 -9 22 -15 14 -25z
m-794 -28 c9 -24 7 -28 -9 -14 -17 14 -20 30 -6 30 5 0 12 -7 15 -16z m385
-131 c2 -1 5 -17 6 -35 2 -18 4 -33 5 -33 1 0 3 -16 6 -35 4 -30 3 -33 -10
-20 -16 16 -96 160 -96 173 0 6 27 -9 89 -50z m1140 -10 c10 -20 4 -34 -19
-39 -3 0 -13 -4 -23 -9 -28 -12 -34 5 -24 64 l9 54 23 -25 c12 -13 27 -34 34
-45z m-1404 -118 c1 -39 0 -43 -16 -34 -10 5 -22 15 -26 22 -4 7 -20 20 -35
30 -35 22 -36 35 -3 32 17 -2 26 3 31 17 6 19 6 19 26 -2 13 -14 21 -38 23
-65z m1290 -80 c-39 -59 -55 -74 -50 -48 2 10 4 18 5 18 1 0 3 20 5 45 2 25 7
64 10 88 l6 44 30 -47 30 -47 -36 -53z m-107 -14 c1 -1 -2 -10 -8 -22 -13 -23
-19 -21 -25 9 -3 18 3 21 33 13z m-1132 -88 c-16 -17 -82 -21 -78 -5 1 6 -2
12 -7 12 -9 0 0 48 14 69 3 6 23 -6 44 -27 28 -27 35 -40 27 -49z m1360 2 c9
-14 14 -29 10 -33 -4 -4 -12 1 -17 11 -6 9 -16 17 -24 17 -9 0 -12 6 -9 15 9
22 21 18 40 -10z m-384 2 c17 -14 148 -222 148 -235 0 -5 -21 -8 -47 -7 -27 1
-52 -1 -58 -4 -5 -3 -23 -6 -39 -7 -49 -4 -112 -33 -125 -57 -12 -22 -19 -47
-20 -74 -1 -7 -11 -22 -23 -33 -18 -16 -34 -20 -73 -19 -65 3 -109 17 -96 33
18 22 53 141 52 178 0 20 13 72 29 115 16 43 30 81 30 86 0 4 5 13 12 21 16
17 190 20 210 3z m498 -36 c-14 -27 -30 -36 -30 -17 0 8 8 20 18 25 23 14 24
14 12 -8z m-258 -77 c-14 -11 -18 -10 -26 5 -4 10 -19 24 -32 30 -21 9 -23 13
-12 30 11 18 13 17 50 -17 35 -32 36 -36 20 -48z m-1220 -23 c37 -38 38 -52 2
-57 -6 -1 -21 -5 -32 -8 -15 -5 -22 -1 -27 14 -7 23 2 90 12 90 3 0 23 -18 45
-39z m515 -86 c23 -25 40 -45 37 -45 -4 0 -2 -6 3 -12 12 -17 11 -107 -2 -110
-5 -2 -14 12 -20 30 -5 17 -13 32 -17 32 -4 0 -8 9 -8 19 0 11 -4 23 -10 26
-5 3 -10 17 -10 30 0 13 -4 26 -9 29 -10 7 -22 46 -13 46 3 0 25 -20 49 -45z
m928 35 c3 -5 1 -10 -4 -10 -6 0 -11 5 -11 10 0 6 2 10 4 10 3 0 8 -4 11 -10z
m-47 -69 c-2 -43 -4 -48 -18 -38 -8 6 -16 12 -18 13 -5 3 26 74 32 74 3 0 5
-22 4 -49z m112 3 c0 -17 -32 -27 -41 -12 -4 6 -5 16 -3 20 3 4 1 8 -4 8 -6 0
-12 7 -15 15 -5 11 0 11 28 -3 19 -9 35 -22 35 -28z m-1117 -56 c-9 -18 -30 5
-25 28 l5 25 12 -23 c6 -13 10 -26 8 -30z m977 8 c0 -3 -4 -8 -10 -11 -5 -3
-10 -1 -10 4 0 6 5 11 10 11 6 0 10 -2 10 -4z m-1070 -25 c-14 -26 -25 -32
-45 -25 -13 5 -11 10 12 25 37 23 46 23 33 0z"/>
</g>
</svg>
