<svg width="718" height="57" viewBox="0 0 718 57" fill="none" xmlns="http://www.w3.org/2000/svg">
<rect width="718" height="57" fill="white"/>
<g opacity="0.7" clip-path="url(#clip0)">
<path d="M689.012 17.6422C688.961 17.492 689.064 17.427 689.231 17.3701C693.539 15.9247 697.846 14.4712 702.154 13.0298C702.265 12.9933 702.416 12.9933 702.527 13.0298C706.942 14.4468 711.348 15.8679 715.763 17.2849C715.974 17.3498 716.017 17.4473 715.991 17.63C715.69 19.8184 715.394 22.0068 715.102 24.1953C714.81 26.3837 714.526 28.5721 714.243 30.7605C714.11 31.7634 713.977 32.7662 713.848 33.7691C713.822 33.9762 713.736 34.1061 713.526 34.2157C709.888 36.1077 706.255 38.0119 702.622 39.9162C702.411 40.0258 702.257 40.0339 702.038 39.9202C698.473 38.0404 694.909 36.1686 691.336 34.301C691.108 34.1832 691.005 34.0492 690.979 33.7935C690.838 32.4901 690.661 31.1868 690.503 29.8835C690.322 28.43 690.155 26.9765 689.974 25.5229C689.794 24.0613 689.614 22.5996 689.433 21.138C689.292 19.9849 689.158 18.8318 689.012 17.6422ZM702.334 16.075C699.538 21.9581 696.773 27.7682 694.011 33.5783C694.99 33.5783 695.927 33.5742 696.867 33.5823C697.082 33.5864 697.176 33.5092 697.254 33.3265C697.735 32.1735 698.229 31.0244 698.705 29.8673C698.783 29.6765 698.886 29.6237 699.096 29.6237C701.389 29.6318 703.678 29.6277 705.972 29.6196C706.186 29.6196 706.281 29.6846 706.362 29.8632C706.895 31.0447 707.44 32.2222 707.973 33.4037C708.046 33.5701 708.136 33.627 708.325 33.627C709.132 33.631 709.94 33.6554 710.747 33.6676C710.842 33.6676 710.94 33.6595 711.074 33.6554C708.158 27.7966 705.263 21.9703 702.334 16.075Z" fill="#969CA0"/>
<path d="M702.36 21.7617C701.531 23.6294 700.733 25.428 699.921 27.247C701.682 27.247 703.387 27.247 705.135 27.247C704.211 25.4199 703.301 23.6172 702.36 21.7617Z" fill="white"/>
<path d="M702.36 21.7617C703.301 23.6172 704.211 25.4199 705.135 27.247C703.387 27.247 701.682 27.247 699.921 27.247C700.728 25.428 701.531 23.6294 702.36 21.7617Z" fill="#969CA0"/>
</g>
<g opacity="0.7" clip-path="url(#clip1)">
<path d="M546.3 27.9847C543.954 28.3159 541.793 28.6209 539.632 28.9259C539.611 28.8824 539.585 28.8388 539.563 28.7952C544.483 23.5316 549.406 18.2636 554.325 13C554.368 13.0305 554.411 13.061 554.454 13.0871C552.358 17.1917 550.261 21.2919 548.096 25.5359C550.115 25.3486 551.975 25.1786 554.046 24.9869C549.277 30.4205 544.629 35.7102 539.985 41C539.954 40.9782 539.924 40.9521 539.894 40.9303C542.004 36.6732 544.109 32.4161 546.3 27.9847Z" fill="#969CA0"/>
<path d="M533.888 18.9739C535.392 18.9739 536.784 18.939 538.172 18.9913C538.717 19.0131 539.284 19.17 539.796 19.3835C540.599 19.7234 541.003 20.4118 540.874 21.2833C540.547 23.4663 539.693 25.3443 537.656 26.4336C537.342 26.6035 537.261 26.804 537.235 27.1264C537.089 28.939 536.921 30.7517 536.758 32.56C536.715 33.0131 536.659 33.4663 536.608 33.9499C535.731 33.9499 534.915 33.9499 533.974 33.9499C534.21 31.6929 534.438 29.4706 534.674 27.1961C534.284 27.1961 533.944 27.1961 533.523 27.1961C532.685 29.4053 531.835 31.6536 530.967 33.9412C530.082 33.9412 529.214 33.9412 528.256 33.9412C530.146 28.926 532.011 23.963 533.888 18.9739ZM535.899 20.8606C535.323 22.4031 534.79 23.8236 534.236 25.3094C534.705 25.3094 535.048 25.3443 535.392 25.3051C536.891 25.1351 538.305 23.292 538.15 21.7364C538.107 21.2963 537.862 21.0262 537.454 20.9696C536.96 20.8955 536.457 20.8955 535.899 20.8606Z" fill="#969CA0"/>
<path d="M511.127 33.9498C510.212 33.9498 509.392 33.9498 508.489 33.9498C508.726 31.6753 508.958 29.4531 509.194 27.1873C508.782 27.1873 508.446 27.1873 508.051 27.1873C507.201 29.4313 506.35 31.6797 505.486 33.9498C504.606 33.9498 503.759 33.9498 502.775 33.9498C504.666 28.9215 506.539 23.9498 508.404 18.9912C509.95 18.9912 511.428 18.8997 512.889 19.013C515.127 19.1873 515.84 20.3507 515.149 22.5163C514.612 24.1895 513.8 25.6622 512.146 26.4553C511.725 26.6557 511.763 27.0043 511.733 27.3398C511.557 29.3136 511.389 31.2875 511.213 33.2614C511.196 33.4749 511.162 33.684 511.127 33.9498ZM508.769 25.2701C511.179 25.6143 512.257 24.1895 512.644 22.05C512.721 21.6274 512.665 21.1437 512.189 21.0566C511.613 20.952 511.003 21.0086 510.41 21.013C510.367 21.013 510.32 21.1394 510.29 21.2134C509.787 22.5468 509.289 23.8801 508.769 25.2701Z" fill="#969CA0"/>
<path d="M579.768 29.2309C579.635 29.8104 579.502 30.2767 579.433 30.7516C579.352 31.2919 579.296 31.8584 579.854 32.2113C580.301 32.4945 581.066 32.3333 581.56 31.8802C582.488 31.0174 582.685 29.5141 581.964 28.4684C581.474 27.7582 580.954 27.0653 580.417 26.39C579.528 25.2745 579.373 24.0762 579.837 22.7255C580.765 20.0283 582.935 18.4858 585.719 18.6122C587.398 18.6906 588.193 19.6449 587.966 21.3486C587.897 21.854 587.759 22.3464 587.652 22.8518C586.797 23.0174 586.015 23.1699 585.13 23.3399C585.225 22.8562 585.319 22.451 585.388 22.037C585.555 20.9956 585.053 20.573 584.043 20.8388C582.913 21.1394 581.929 22.9433 582.806 24.146C583.235 24.7342 583.674 25.3181 584.12 25.8932C585.637 27.8322 585.77 29.6492 584.292 31.9673C583.008 33.9847 580.537 34.9826 578.432 34.4248C577.38 34.146 576.748 33.4357 576.748 32.329C576.748 31.61 576.933 30.8867 577.044 30.1677C577.092 29.8584 577.298 29.732 577.599 29.6797C578.278 29.5577 578.956 29.4009 579.768 29.2309Z" fill="#969CA0"/>
<path d="M571.051 29.2571C570.922 29.8672 570.784 30.3639 570.716 30.8693C570.647 31.3879 570.621 31.9499 571.184 32.2245C571.742 32.499 572.292 32.3334 572.761 31.9587C573.732 31.1874 573.985 29.5447 573.28 28.5033C572.812 27.8105 572.318 27.1308 571.781 26.4859C570.776 25.2789 570.643 23.9804 571.188 22.5295C572.163 19.9369 574.329 18.4641 577.044 18.6123C578.638 18.6994 579.364 19.5273 579.269 21.1438C579.265 21.1961 579.261 21.2528 579.257 21.3051C579.128 22.7778 579.093 22.817 577.645 23.0959C577.259 23.17 576.872 23.2441 576.404 23.3356C576.511 22.7909 576.627 22.3247 576.687 21.8497C576.791 21.0306 576.43 20.682 575.622 20.7778C574.204 20.9478 573.293 22.7604 574.028 24.0109C574.342 24.5425 574.754 25.0175 575.119 25.5186C575.201 25.6275 575.283 25.7321 575.368 25.841C576.98 27.8672 576.988 29.6493 575.661 31.8454C574.41 33.9107 571.931 34.9608 569.779 34.4292C568.666 34.1547 568.065 33.4096 567.996 32.2201C567.992 32.1373 567.983 32.0545 567.996 31.9761C568.116 31.3399 568.142 30.6602 568.391 30.0763C568.696 29.3574 569.521 29.658 570.093 29.4314C570.355 29.3312 570.66 29.3269 571.051 29.2571Z" fill="#969CA0"/>
<path d="M490.909 29.0785C490.793 29.6928 490.668 30.2157 490.608 30.7473C490.556 31.2092 490.552 31.719 491.072 31.9412C491.574 32.1547 492.073 32.0545 492.515 31.7233C493.456 31.0218 493.783 29.414 493.138 28.4249C492.683 27.7233 492.176 27.048 491.643 26.4074C490.659 25.2179 490.543 23.9499 491.085 22.5251C492.026 20.0719 494.032 18.6907 496.623 18.7778C498.238 18.8345 498.964 19.6406 498.87 21.2702C498.87 21.2963 498.865 21.3225 498.865 21.353C498.758 22.756 498.681 22.8432 497.319 23.1133C496.936 23.1874 496.55 23.2528 496.107 23.3355C496.214 22.7778 496.343 22.3116 496.386 21.8366C496.455 21.122 496.154 20.8432 495.441 20.8867C494.028 20.9695 493.07 22.7299 493.8 23.9761C494.169 24.6035 494.646 25.1656 495.085 25.7451C496.584 27.7233 496.687 29.5055 495.411 31.536C494.182 33.4968 491.892 34.5469 489.826 34.0981C488.606 33.8366 488.009 33.0828 488 31.7974C488 31.6362 488 31.4706 488.013 31.3094C488.133 29.7451 488.284 29.5752 489.796 29.2745C490.157 29.2005 490.518 29.1438 490.909 29.0785Z" fill="#969CA0"/>
<path d="M514.513 33.9935C515.393 28.9303 516.257 23.9717 517.121 19C517.954 19 518.719 19 519.552 19C518.934 22.3247 518.323 25.5926 517.713 28.865C517.739 28.878 517.761 28.8955 517.786 28.9085C517.89 28.7473 518.001 28.5905 518.091 28.4205C519.72 25.4881 521.357 22.5643 522.959 19.6188C523.247 19.0916 523.574 18.8824 524.158 18.939C524.656 18.9913 525.167 18.9478 525.752 18.9478C525.64 19.1961 525.58 19.3661 525.49 19.5229C522.809 24.1547 520.119 28.7822 517.447 33.4227C517.198 33.8541 516.923 34.0371 516.433 34.0022C515.832 33.963 515.222 33.9935 514.513 33.9935Z" fill="#969CA0"/>
<path d="M559.688 34.3115C561.651 29.1002 563.584 23.9629 565.522 18.8126C567.653 18.8126 569.736 18.8126 571.966 18.8126C571.7 19.5141 571.464 20.146 571.21 20.817C569.986 20.817 568.813 20.817 567.593 20.817C567.047 22.2592 566.514 23.671 565.921 25.2309C566.905 25.2309 567.79 25.2309 568.791 25.2309C568.516 25.9847 568.293 26.5904 568.052 27.2484C567.111 27.2484 566.183 27.2484 565.178 27.2484C564.538 28.939 563.911 30.5948 563.241 32.3551C564.491 32.3551 565.634 32.3551 566.91 32.3551C566.639 33.0828 566.407 33.6972 566.175 34.3115C564.005 34.3115 561.9 34.3115 559.688 34.3115Z" fill="#969CA0"/>
<path d="M501.194 18.9869C503.303 18.9869 505.305 18.9869 507.41 18.9869C507.165 19.6536 506.942 20.2549 506.701 20.9041C505.537 20.9041 504.394 20.9041 503.2 20.9041C502.663 22.3246 502.143 23.7059 501.58 25.1917C502.543 25.1917 503.389 25.1917 504.356 25.1917C504.094 25.8976 503.87 26.4946 503.625 27.1482C502.702 27.1482 501.799 27.1482 500.85 27.1482C500.235 28.7734 499.634 30.3595 498.99 32.0676C500.21 32.0676 501.318 32.0676 502.538 32.0676C502.281 32.7604 502.066 33.3355 501.834 33.9499C499.767 33.9499 497.718 33.9499 495.565 33.9499C497.451 28.9347 499.32 23.9717 501.194 18.9869Z" fill="#969CA0"/>
<path d="M526.679 18.9869C528.797 18.9869 530.799 18.9869 532.892 18.9869C532.647 19.6492 532.428 20.2462 532.183 20.9041C531.023 20.9041 529.884 20.9041 528.681 20.9041C528.144 22.3246 527.624 23.7059 527.066 25.1874C528.028 25.1874 528.875 25.1874 529.824 25.1874C529.571 25.8889 529.352 26.4902 529.12 27.1351C528.183 27.1351 527.281 27.1351 526.34 27.1351C525.726 28.7647 525.124 30.3508 524.488 32.0414C525.691 32.0414 526.782 32.0414 528.011 32.0414C527.758 32.7429 527.543 33.3355 527.324 33.9499C525.236 33.9499 523.191 33.9499 521.047 33.9499C522.937 28.9216 524.806 23.963 526.679 18.9869Z" fill="#969CA0"/>
<path d="M558.219 18.817C559.172 18.817 560.049 18.817 561.033 18.817C559.331 23.3355 557.66 27.7843 555.941 32.3551C557.187 32.3551 558.343 32.3551 559.615 32.3551C559.37 33.0087 559.198 33.5447 558.962 34.0501C558.893 34.1983 558.64 34.3421 558.472 34.3421C556.496 34.3639 554.519 34.3551 552.38 34.3551C554.343 29.122 556.268 23.9978 558.219 18.817Z" fill="#969CA0"/>
</g>
<g opacity="0.7" clip-path="url(#clip2)">
<path d="M77.4055 19C77.4055 24.2602 77.4055 29.5162 77.4099 34.7763C77.4099 34.8177 77.4055 34.8632 77.4012 34.9417C76.7441 35.041 76.087 35.1568 75.4299 35.2353C74.146 35.3842 72.8577 35.4628 71.5651 35.3511C70.6962 35.2767 69.8445 35.1113 69.0405 34.7763C67.6571 34.1974 66.719 33.2338 66.3083 31.8402C65.8976 30.459 65.8933 29.0613 66.3861 27.7008C67.1426 25.6165 68.7595 24.5124 70.9858 24.1609C71.8677 24.0244 72.7539 24.0162 73.6315 24.2064C73.6748 24.2147 73.718 24.2064 73.7742 24.2064C73.7828 24.1402 73.7915 24.0823 73.7915 24.0244C73.7915 22.3951 73.7915 20.7658 73.7915 19.1323C73.7915 19.091 73.7828 19.0455 73.7785 19.0041C74.9846 19 76.1951 19 77.4055 19ZM73.7915 29.7891C73.7915 28.9496 73.7828 28.106 73.7958 27.2665C73.8001 27.0515 73.718 26.9605 73.5148 26.9399C73.143 26.9068 72.7669 26.8323 72.3995 26.8489C71.3014 26.8944 70.4325 27.3203 69.9872 28.3335C69.663 29.0654 69.6327 29.8346 69.7883 30.6038C69.9958 31.6417 70.6184 32.353 71.7294 32.5267C72.3519 32.6259 73.0004 32.5556 73.6402 32.5598C73.8174 32.5598 73.7958 32.4274 73.7958 32.3117C73.7915 31.4722 73.7915 30.6286 73.7915 29.7891Z" fill="#969CA0"/>
<path d="M132 30.3597C131.909 30.8105 131.845 31.2737 131.719 31.7161C131.101 33.8955 129.225 35.3428 126.869 35.5165C125.827 35.5951 124.798 35.5496 123.804 35.227C122.144 34.6894 121.041 33.606 120.531 32.0097C120.038 30.4673 120.069 28.9082 120.657 27.3947C121.4 25.4759 122.909 24.4297 124.988 24.1112C126.073 23.9458 127.163 23.9789 128.226 24.2891C130.34 24.9135 131.499 26.3361 131.888 28.3789C131.931 28.6022 131.966 28.8255 132 29.0447C132 29.483 132 29.9214 132 30.3597ZM123.903 29.6774C123.903 30.5706 124.003 31.3398 124.495 32.0097C125.248 33.027 126.877 33.056 127.673 32.0759C128.075 31.5797 128.231 30.9966 128.291 30.3887C128.373 29.5327 128.33 28.6891 127.932 27.8951C127.582 27.1921 126.99 26.8034 126.173 26.7951C125.369 26.7868 124.742 27.1135 124.344 27.8C123.99 28.4161 123.899 29.0902 123.903 29.6774Z" fill="#969CA0"/>
<path d="M83.124 19C83.137 19.0579 83.1629 19.1158 83.1629 19.1778C83.1672 20.2447 83.1629 21.3158 83.1629 22.3827C83.1629 22.4241 83.1499 22.4654 83.1413 22.5233C81.9481 22.5233 80.7636 22.5233 79.5488 22.5233C79.5488 21.3406 79.5488 20.1703 79.5488 19C80.7377 19 81.9308 19 83.124 19Z" fill="#969CA0"/>
<path d="M115.154 34.9003C113.909 35.4255 112.676 35.471 111.431 35.2105C109.62 34.83 108.414 33.7714 107.908 32.0676C107.407 30.3804 107.506 28.7139 108.423 27.159C109.196 25.844 110.446 25.0955 111.907 24.6282C113.416 24.1485 114.972 24.0616 116.546 24.103C117.894 24.1361 119.226 24.3139 120.583 24.5827C120.484 24.7894 120.397 24.9755 120.307 25.1575C120.026 25.7282 119.736 26.2947 119.464 26.8654C119.39 27.0225 119.295 27.0639 119.122 27.0308C118.949 26.9936 118.763 26.9936 118.577 26.977C118.577 27.3327 118.573 27.6552 118.577 27.9778C118.599 30.2109 118.642 32.444 118.629 34.677C118.621 35.7646 118.487 36.8481 118.002 37.8571C117.22 39.474 115.85 40.3962 114.068 40.7601C112.076 41.1654 110.1 41.0579 108.167 40.4086C107.986 40.3466 107.912 40.268 107.917 40.0778C107.93 39.1143 107.921 38.1507 107.921 37.1706C108.362 37.3402 108.777 37.518 109.205 37.6545C110.351 38.0267 111.527 38.1425 112.724 37.9936C114.198 37.8116 115.015 36.9846 115.128 35.562C115.136 35.3594 115.145 35.1526 115.154 34.9003ZM115.119 26.824C114.617 26.8695 114.177 26.8695 113.753 26.9522C112.702 27.159 111.855 27.6511 111.501 28.6891C111.228 29.4913 111.233 30.3143 111.514 31.1165C111.795 31.9146 112.378 32.3943 113.251 32.5349C113.813 32.6259 114.358 32.5639 114.907 32.4274C115.102 32.3778 115.167 32.2992 115.162 32.1049C115.141 30.9056 115.128 29.7064 115.119 28.5071C115.115 27.9695 115.119 27.4278 115.119 26.824Z" fill="#969CA0"/>
<path d="M106.485 35.256C105.357 35.256 104.259 35.256 103.161 35.256C103.088 35.256 103.018 35.2477 102.91 35.2436C102.91 35.132 102.91 35.0327 102.91 34.9293C102.91 32.9237 102.91 30.9139 102.91 28.9083C102.91 28.6808 102.897 28.4534 102.876 28.2259C102.781 27.2872 102.314 26.8447 101.324 26.853C100.796 26.8571 100.273 26.9647 99.7458 27.0184C99.5426 27.0391 99.4821 27.1383 99.4821 27.3327C99.4951 28.2714 99.4864 29.2101 99.4864 30.1447C99.4864 31.7327 99.4864 33.3165 99.4864 34.9045C99.4864 35.0079 99.4864 35.1113 99.4864 35.2353C98.2803 35.2353 97.0915 35.2353 95.8896 35.2353C95.8896 31.7865 95.8896 28.3376 95.8896 24.8391C96.2917 24.7481 96.7154 24.6489 97.139 24.5579C98.6348 24.2353 100.152 24.0451 101.687 24.0741C102.296 24.0865 102.915 24.1485 103.511 24.2684C105.439 24.6613 106.447 25.7985 106.477 27.6801C106.52 30.1406 106.498 32.6053 106.507 35.0699C106.507 35.1195 106.498 35.1692 106.485 35.256Z" fill="#969CA0"/>
<path d="M85.324 27.7379C85.324 26.8736 85.3197 26.0342 85.3327 25.1947C85.3327 25.1285 85.458 25.0376 85.5445 25.0003C86.8068 24.4545 88.134 24.1402 89.5217 24.0782C90.4338 24.0368 91.333 24.0657 92.2063 24.347C93.3778 24.7191 93.9701 25.4552 94.0522 26.6338C94.0868 27.1135 94.1041 27.5973 94.1084 28.077C94.1128 30.2936 94.1128 32.5101 94.1128 34.7308C94.1128 34.8342 94.1128 34.9376 94.1128 35.0699C93.4384 35.1443 92.7899 35.2394 92.1328 35.2808C91.0175 35.3511 89.9021 35.4297 88.7868 35.4297C88.134 35.4297 87.4682 35.347 86.8327 35.1939C85.3672 34.8383 84.6323 33.9285 84.5891 32.4853C84.5761 32.0759 84.6021 31.6582 84.6885 31.2612C84.8787 30.3845 85.4623 29.7725 86.2708 29.3466C87.2305 28.8379 88.2896 28.627 89.3574 28.474C89.8286 28.4079 90.2998 28.3582 90.7927 28.3003C90.7927 27.986 90.81 27.6718 90.7883 27.3616C90.7624 27.0349 90.5506 26.7951 90.2177 26.7827C89.5822 26.7579 88.9381 26.7454 88.3069 26.8157C87.3299 26.9274 86.4048 27.25 85.5229 27.6635C85.471 27.6924 85.4105 27.7048 85.324 27.7379ZM90.9526 32.8699C90.9526 32.0966 90.9526 31.3439 90.9526 30.5706C90.6241 30.6079 90.3214 30.6161 90.0318 30.6823C89.4655 30.8146 88.8905 30.9387 88.3588 31.1496C87.8962 31.3315 87.7406 31.7864 87.84 32.2827C87.9178 32.6673 88.1988 32.9154 88.696 32.9815C89.4525 33.0891 90.2047 32.9939 90.9526 32.8699Z" fill="#969CA0"/>
<path d="M76.0127 38.5354C76.3802 38.3451 76.7001 38.1797 77.02 38.0143C78.4725 37.2493 79.2074 36.0293 79.3717 34.491C79.4711 33.5605 79.523 32.6218 79.5317 31.6872C79.5533 29.3466 79.5403 27.0102 79.5403 24.6696C79.5403 24.5662 79.5403 24.4628 79.5403 24.3387C80.7421 24.3387 81.9266 24.3387 83.1587 24.3387C83.1587 24.4256 83.1587 24.5166 83.1587 24.6117C83.1587 27.1508 83.1717 29.694 83.1544 32.2331C83.1457 33.4117 83.1414 34.5944 82.9166 35.7647C82.5578 37.6463 81.4986 39.0109 79.7175 39.8793C79.4582 40.0075 79.255 40.0199 78.9913 39.8959C78.0186 39.4327 77.0329 38.9944 76.0127 38.5354Z" fill="#969CA0"/>
</g>
<g opacity="0.7" clip-path="url(#clip3)">
<path d="M15.4017 17C8.54879 17 8.97612 19.9886 8.97612 19.9886L8.98398 23.0852H15.5249V24.0155H6.38596C6.38596 24.0155 2 23.5148 2 30.4671C2 37.4193 5.82756 37.1716 5.82756 37.1716H8.11098V33.9458C8.11098 33.9458 7.98777 30.0981 11.8782 30.0981H18.3641C18.3641 30.0981 22.0082 30.1561 22.0082 26.5561V20.6026C22.0108 20.6026 22.5639 17 15.4017 17ZM11.797 19.082C12.4471 19.082 12.9741 19.6117 12.9741 20.2653C12.9741 20.9189 12.4471 21.4486 11.797 21.4486C11.1468 21.4486 10.6199 20.9189 10.6199 20.2653C10.6199 19.6091 11.1442 19.082 11.797 19.082Z" fill="#969CA0"/>
<path d="M15.5958 44C22.4487 44 22.0214 41.0114 22.0214 41.0114L22.0135 37.9147H15.4752V36.9844H24.6142C24.6142 36.9844 29.0001 37.4852 29.0001 30.5329C29.0001 23.5806 25.1726 23.8284 25.1726 23.8284H22.8891V27.0541C22.8891 27.0541 23.0124 30.9019 19.1219 30.9019H12.6334C12.6334 30.9019 8.98934 30.8439 8.98934 34.4439V40.3973C8.98672 40.3973 8.43356 44 15.5958 44ZM19.2031 41.918C18.553 41.918 18.026 41.3882 18.026 40.7347C18.026 40.0811 18.553 39.5514 19.2031 39.5514C19.8533 39.5514 20.3803 40.0811 20.3803 40.7347C20.3803 41.3909 19.8533 41.918 19.2031 41.918Z" fill="#969CA0"/>
</g>
<g opacity="0.7" clip-path="url(#clip4)">
<path d="M202.846 20.9993C202.801 20.9993 202.75 21.0093 202.71 21.0344C202.63 21.0847 202.574 21.1701 202.574 21.2655V28.1279C202.574 28.1932 202.544 28.2535 202.484 28.2887C202.423 28.3238 202.353 28.3238 202.293 28.2887L201.171 27.6406C201.005 27.5452 200.798 27.5452 200.632 27.6406L196.149 30.2228C195.983 30.3183 195.877 30.5041 195.877 30.7001V35.8695C195.877 36.0604 195.978 36.2412 196.149 36.3367L200.632 38.9189C200.798 39.0143 201.005 39.0143 201.171 38.9189L205.654 36.3367C205.82 36.2412 205.925 36.0654 205.925 35.8695V22.9836C205.925 22.7877 205.82 22.6018 205.649 22.5064L202.982 21.0194C202.942 21.0043 202.891 20.9993 202.846 20.9993ZM174 27.4497C173.915 27.4548 173.834 27.4698 173.759 27.515L169.276 30.0972C169.11 30.1927 169.004 30.3685 169.004 30.5644L169.014 37.5022C169.014 37.5977 169.064 37.6881 169.15 37.7333C169.235 37.7835 169.336 37.7835 169.422 37.7333L172.083 36.2061C172.249 36.1056 172.36 35.9298 172.36 35.7389V32.4986C172.36 32.3077 172.461 32.1268 172.632 32.0314L173.764 31.3783C173.849 31.328 173.94 31.3079 174.035 31.3079C174.126 31.3079 174.222 31.3331 174.307 31.3783L175.439 32.0314C175.605 32.1268 175.711 32.3026 175.711 32.4986V35.7389C175.711 35.9298 175.822 36.1056 175.988 36.2061L178.649 37.7333C178.735 37.7835 178.836 37.7835 178.921 37.7333C179.002 37.6881 179.057 37.5977 179.057 37.5022L179.067 30.5644C179.067 30.3685 178.966 30.1927 178.795 30.0972L174.312 27.515C174.237 27.4698 174.156 27.4548 174.071 27.4497H174ZM214.298 27.515C214.202 27.515 214.112 27.5402 214.026 27.5854L209.543 30.1675C209.377 30.263 209.271 30.4388 209.271 30.6348V35.8042C209.271 36.0001 209.382 36.1759 209.548 36.2714L213.996 38.8033C214.162 38.8988 214.363 38.9038 214.524 38.8134L217.221 37.3163C217.307 37.2711 217.367 37.1807 217.367 37.0852C217.367 36.9898 217.317 36.8993 217.231 36.8541L212.718 34.272C212.632 34.2217 212.572 34.1262 212.572 34.0308V32.4132C212.572 32.3177 212.632 32.2273 212.718 32.1821L214.122 31.3733C214.207 31.323 214.308 31.323 214.393 31.3733L215.797 32.1821C215.883 32.2323 215.933 32.3177 215.933 32.4132V33.6892C215.933 33.7846 215.983 33.8751 216.069 33.9203C216.154 33.9705 216.255 33.9705 216.341 33.9203L219.027 32.3579C219.194 32.2625 219.299 32.0816 219.299 31.8907V30.6448C219.299 30.4539 219.199 30.2731 219.027 30.1776L214.57 27.5954C214.484 27.5351 214.388 27.515 214.298 27.515ZM200.889 31.3733C200.914 31.3733 200.939 31.3783 200.959 31.3933L202.494 32.2825C202.534 32.3077 202.564 32.3529 202.564 32.3981V34.1765C202.564 34.2267 202.534 34.2669 202.494 34.292L200.959 35.1812C200.919 35.2064 200.869 35.2064 200.823 35.1812L199.289 34.292C199.249 34.2669 199.218 34.2217 199.218 34.1765V32.3981C199.218 32.3478 199.249 32.3077 199.289 32.2825L200.823 31.3933C200.844 31.3783 200.864 31.3733 200.889 31.3733Z" fill="#969CA0"/>
<path d="M227.731 27.3896C227.575 27.3896 227.424 27.4198 227.288 27.4951L223.057 29.9367C222.785 30.0924 222.614 30.3938 222.614 30.7103V35.5833C222.614 35.8998 222.78 36.1962 223.057 36.357L224.164 36.995C224.702 37.2613 224.899 37.2562 225.145 37.2562C225.94 37.2562 226.393 36.774 226.393 35.935V31.1273C226.393 31.057 226.332 31.0117 226.267 31.0117H225.739C225.668 31.0117 225.613 31.062 225.613 31.1273V35.935C225.613 36.3068 225.226 36.6785 224.597 36.367L223.444 35.6938C223.404 35.6738 223.374 35.6336 223.374 35.5884V30.7154C223.374 30.6701 223.404 30.6199 223.444 30.5998L227.666 28.1683C227.706 28.1432 227.751 28.1432 227.792 28.1683L232.013 30.5998C232.053 30.6249 232.084 30.6701 232.084 30.7154V35.5884C232.084 35.6336 232.058 35.6838 232.018 35.7039L227.787 38.1354C227.751 38.1555 227.701 38.1555 227.661 38.1354L226.574 37.4873C226.544 37.4672 226.499 37.4722 226.468 37.4873C226.166 37.6581 226.111 37.6782 225.829 37.7737C225.759 37.7988 225.653 37.834 225.865 37.9545L227.283 38.7885C227.419 38.8689 227.57 38.904 227.726 38.904C227.882 38.904 228.033 38.8638 228.169 38.7885L232.401 36.357C232.672 36.1962 232.843 35.8998 232.843 35.5833V30.7103C232.843 30.3938 232.677 30.0974 232.401 29.9367L228.169 27.4951C228.038 27.4198 227.887 27.3896 227.731 27.3896ZM187.469 27.4901C187.373 27.4901 187.283 27.5152 187.197 27.5604L182.714 30.1376C182.548 30.2331 182.442 30.4189 182.442 30.6149V35.7843C182.442 35.9752 182.543 36.1561 182.714 36.2515L187.197 38.8337C187.363 38.9291 187.57 38.9291 187.736 38.8337L192.219 36.2515C192.385 36.1561 192.49 35.9802 192.49 35.7843V30.6149C192.49 30.424 192.39 30.2381 192.219 30.1376L187.736 27.5604C187.655 27.5102 187.564 27.4901 187.469 27.4901ZM234.011 27.5152V27.6408H234.363V28.5652H234.509V27.6408H234.866V27.5152H234.011ZM234.992 27.5152V28.5652H235.128V27.9473C235.128 27.9222 235.128 27.882 235.128 27.8317C235.128 27.7765 235.128 27.7313 235.128 27.7061V27.681L235.424 28.5702H235.57L235.877 27.681C235.877 27.7363 235.867 27.7915 235.867 27.8418C235.867 27.892 235.867 27.9272 235.867 27.9473V28.5652H236.003V27.5152H235.807L235.5 28.4044L235.203 27.5152H234.992ZM228.863 30.8711C227.656 30.8711 226.941 31.3835 226.941 32.2325C226.941 33.1569 227.656 33.408 228.813 33.5236C230.197 33.6592 230.307 33.8602 230.307 34.1315C230.307 34.6037 229.93 34.8047 229.039 34.8047C227.922 34.8047 227.676 34.5233 227.59 33.9707C227.58 33.9104 227.535 33.8652 227.475 33.8652H226.926C226.861 33.8652 226.8 33.9255 226.8 33.9908C226.8 34.7042 227.188 35.5431 229.039 35.5431C230.378 35.5431 231.153 35.0207 231.153 34.0963C231.153 33.182 230.529 32.9408 229.231 32.77C227.917 32.5942 227.792 32.5138 227.792 32.2024C227.792 31.9512 227.897 31.6096 228.868 31.6096C229.739 31.6096 230.056 31.7955 230.192 32.3832C230.202 32.4385 230.252 32.4837 230.307 32.4837H230.856C230.891 32.4837 230.921 32.4636 230.946 32.4385C230.972 32.4134 230.987 32.3832 230.982 32.3481C230.891 31.3433 230.217 30.8711 228.863 30.8711ZM214.287 32.1019C214.267 32.1019 214.247 32.1019 214.232 32.1119L213.371 32.6143C213.341 32.6344 213.316 32.6645 213.316 32.7047V33.6894C213.316 33.7246 213.336 33.7597 213.371 33.7798L214.232 34.2722C214.262 34.2922 214.297 34.2922 214.332 34.2722L215.193 33.7798C215.223 33.7597 215.248 33.7296 215.248 33.6894V32.7047C215.248 32.6696 215.228 32.6344 215.193 32.6143L214.332 32.1119C214.317 32.1019 214.302 32.1019 214.287 32.1019Z" fill="#969CA0"/>
</g>
<g opacity="0.7" clip-path="url(#clip5)">
<path fill-rule="evenodd" clip-rule="evenodd" d="M282.388 40.7081L278.103 39.1359V32.7026L282.388 34.196V40.7081Z" fill="#969CA0"/>
<path fill-rule="evenodd" clip-rule="evenodd" d="M283.175 40.7081L287.46 39.1359V32.7026L283.175 34.196V40.7081Z" fill="#969CA0"/>
<path fill-rule="evenodd" clip-rule="evenodd" d="M278.543 32.2209L282.88 30.9728L286.9 32.2997L282.88 33.6967L278.543 32.2209Z" fill="#969CA0"/>
<path fill-rule="evenodd" clip-rule="evenodd" d="M277.286 31.7216L273 30.1494V23.7162L277.286 25.2139V31.7216Z" fill="#969CA0"/>
<path fill-rule="evenodd" clip-rule="evenodd" d="M278.072 31.7216L282.358 30.1494V23.7162L278.072 25.2139V31.7216Z" fill="#969CA0"/>
<path fill-rule="evenodd" clip-rule="evenodd" d="M273.44 23.2344L277.777 21.9863L281.802 23.3133L277.777 24.7103L273.44 23.2344Z" fill="#969CA0"/>
<path fill-rule="evenodd" clip-rule="evenodd" d="M287.286 31.7216L283 30.1494V23.7162L287.286 25.2139V31.7216Z" fill="#969CA0"/>
<path fill-rule="evenodd" clip-rule="evenodd" d="M288.072 31.7216L292.358 30.1494V23.7162L288.072 25.2139V31.7216Z" fill="#969CA0"/>
<path fill-rule="evenodd" clip-rule="evenodd" d="M283.44 23.2344L287.777 21.9863L291.802 23.3133L287.777 24.7103L283.44 23.2344Z" fill="#969CA0"/>
<path fill-rule="evenodd" clip-rule="evenodd" d="M292.388 22.7397L288.103 21.1631V14.7299L292.388 16.2276V22.7397Z" fill="#969CA0"/>
<path fill-rule="evenodd" clip-rule="evenodd" d="M293.175 22.7397L297.46 21.1631V14.7299L293.175 16.2276V22.7397Z" fill="#969CA0"/>
<path fill-rule="evenodd" clip-rule="evenodd" d="M288.543 14.2481L292.88 13L296.905 14.3269L292.88 15.724L288.543 14.2481Z" fill="#969CA0"/>
<path fill-rule="evenodd" clip-rule="evenodd" d="M302.387 22.7397L298.102 21.1631V14.7299L302.387 16.2276V22.7397Z" fill="#969CA0"/>
<path fill-rule="evenodd" clip-rule="evenodd" d="M303.174 22.7397L307.459 21.1631V14.7299L303.174 16.2276V22.7397Z" fill="#969CA0"/>
<path fill-rule="evenodd" clip-rule="evenodd" d="M298.542 14.2481L302.879 13L306.904 14.3269L302.879 15.724L298.542 14.2481Z" fill="#969CA0"/>
<path d="M300.21 36.5171L298.769 41.6409H298.145L297.024 37.8353L295.998 41.6409H295.36L293.863 36.5215H294.637L295.728 40.3359L296.767 36.5215H297.336L298.465 40.349L299.586 36.5215H300.21V36.5171Z" fill="#969CA0" stroke="#969CA0"/>
<path d="M304.192 40.1125L304.914 40.2658C304.782 40.7037 304.525 41.0672 304.145 41.3519C303.764 41.6409 303.311 41.7811 302.793 41.7811C302.109 41.7811 301.557 41.5358 301.138 41.041C300.714 40.5505 300.505 39.9023 300.505 39.1053C300.505 38.2907 300.723 37.6294 301.164 37.1302C301.6 36.6266 302.152 36.377 302.814 36.377C303.469 36.377 303.991 36.6091 304.388 37.0689C304.786 37.5331 304.987 38.225 305 39.1447H301.369C301.369 39.9198 301.527 40.441 301.844 40.7125C302.16 40.984 302.494 41.1198 302.844 41.1198C303.482 41.1198 303.931 40.7826 304.192 40.1125ZM304.149 38.5535C304.14 38.2644 304.098 38.0104 304.012 37.7871C303.926 37.5638 303.781 37.3754 303.576 37.2178C303.37 37.0601 303.127 36.9813 302.84 36.9813C302.455 36.9813 302.126 37.1214 301.861 37.4061C301.591 37.6908 301.442 38.0718 301.407 38.5491H304.149V38.5535Z" fill="#969CA0" stroke="#969CA0"/>
<path d="M306.399 41.6409H306.022V34.726H306.801V37.3711C307.156 36.7054 307.648 36.377 308.272 36.377C308.845 36.377 309.324 36.6091 309.714 37.0733C310.098 37.5375 310.295 38.2119 310.295 39.0922C310.295 39.8542 310.103 40.4935 309.726 41.0059C309.346 41.5227 308.85 41.7811 308.242 41.7811C307.562 41.7811 307.045 41.4526 306.681 40.7913L306.399 41.6409ZM306.801 39.6308C306.835 40.1563 306.993 40.5373 307.271 40.7738C307.549 41.0103 307.844 41.1285 308.152 41.1285C308.55 41.1285 308.867 40.9534 309.11 40.603C309.354 40.2527 309.474 39.7709 309.474 39.1578C309.474 38.4966 309.359 37.9798 309.123 37.6032C308.888 37.2266 308.563 37.0382 308.148 37.0382C307.823 37.0382 307.528 37.174 307.267 37.4411C307.006 37.7083 306.848 38.0586 306.801 38.4834V39.6308V39.6308Z" fill="#969CA0" stroke="#969CA0"/>
<path d="M312.28 40.314L313.024 40.1563C313.191 40.8001 313.713 41.1198 314.59 41.1198C314.915 41.1198 315.189 41.0453 315.411 40.8964C315.638 40.7475 315.749 40.5373 315.749 40.2702C315.749 39.8673 315.462 39.6133 314.894 39.5082L313.841 39.3024C313.431 39.2191 313.101 39.0615 312.858 38.825C312.614 38.5885 312.49 38.2776 312.49 37.8878C312.49 37.4587 312.657 37.0995 312.99 36.8105C313.324 36.5215 313.773 36.377 314.338 36.377C315.424 36.377 316.091 36.8105 316.348 37.6776L315.633 37.8353C315.428 37.3054 315.009 37.0382 314.372 37.0382C314.055 37.0382 313.794 37.1039 313.593 37.2397C313.392 37.3711 313.29 37.5594 313.29 37.7959C313.29 38.1725 313.551 38.409 314.068 38.5053L315.043 38.6892C316.061 38.8776 316.57 39.3856 316.57 40.2089C316.57 40.6775 316.382 41.0585 316.001 41.3475C315.621 41.6365 315.116 41.7811 314.487 41.7811C313.294 41.7811 312.563 41.2906 312.28 40.314Z" fill="#969CA0" stroke="#969CA0"/>
<path d="M320.706 40.1125L321.429 40.2658C321.296 40.7037 321.04 41.0672 320.659 41.3519C320.278 41.6409 319.825 41.7811 319.312 41.7811C318.627 41.7811 318.076 41.5358 317.656 41.041C317.233 40.5505 317.023 39.9023 317.023 39.1053C317.023 38.2907 317.242 37.6294 317.682 37.1302C318.118 36.6266 318.67 36.377 319.333 36.377C319.983 36.377 320.509 36.6091 320.907 37.0689C321.305 37.5331 321.506 38.225 321.519 39.1447H317.887C317.887 39.9198 318.046 40.441 318.362 40.7125C318.679 40.984 319.012 41.1198 319.367 41.1198C320 41.1198 320.445 40.7826 320.706 40.1125ZM320.663 38.5535C320.655 38.2644 320.612 38.0104 320.526 37.7871C320.441 37.5638 320.295 37.3754 320.09 37.2178C319.885 37.0601 319.641 36.9813 319.354 36.9813C318.969 36.9813 318.64 37.1214 318.375 37.4061C318.106 37.6908 317.956 38.0718 317.922 38.5491H320.663V38.5535Z" fill="#969CA0" stroke="#969CA0"/>
<path d="M323.131 41.6409H322.353V36.5171H323.037V37.7127C323.276 37.1521 323.52 36.793 323.76 36.6266C324.003 36.4602 324.252 36.377 324.504 36.377C324.581 36.377 324.684 36.3813 324.812 36.3945V37.1565H324.654C324.226 37.1565 323.871 37.3185 323.589 37.647C323.306 37.971 323.152 38.4002 323.135 38.9301V41.6409H323.131Z" fill="#969CA0" stroke="#969CA0"/>
<path d="M329.653 36.5171L327.925 41.6365H327.117L325.333 36.5171H326.197L327.587 40.6775L328.964 36.5171H329.653Z" fill="#969CA0" stroke="#969CA0"/>
<path d="M331.107 34.726V35.6106H330.273V34.726H331.107ZM331.09 36.5171V41.6409H330.312V36.5171H331.09Z" fill="#969CA0" stroke="#969CA0"/>
<path d="M335.162 39.8454L335.863 39.9724C335.765 40.5373 335.547 40.9796 335.205 41.2993C334.867 41.619 334.439 41.7811 333.935 41.7811C333.246 41.7811 332.72 41.5183 332.361 41.0015C332.001 40.4804 331.817 39.8454 331.817 39.0921C331.817 38.3126 332.01 37.6689 332.391 37.1521C332.771 36.6353 333.289 36.377 333.947 36.377C334.491 36.377 334.927 36.5434 335.256 36.8762C335.585 37.209 335.786 37.6382 335.868 38.1681L335.166 38.3039C335.034 37.4586 334.636 37.0339 333.969 37.0339C333.541 37.0339 333.212 37.2222 332.981 37.5944C332.75 37.9667 332.634 38.4528 332.634 39.044C332.634 39.7009 332.75 40.2089 332.976 40.5724C333.207 40.9358 333.528 41.1154 333.943 41.1154C334.58 41.1198 334.987 40.695 335.162 39.8454Z" fill="#969CA0" stroke="#969CA0"/>
<path d="M340.256 40.1125L340.979 40.2658C340.846 40.7037 340.589 41.0672 340.209 41.3519C339.828 41.6409 339.375 41.7811 338.861 41.7811C338.177 41.7811 337.625 41.5358 337.206 41.041C336.783 40.5505 336.573 39.9023 336.573 39.1053C336.573 38.2907 336.791 37.6294 337.232 37.1302C337.668 36.6266 338.22 36.377 338.883 36.377C339.537 36.377 340.059 36.6091 340.457 37.0689C340.855 37.5331 341.056 38.225 341.068 39.1447H337.437C337.437 39.9198 337.595 40.441 337.912 40.7125C338.228 40.984 338.562 41.1198 338.917 41.1198C339.546 41.1198 339.995 40.7826 340.256 40.1125ZM340.213 38.5535C340.204 38.2644 340.162 38.0104 340.076 37.7871C339.991 37.5638 339.845 37.3754 339.64 37.2178C339.435 37.0601 339.191 36.9813 338.904 36.9813C338.519 36.9813 338.19 37.1214 337.925 37.4061C337.655 37.6908 337.506 38.0718 337.471 38.5491H340.213V38.5535Z" fill="#969CA0" stroke="#969CA0"/>
<path d="M341.505 40.314L342.249 40.1563C342.416 40.8001 342.938 41.1198 343.814 41.1198C344.14 41.1198 344.413 41.0453 344.636 40.8964C344.862 40.7475 344.974 40.5373 344.974 40.2702C344.974 39.8673 344.687 39.6133 344.118 39.5082L343.066 39.3024C342.655 39.2191 342.326 39.0615 342.082 38.825C341.838 38.5885 341.714 38.2776 341.714 37.8878C341.714 37.4587 341.881 37.0995 342.215 36.8105C342.548 36.5215 342.998 36.377 343.562 36.377C344.648 36.377 345.316 36.8105 345.572 37.6776L344.858 37.8353C344.653 37.3054 344.234 37.0382 343.596 37.0382C343.28 37.0382 343.019 37.1039 342.818 37.2397C342.617 37.3711 342.514 37.5594 342.514 37.7959C342.514 38.1725 342.775 38.409 343.293 38.5053L344.268 38.6892C345.286 38.8776 345.795 39.3856 345.795 40.2089C345.795 40.6775 345.607 41.0585 345.226 41.3475C344.845 41.6365 344.341 41.7811 343.712 41.7811C342.519 41.7811 341.783 41.2906 341.505 40.314Z" fill="#969CA0" stroke="#969CA0"/>
<path fill-rule="evenodd" clip-rule="evenodd" d="M323.944 25.573V24.3424C323.944 24.1541 324.081 24.0315 324.247 24.0315H329.632C329.803 24.0315 329.944 24.1585 329.944 24.3424V25.3978C329.944 25.573 329.799 25.8051 329.538 26.173L326.749 30.2502C327.784 30.2239 328.879 30.3859 329.82 30.9246C330.034 31.0472 330.09 31.2268 330.107 31.4063V32.7201C330.107 32.8997 329.914 33.1099 329.709 33.0004C328.05 32.1114 325.851 32.015 324.021 33.0091C323.832 33.1099 323.636 32.904 323.636 32.7245V31.4764C323.636 31.2749 323.64 30.9333 323.837 30.6312L327.07 25.884H324.256C324.081 25.884 323.944 25.757 323.944 25.573Z" fill="#969CA0"/>
<path fill-rule="evenodd" clip-rule="evenodd" d="M304.671 33.2588H303.033C302.879 33.2501 302.751 33.1275 302.738 32.9742V24.3644C302.738 24.1936 302.879 24.0535 303.055 24.0535H304.582C304.74 24.0622 304.868 24.1848 304.881 24.3425V25.468H304.911C305.309 24.3819 306.057 23.8739 307.067 23.8739C308.093 23.8739 308.735 24.3819 309.192 25.468C309.59 24.3819 310.493 23.8739 311.455 23.8739C312.143 23.8739 312.892 24.1629 313.35 24.8155C313.871 25.5381 313.764 26.5891 313.764 27.5131V32.9435C313.764 33.1143 313.623 33.2545 313.448 33.2545H311.81C311.647 33.2457 311.515 33.1099 311.515 32.9435V28.3802C311.515 28.0168 311.545 27.1102 311.468 26.7686C311.344 26.1906 310.98 26.0242 310.505 26.0242C310.108 26.0242 309.693 26.2957 309.526 26.7292C309.359 27.1628 309.372 27.8898 309.372 28.3759V32.9391C309.372 33.1099 309.231 33.2501 309.055 33.2501H307.417C307.255 33.2413 307.122 33.1056 307.122 32.9391V28.3759C307.122 27.4168 307.276 26.0023 306.113 26.0023C304.937 26.0023 304.979 27.3774 304.979 28.3759V32.9391C304.988 33.1187 304.847 33.2588 304.671 33.2588Z" fill="#969CA0"/>
<path fill-rule="evenodd" clip-rule="evenodd" d="M333.897 23.8739C336.309 23.8739 337.614 26.011 337.614 28.7306C337.614 31.3582 336.172 33.4428 333.897 33.4428C331.532 33.4428 330.24 31.3056 330.24 28.643C330.24 25.9585 331.545 23.8739 333.897 23.8739ZM333.914 25.8534C332.717 25.8534 332.64 27.5394 332.64 28.5905C332.64 29.6415 332.623 31.6648 333.897 31.6648C335.155 31.6648 335.219 30.0751 335.219 28.9715C335.219 28.2489 335.189 27.3774 334.975 26.6898C334.791 26.0898 334.427 25.8534 333.914 25.8534Z" fill="#969CA0"/>
<path fill-rule="evenodd" clip-rule="evenodd" d="M341.103 33.2587H339.469C339.307 33.25 339.174 33.1142 339.174 32.9478L339.17 24.338C339.183 24.1803 339.32 24.0577 339.486 24.0577H341.005C341.146 24.0665 341.266 24.1672 341.296 24.2986V25.6168H341.326C341.783 24.4387 342.425 23.8782 343.558 23.8782C344.294 23.8782 345.012 24.1497 345.47 24.8942C345.898 25.5817 345.898 26.7423 345.898 27.5743V32.9916C345.881 33.1449 345.744 33.2631 345.585 33.2631H343.943C343.793 33.2543 343.669 33.1405 343.652 32.9916V28.3101C343.652 27.3685 343.759 25.9934 342.626 25.9934C342.228 25.9934 341.86 26.2649 341.676 26.681C341.445 27.2065 341.415 27.732 341.415 28.3101V32.9434C341.42 33.1186 341.278 33.2587 341.103 33.2587Z" fill="#969CA0"/>
<path fill-rule="evenodd" clip-rule="evenodd" d="M319.834 29.1466C319.834 29.7991 319.851 30.3465 319.526 30.9246C319.265 31.3976 318.85 31.6866 318.393 31.6866C317.764 31.6866 317.396 31.1961 317.396 30.4691C317.396 29.0415 318.649 28.7787 319.834 28.7787V29.1466ZM321.489 33.2369C321.382 33.3376 321.224 33.342 321.104 33.2763C320.561 32.8121 320.463 32.5975 320.163 32.1596C319.265 33.0967 318.628 33.377 317.464 33.377C316.087 33.377 315.014 32.5055 315.014 30.7625C315.014 29.4006 315.732 28.4765 316.759 28.0211C317.648 27.6226 318.889 27.5481 319.838 27.4386V27.2197C319.838 26.8211 319.868 26.3482 319.637 26.0022C319.436 25.6956 319.055 25.5643 318.718 25.5643C318.093 25.5643 317.537 25.8927 317.4 26.5715C317.37 26.7248 317.263 26.8737 317.114 26.8781L315.527 26.7029C315.394 26.6722 315.245 26.5628 315.283 26.3525C315.647 24.3818 317.387 23.7863 318.944 23.7863C319.74 23.7863 320.783 24.0052 321.412 24.6227C322.208 25.3847 322.131 26.4007 322.131 27.5087V30.1232C322.131 30.9071 322.451 31.253 322.751 31.6778C322.853 31.8311 322.879 32.0107 322.747 32.1245C322.413 32.4136 321.818 32.9435 321.489 33.2369Z" fill="#969CA0"/>
<path fill-rule="evenodd" clip-rule="evenodd" d="M298.547 29.1466C298.547 29.7991 298.564 30.3465 298.239 30.9246C297.978 31.3976 297.563 31.6866 297.106 31.6866C296.477 31.6866 296.109 31.1961 296.109 30.4691C296.109 29.0415 297.362 28.7787 298.547 28.7787V29.1466V29.1466ZM300.198 33.2369C300.091 33.3376 299.933 33.342 299.813 33.2763C299.27 32.8121 299.172 32.5975 298.872 32.1596C297.974 33.0967 297.337 33.377 296.173 33.377C294.796 33.377 293.723 32.5055 293.723 30.7625C293.723 29.4006 294.441 28.4765 295.468 28.0211C296.357 27.6226 297.598 27.5481 298.547 27.4386V27.2197C298.547 26.8211 298.577 26.3482 298.346 26.0022C298.145 25.6956 297.764 25.5643 297.427 25.5643C296.802 25.5643 296.246 25.8927 296.109 26.5715C296.079 26.7248 295.972 26.8737 295.823 26.8781L294.236 26.7029C294.103 26.6722 293.954 26.5628 293.992 26.3525C294.356 24.3818 296.096 23.7863 297.653 23.7863C298.449 23.7863 299.492 24.0052 300.121 24.6227C300.917 25.3847 300.84 26.4007 300.84 27.5087V30.1232C300.84 30.9071 301.16 31.253 301.46 31.6778C301.562 31.8311 301.588 32.0107 301.455 32.1245C301.126 32.4136 300.532 32.9435 300.198 33.2369Z" fill="#969CA0"/>
</g>
<g opacity="0.7" clip-path="url(#clip6)">
<path d="M640.914 25.9759C640.914 27.3066 639.836 28.3834 638.505 28.3834C637.173 28.3834 636.096 27.3066 636.096 25.9759C636.096 24.6453 637.173 23.5685 638.505 23.5685C639.832 23.5685 640.914 24.6453 640.914 25.9759Z" fill="#969CA0"/>
<path d="M643.98 38.0007C643.529 38.0007 643.038 37.9088 642.508 37.7205C641.5 37.366 640.384 36.6788 639.28 35.7289C639.039 35.5188 638.793 35.3 638.553 35.0636C638.364 35.2474 638.176 35.4181 637.988 35.5845C636.844 36.5825 635.67 37.3135 634.588 37.6943C634.023 37.8956 633.498 37.9919 633.02 37.9919C632.53 37.9919 632.096 37.8869 631.732 37.6768C631.032 37.2741 630.55 36.4599 630.34 35.3262C630.142 34.2757 630.182 32.9669 630.453 31.5356C630.515 31.2204 630.585 30.9009 630.664 30.5682C630.41 30.4982 630.169 30.4194 629.932 30.3406C628.495 29.8504 627.273 29.1982 626.406 28.4541C625.486 27.6662 625 26.8083 625 25.9766C625 25.1668 625.464 24.3439 626.34 23.5954C627.155 22.8995 628.307 22.2823 629.683 21.8008C630.002 21.6914 630.335 21.5863 630.681 21.4856C630.607 21.1836 630.541 20.886 630.484 20.5927C630.199 19.1438 630.147 17.8088 630.331 16.7408C630.532 15.5765 631.01 14.7448 631.715 14.3377C632.446 13.9131 633.45 13.9219 634.615 14.3552C635.697 14.7579 636.892 15.5239 638.066 16.5657C638.215 16.697 638.364 16.8371 638.513 16.9771C638.737 16.7627 638.96 16.5569 639.183 16.36C640.3 15.3882 641.426 14.6791 642.447 14.3071C643.555 13.9 644.518 13.9 645.219 14.3027C645.951 14.7229 646.45 15.594 646.652 16.8196C646.844 17.9576 646.774 19.3758 646.459 20.9122C646.42 21.1048 646.376 21.3018 646.328 21.5031C646.625 21.5907 646.915 21.6782 647.195 21.7745C648.592 22.256 649.77 22.8776 650.607 23.5735C651.514 24.3308 651.996 25.1624 651.996 25.9766C651.996 26.8214 651.488 27.6881 650.528 28.476C649.635 29.2113 648.378 29.8591 646.888 30.3538C646.726 30.4063 646.56 30.4588 646.389 30.5113C646.45 30.7565 646.503 30.9972 646.551 31.2336C646.844 32.7218 646.893 34.105 646.682 35.2299C646.459 36.4249 645.964 37.2741 645.241 37.6899C644.882 37.8956 644.457 38.0007 643.98 38.0007ZM639.354 34.2363C639.582 34.4552 639.805 34.6609 640.033 34.8535C641.027 35.7114 642.017 36.3242 642.893 36.6306C643.642 36.8933 644.273 36.9151 644.667 36.6875C645.084 36.4468 645.395 35.8515 645.552 35.0111C645.736 34.0306 645.688 32.7962 645.421 31.4481C645.377 31.2336 645.329 31.0191 645.276 30.7959C644.567 30.9578 643.809 31.0979 643.007 31.2029C642.556 31.2642 642.092 31.3167 641.623 31.3561C641.33 31.7851 641.027 32.1922 640.73 32.5861C640.265 33.1902 639.81 33.7417 639.354 34.2363ZM631.785 30.8528C631.711 31.1592 631.64 31.4612 631.588 31.7501C631.343 33.0413 631.303 34.2057 631.474 35.1161C631.619 35.8953 631.916 36.4512 632.311 36.6788C632.727 36.9195 633.397 36.8933 634.203 36.6087C635.145 36.2761 636.192 35.6239 637.225 34.7178C637.396 34.569 637.567 34.4114 637.742 34.2451C637.3 33.7723 636.862 33.2602 636.424 32.7131C636.082 32.2841 635.749 31.842 635.421 31.3824C634.899 31.3386 634.387 31.2861 633.896 31.2204C633.152 31.1241 632.446 31.0016 631.785 30.8528ZM636.923 31.4699C637.453 32.1703 638.001 32.8225 638.548 33.4134C639.078 32.8312 639.608 32.179 640.134 31.4656C639.595 31.4875 639.052 31.5006 638.5 31.5006C637.966 31.5006 637.44 31.4918 636.923 31.4699ZM636.056 30.2706C636.84 30.3187 637.655 30.345 638.5 30.345C639.345 30.345 640.173 30.3144 640.975 30.2575C641.413 29.6009 641.842 28.9049 642.267 28.1696C642.688 27.4386 643.077 26.7076 643.428 25.981C643.077 25.2763 642.688 24.554 642.263 23.8187C641.842 23.0964 641.409 22.4005 640.962 21.7439C640.16 21.6826 639.332 21.652 638.5 21.652C637.672 21.652 636.849 21.6826 636.038 21.7439C635.583 22.4092 635.145 23.1052 634.729 23.8274C634.317 24.5453 633.931 25.2719 633.581 26.0029C633.931 26.7295 634.317 27.4561 634.733 28.1739C635.153 28.9005 635.596 29.6009 636.056 30.2706ZM632.096 29.7453C632.863 29.9117 633.699 30.0474 634.584 30.1437C634.291 29.6928 634.01 29.2288 633.734 28.7561C633.467 28.2921 633.213 27.8281 632.968 27.3642C632.63 28.1739 632.337 28.975 632.096 29.7453ZM644.054 27.316C643.805 27.7931 643.546 28.2702 643.27 28.7473C642.999 29.2157 642.723 29.6753 642.442 30.1174C643.331 30.0123 644.177 29.8679 644.961 29.6884C644.716 28.9356 644.413 28.1433 644.054 27.316ZM630.992 22.5974C630.668 22.6893 630.357 22.7856 630.064 22.8907C628.824 23.324 627.795 23.8712 627.089 24.4709C626.485 24.9874 626.152 25.5214 626.152 25.9766C626.152 26.4537 626.511 27.0227 627.159 27.5786C627.917 28.2265 629.008 28.8042 630.309 29.2507C630.524 29.3251 630.747 29.3952 630.975 29.4608C631.163 28.8436 631.386 28.209 631.645 27.5568C631.846 27.0403 632.07 26.5237 632.306 26.0072C631.776 24.8473 631.334 23.7005 630.992 22.5974ZM644.707 25.9854C644.93 26.4537 645.136 26.9133 645.324 27.3685C645.618 28.0733 645.868 28.7517 646.073 29.3995C646.227 29.3558 646.38 29.3076 646.525 29.2595C647.883 28.8086 649.013 28.2308 649.797 27.5874C650.471 27.0315 650.844 26.4625 650.844 25.9766C650.844 25.5214 650.498 24.983 649.871 24.4621C649.144 23.8537 648.088 23.3065 646.823 22.8688C646.564 22.7813 646.297 22.6937 646.021 22.6149C645.815 23.289 645.561 23.985 645.263 24.7072C645.092 25.1318 644.908 25.5564 644.707 25.9854ZM642.442 21.8971C642.723 22.3348 642.994 22.7856 643.261 23.2452C643.533 23.718 643.791 24.1863 644.037 24.6503C644.378 23.8493 644.667 23.0702 644.9 22.326C644.129 22.151 643.301 22.0065 642.442 21.8971ZM632.114 22.3173C632.35 23.0745 632.635 23.8581 632.972 24.6503C633.213 24.182 633.467 23.718 633.734 23.254C634.001 22.79 634.277 22.3392 634.562 21.8971C633.708 22.0065 632.884 22.1466 632.114 22.3173ZM641.606 20.6452C642.876 20.7634 644.094 20.956 645.215 21.2142C645.259 21.0348 645.298 20.8553 645.338 20.6802C645.627 19.2839 645.688 18.0145 645.522 17.0122C645.377 16.1499 645.066 15.5414 644.65 15.3007C644.256 15.0731 643.616 15.1037 642.85 15.3882C641.96 15.7165 640.957 16.3512 639.945 17.231C639.74 17.4105 639.534 17.5987 639.323 17.8001C639.801 18.3166 640.283 18.8812 640.76 19.4984C641.045 19.8661 641.325 20.2513 641.606 20.6452ZM632.985 15.1781C632.709 15.1781 632.477 15.2307 632.293 15.3357C631.899 15.5633 631.605 16.1324 631.47 16.9378C631.308 17.8701 631.36 19.0607 631.619 20.3738C631.671 20.6452 631.732 20.921 631.803 21.2055C632.416 21.0654 633.06 20.9472 633.73 20.8466C634.277 20.7634 634.838 20.6977 635.403 20.6452C636.143 19.6034 636.919 18.6448 637.703 17.8001C637.567 17.6687 637.431 17.5462 637.295 17.428C636.227 16.4782 635.158 15.7909 634.207 15.4364C633.752 15.2657 633.336 15.1781 632.985 15.1781ZM638.5 20.5051C639.039 20.5051 639.573 20.5183 640.103 20.5445C639.578 19.8486 639.048 19.2051 638.513 18.6273C637.97 19.2095 637.436 19.8529 636.91 20.5445C637.436 20.5139 637.966 20.5051 638.5 20.5051Z" fill="#969CA0"/>
</g>
<g opacity="0.7" clip-path="url(#clip7)">
<path d="M434.165 23.3453H432.944L432.949 32.658H437.877V31.5067H434.169L434.165 23.3453Z" fill="#9B9B9B"/>
<mask id="mask0" mask-type="alpha" maskUnits="userSpaceOnUse" x="355" y="-6" width="112" height="68">
<path d="M355.009 -5.62201H466.603V61.6206H355.009V-5.62201Z" fill="white"/>
</mask>
<g mask="url(#mask0)">
<path d="M442.57 31.0233C442.267 31.3522 441.752 31.6767 441.059 31.6767C440.133 31.6767 439.757 31.2055 439.757 30.5965C439.757 29.6719 440.38 29.2318 441.708 29.2318C441.959 29.2318 442.357 29.2585 442.565 29.303V31.0233H442.57ZM441.31 25.3778C440.328 25.3778 439.424 25.7379 438.718 26.3336L439.147 27.0981C439.644 26.8003 440.255 26.5025 441.124 26.5025C442.119 26.5025 442.565 27.027 442.565 27.9116V28.365C442.37 28.3206 441.968 28.2939 441.721 28.2939C439.588 28.2939 438.511 29.0629 438.511 30.6676C438.511 32.1034 439.367 32.828 440.67 32.828C441.548 32.828 442.388 32.4146 442.678 31.7478L442.898 32.6591H443.755V27.8983C443.764 26.3869 443.123 25.3778 441.31 25.3778Z" fill="#9B9B9B"/>
<path d="M447.692 31.7193C447.234 31.7193 446.835 31.6615 446.528 31.5192V27.6608V27.2118C446.944 26.8562 447.454 26.5984 448.108 26.5984C449.285 26.5984 449.739 27.4519 449.739 28.8299C449.739 30.7947 449.008 31.7193 447.692 31.7193ZM448.203 25.376C447.112 25.376 446.528 26.1361 446.528 26.1361V24.9359L446.524 23.3445H445.974H445.334L445.338 32.4305C445.935 32.6883 446.749 32.8306 447.636 32.8306C449.908 32.8306 450.998 31.337 450.998 28.7632C450.998 26.7273 449.99 25.376 448.203 25.376Z" fill="#9B9B9B"/>
<path d="M420.924 24.3545C422.006 24.3545 422.694 24.7235 423.153 25.0924L423.676 24.1589C422.962 23.5144 422.002 23.1721 420.981 23.1721C418.393 23.1721 416.58 24.7946 416.58 28.0618C416.58 31.4891 418.536 32.8226 420.773 32.8226C421.894 32.8226 422.85 32.5515 423.473 32.2803L423.447 28.6175V28.1863V27.4662H420.124V28.6175H422.24L422.266 31.3957C421.989 31.538 421.504 31.6535 420.855 31.6535C419.055 31.6535 417.852 30.4889 417.852 28.044C417.852 25.5636 419.098 24.3545 420.924 24.3545Z" fill="#9B9B9B"/>
<path d="M429.489 23.3449H428.299L428.303 24.9096V25.5497V25.9231V26.5721V30.2972V30.3106C428.303 31.8175 428.939 32.8265 430.752 32.8265C431.003 32.8265 431.25 32.8043 431.488 32.7599V31.6619C431.315 31.6886 431.133 31.7063 430.934 31.7063C429.939 31.7063 429.493 31.1818 429.493 30.2972V26.5721H431.488V25.5497H429.493L429.489 23.3449Z" fill="#9B9B9B"/>
<path d="M425.279 32.6559H426.469V25.548H425.279V32.6559Z" fill="#9B9B9B"/>
<path d="M425.279 24.5657H426.469V23.3432H425.279V24.5657Z" fill="#9B9B9B"/>
<path d="M411.43 29.866L409.894 25.0074L406.848 15.3746C406.692 14.8812 406.009 14.8812 405.853 15.3746L402.807 25.0074H392.681L389.635 15.3746C389.479 14.8812 388.796 14.8812 388.64 15.3746L385.594 25.0074L384.057 29.866C383.919 30.3105 384.07 30.795 384.438 31.0706L397.748 41.0012L411.058 31.0706C411.417 30.795 411.569 30.3105 411.43 29.866Z" fill="#A1A1A1"/>
<path d="M397.741 40.9987L402.8 25.0048H392.679L397.741 40.9987Z" fill="#9B9B9B"/>
<path d="M397.739 40.9984L392.681 25.0046H385.589L397.739 40.9984Z" fill="#B2B2B2"/>
<path d="M385.59 25.0043L384.05 29.8673C383.911 30.3119 384.063 30.7964 384.43 31.072L397.74 41.0026L385.59 25.0043Z" fill="#DBDBDB"/>
<path d="M385.592 25.0065H392.684L389.638 15.3737C389.482 14.8759 388.798 14.8759 388.642 15.3737L385.592 25.0065Z" fill="#9B9B9B"/>
<path d="M397.741 40.9984L402.8 25.0046H409.892L397.741 40.9984Z" fill="#B2B2B2"/>
<path d="M409.893 25.0044L411.429 29.863C411.568 30.3076 411.416 30.7921 411.048 31.0677L397.738 40.9983L409.893 25.0044Z" fill="#DBDBDB"/>
<path d="M409.892 25.0065H402.8L405.846 15.3737C406.002 14.8759 406.685 14.8759 406.841 15.3737L409.892 25.0065Z" fill="#9B9B9B"/>
</g>
</g>
<defs>
<clipPath id="clip0">
<rect width="27" height="27" fill="white" transform="translate(689 13)"/>
</clipPath>
<clipPath id="clip1">
<rect width="100" height="28" fill="white" transform="translate(488 13)"/>
</clipPath>
<clipPath id="clip2">
<rect width="66" height="22" fill="white" transform="translate(66 19)"/>
</clipPath>
<clipPath id="clip3">
<rect width="27" height="27" fill="white" transform="translate(2 17)"/>
</clipPath>
<clipPath id="clip4">
<rect width="67" height="18" fill="white" transform="translate(169 21)"/>
</clipPath>
<clipPath id="clip5">
<rect width="73" height="29" fill="white" transform="translate(273 13)"/>
</clipPath>
<clipPath id="clip6">
<rect width="27" height="24" fill="white" transform="translate(625 14)"/>
</clipPath>
<clipPath id="clip7">
<rect width="67" height="26" fill="white" transform="translate(384 15)"/>
</clipPath>
</defs>
</svg>
